<ttFont>
    <TTGlyph name=".notdef" xMin="19" yMin="0" xMax="1171" yMax="1462">
      <contour>
        <pt x="861" y="0" on="1"/>
        <pt x="19" y="0" on="1"/>
        <pt x="329" y="1462" on="1"/>
        <pt x="1171" y="1462" on="1"/>
      </contour>
      <contour>
        <pt x="412" y="1358" on="1"/>
        <pt x="146" y="104" on="1"/>
        <pt x="778" y="104" on="1"/>
        <pt x="1044" y="1358" on="1"/>
      </contour>
    </TTGlyph>
    <TTGlyph name="A" xMin="-166" yMin="0" xMax="994" yMax="1468">
      <contour>
        <pt x="994" y="0" on="1"/>
        <pt x="642" y="0" on="1"/>
        <pt x="637" y="358" on="1"/>
        <pt x="342" y="358" on="1"/>
        <pt x="185" y="0" on="1"/>
        <pt x="-166" y="0" on="1"/>
        <pt x="509" y="1468" on="1"/>
        <pt x="942" y="1468" on="1"/>
      </contour>
      <contour>
        <pt x="636" y="635" on="1"/>
        <pt x="631" y="1020" on="1"/>
        <pt x="566" y="868" on="0"/>
        <pt x="464" y="635" on="1"/>
      </contour>
    </TTGlyph>
    <TTGlyph name="AE" xMin="-205" yMin="0" xMax="1497" yMax="1462">
      <contour>
        <pt x="1069" y="1191" on="1"/>
        <pt x="1006" y="896" on="1"/>
        <pt x="1350" y="896" on="1"/>
        <pt x="1292" y="624" on="1"/>
        <pt x="948" y="624" on="1"/>
        <pt x="874" y="274" on="1"/>
        <pt x="1245" y="274" on="1"/>
        <pt x="1187" y="0" on="1"/>
        <pt x="466" y="0" on="1"/>
        <pt x="542" y="358" on="1"/>
        <pt x="330" y="358" on="1"/>
        <pt x="197" y="102" on="0"/>
        <pt x="145" y="0" on="1"/>
        <pt x="-205" y="0" on="1"/>
        <pt x="578" y="1462" on="1"/>
        <pt x="1497" y="1462" on="1"/>
        <pt x="1440" y="1191" on="1"/>
      </contour>
      <contour>
        <pt x="762" y="1191" on="1"/>
        <pt x="723" y="1213" on="1"/>
        <pt x="689" y="1052" on="1"/>
        <pt x="476" y="635" on="1"/>
        <pt x="601" y="635" on="1"/>
        <pt x="689" y="1052" on="1"/>
        <pt x="744" y="1159" on="1"/>
        <pt x="752" y="1178" on="0"/>
        <pt x="761" y="1191" on="1"/>
      </contour>
    </TTGlyph>
    <TTGlyph name="Aacute" xMin="-253" yMin="0" xMax="1118" yMax="1904">
      <contour>
        <pt x="1118" y="1904" on="1"/>
        <pt x="1115" y="1886" on="1"/>
        <pt x="1039" y="1835" on="0"/>
        <pt x="747" y="1653" on="0"/>
        <pt x="677" y="1616" on="1"/>
        <pt x="449" y="1616" on="1"/>
        <pt x="454" y="1641" on="1"/>
        <pt x="621" y="1787" on="0"/>
        <pt x="718" y="1877" on="0"/>
        <pt x="742" y="1904" on="1"/>
      </contour>
      <contour>
        <pt x="907" y="0" on="1"/>
        <pt x="555" y="0" on="1"/>
        <pt x="550" y="358" on="1"/>
        <pt x="255" y="358" on="1"/>
        <pt x="98" y="0" on="1"/>
        <pt x="-253" y="0" on="1"/>
        <pt x="422" y="1468" on="1"/>
        <pt x="855" y="1468" on="1"/>
      </contour>
      <contour>
        <pt x="549" y="635" on="1"/>
        <pt x="543" y="1020" on="1"/>
        <pt x="499" y="913" on="0"/>
        <pt x="377" y="635" on="1"/>
      </contour>
    </TTGlyph>
    <TTGlyph name="Acircumflex" xMin="-253" yMin="0" xMax="1075" yMax="1905">
      <contour>
        <pt x="558" y="1905" on="1"/>
        <pt x="904" y="1905" on="1"/>
        <pt x="959" y="1789" on="0"/>
        <pt x="1075" y="1642" on="1"/>
        <pt x="1069" y="1617" on="1"/>
        <pt x="845" y="1617" on="1"/>
        <pt x="783" y="1657" on="0"/>
        <pt x="696" y="1749" on="1"/>
        <pt x="566" y="1654" on="0"/>
        <pt x="497" y="1617" on="1"/>
        <pt x="270" y="1617" on="1"/>
        <pt x="276" y="1642" on="1"/>
        <pt x="340" y="1692" on="0"/>
        <pt x="513" y="1852" on="0"/>
      </contour>
      <contour>
        <pt x="907" y="0" on="1"/>
        <pt x="555" y="0" on="1"/>
        <pt x="550" y="358" on="1"/>
        <pt x="255" y="358" on="1"/>
        <pt x="98" y="0" on="1"/>
        <pt x="-253" y="0" on="1"/>
        <pt x="422" y="1468" on="1"/>
        <pt x="855" y="1468" on="1"/>
      </contour>
      <contour>
        <pt x="549" y="635" on="1"/>
        <pt x="543" y="1020" on="1"/>
        <pt x="538" y="1007" on="0"/>
        <pt x="377" y="635" on="1"/>
      </contour>
    </TTGlyph>
    <TTGlyph name="Adieresis" xMin="-252" yMin="0" xMax="1082" yMax="1892">
      <contour>
        <pt x="365" y="1818" on="0"/>
        <pt x="461" y="1892" on="0"/>
        <pt x="603" y="1892" on="0"/>
        <pt x="636" y="1854" on="1"/>
        <pt x="659" y="1826" on="0"/>
        <pt x="659" y="1787" on="1"/>
        <pt x="659" y="1770" on="0"/>
        <pt x="655" y="1751" on="1"/>
        <pt x="641" y="1688" on="0"/>
        <pt x="544" y="1613" on="0"/>
        <pt x="402" y="1613" on="0"/>
        <pt x="370" y="1650" on="1"/>
        <pt x="347" y="1675" on="0"/>
        <pt x="347" y="1714" on="1"/>
        <pt x="347" y="1731" on="0"/>
        <pt x="351" y="1751" on="1"/>
      </contour>
      <contour>
        <pt x="788" y="1818" on="0"/>
        <pt x="884" y="1892" on="0"/>
        <pt x="1026" y="1892" on="0"/>
        <pt x="1059" y="1854" on="1"/>
        <pt x="1082" y="1826" on="0"/>
        <pt x="1082" y="1787" on="1"/>
        <pt x="1082" y="1770" on="0"/>
        <pt x="1078" y="1751" on="1"/>
        <pt x="1064" y="1688" on="0"/>
        <pt x="967" y="1613" on="0"/>
        <pt x="825" y="1613" on="0"/>
        <pt x="792" y="1650" on="1"/>
        <pt x="770" y="1675" on="0"/>
        <pt x="770" y="1714" on="1"/>
        <pt x="770" y="1731" on="0"/>
        <pt x="774" y="1751" on="1"/>
      </contour>
      <contour>
        <pt x="908" y="0" on="1"/>
        <pt x="556" y="0" on="1"/>
        <pt x="551" y="358" on="1"/>
        <pt x="256" y="358" on="1"/>
        <pt x="99" y="0" on="1"/>
        <pt x="-252" y="0" on="1"/>
        <pt x="423" y="1468" on="1"/>
        <pt x="856" y="1468" on="1"/>
      </contour>
      <contour>
        <pt x="550" y="635" on="1"/>
        <pt x="545" y="1020" on="1"/>
        <pt x="480" y="868" on="0"/>
        <pt x="378" y="635" on="1"/>
      </contour>
    </TTGlyph>
    <TTGlyph name="Agrave" xMin="-253" yMin="0" xMax="907" yMax="1905">
      <contour>
        <pt x="342" y="1905" on="1"/>
        <pt x="720" y="1905" on="1"/>
        <pt x="760" y="1833" on="0"/>
        <pt x="856" y="1700" on="1"/>
        <pt x="895" y="1642" on="1"/>
        <pt x="889" y="1617" on="1"/>
        <pt x="661" y="1617" on="1"/>
        <pt x="610" y="1653" on="0"/>
        <pt x="411" y="1819" on="0"/>
        <pt x="339" y="1887" on="1"/>
      </contour>
      <contour>
        <pt x="907" y="0" on="1"/>
        <pt x="555" y="0" on="1"/>
        <pt x="550" y="358" on="1"/>
        <pt x="255" y="358" on="1"/>
        <pt x="98" y="0" on="1"/>
        <pt x="-253" y="0" on="1"/>
        <pt x="422" y="1468" on="1"/>
        <pt x="855" y="1468" on="1"/>
      </contour>
      <contour>
        <pt x="549" y="635" on="1"/>
        <pt x="543" y="1020" on="1"/>
        <pt x="538" y="1007" on="0"/>
        <pt x="377" y="635" on="1"/>
      </contour>
    </TTGlyph>
    <TTGlyph name="Aring" xMin="-243" yMin="0" xMax="928" yMax="1802">
      <contour>
        <pt x="451" y="1468" on="1"/>
        <pt x="443" y="1492" on="0"/>
        <pt x="443" y="1548" on="0"/>
        <pt x="450" y="1578" on="1"/>
        <pt x="471" y="1679" on="0"/>
        <pt x="622" y="1802" on="0"/>
        <pt x="834" y="1802" on="0"/>
        <pt x="888" y="1740" on="1"/>
        <pt x="928" y="1696" on="0"/>
        <pt x="928" y="1632" on="1"/>
        <pt x="928" y="1607" on="0"/>
        <pt x="922" y="1580" on="1"/>
        <pt x="907" y="1511" on="0"/>
        <pt x="866" y="1461" on="1"/>
        <pt x="917" y="0" on="1"/>
        <pt x="565" y="0" on="1"/>
        <pt x="561" y="358" on="1"/>
        <pt x="266" y="358" on="1"/>
        <pt x="108" y="0" on="1"/>
        <pt x="-243" y="0" on="1"/>
        <pt x="433" y="1468" on="1"/>
      </contour>
      <contour>
        <pt x="602" y="1545" on="0"/>
        <pt x="631" y="1504" on="0"/>
        <pt x="697" y="1504" on="0"/>
        <pt x="723" y="1525" on="1"/>
        <pt x="758" y="1553" on="0"/>
        <pt x="758" y="1596" on="1"/>
        <pt x="758" y="1617" on="0"/>
        <pt x="729" y="1652" on="0"/>
        <pt x="667" y="1652" on="0"/>
        <pt x="616" y="1611" on="0"/>
      </contour>
      <contour>
        <pt x="559" y="635" on="1"/>
        <pt x="554" y="1020" on="1"/>
        <pt x="529" y="959" on="0"/>
        <pt x="387" y="635" on="1"/>
      </contour>
    </TTGlyph>
    <TTGlyph name="Atilde" xMin="-251" yMin="0" xMax="1099" yMax="1878">
      <contour>
        <pt x="819" y="1577" on="1"/>
        <pt x="763" y="1577" on="0"/>
        <pt x="576" y="1662" on="0"/>
        <pt x="534" y="1662" on="1"/>
        <pt x="488" y="1662" on="0"/>
        <pt x="452" y="1576" on="1"/>
        <pt x="294" y="1576" on="1"/>
        <pt x="336" y="1730" on="0"/>
        <pt x="475" y="1877" on="0"/>
        <pt x="579" y="1877" on="1"/>
        <pt x="624" y="1877" on="0"/>
        <pt x="812" y="1792" on="0"/>
        <pt x="904" y="1792" on="0"/>
        <pt x="939" y="1878" on="1"/>
        <pt x="1099" y="1878" on="1"/>
        <pt x="1059" y="1731" on="0"/>
        <pt x="915" y="1577" on="0"/>
      </contour>
      <contour>
        <pt x="909" y="0" on="1"/>
        <pt x="557" y="0" on="1"/>
        <pt x="553" y="358" on="1"/>
        <pt x="258" y="358" on="1"/>
        <pt x="100" y="0" on="1"/>
        <pt x="-251" y="0" on="1"/>
        <pt x="424" y="1468" on="1"/>
        <pt x="857" y="1468" on="1"/>
      </contour>
      <contour>
        <pt x="551" y="635" on="1"/>
        <pt x="546" y="1020" on="1"/>
        <pt x="521" y="959" on="0"/>
        <pt x="379" y="635" on="1"/>
      </contour>
    </TTGlyph>
    <TTGlyph name="B" xMin="-7" yMin="0" xMax="1106" yMax="1462">
      <contour>
        <pt x="707" y="1462" on="1"/>
        <pt x="951" y="1462" on="0"/>
        <pt x="1043" y="1371" on="1"/>
        <pt x="1106" y="1309" on="0"/>
        <pt x="1106" y="1197" on="1"/>
        <pt x="1106" y="1144" on="0"/>
        <pt x="1092" y="1081" on="1"/>
        <pt x="1066" y="955" on="0"/>
        <pt x="986" y="863" on="1"/>
        <pt x="932" y="798" on="0"/>
        <pt x="848" y="769" on="1"/>
        <pt x="946" y="728" on="0"/>
        <pt x="978" y="646" on="1"/>
        <pt x="995" y="601" on="0"/>
        <pt x="995" y="492" on="0"/>
        <pt x="983" y="433" on="1"/>
        <pt x="940" y="231" on="0"/>
        <pt x="658" y="2" on="0"/>
        <pt x="462" y="0" on="1"/>
        <pt x="-7" y="0" on="1"/>
        <pt x="303" y="1462" on="1"/>
      </contour>
      <contour>
        <pt x="594" y="891" on="1"/>
        <pt x="653" y="891" on="0"/>
        <pt x="719" y="968" on="0"/>
        <pt x="736" y="1047" on="1"/>
        <pt x="743" y="1080" on="0"/>
        <pt x="743" y="1109" on="1"/>
        <pt x="743" y="1191" on="0"/>
        <pt x="648" y="1191" on="1"/>
        <pt x="579" y="1191" on="1"/>
        <pt x="515" y="891" on="1"/>
      </contour>
      <contour>
        <pt x="475" y="274" on="1"/>
        <pt x="594" y="274" on="0"/>
        <pt x="634" y="459" on="1"/>
        <pt x="642" y="497" on="0"/>
        <pt x="642" y="526" on="1"/>
        <pt x="642" y="628" on="0"/>
        <pt x="546" y="628" on="1"/>
        <pt x="459" y="628" on="1"/>
        <pt x="384" y="274" on="1"/>
      </contour>
    </TTGlyph>
    <TTGlyph name="C" xMin="60" yMin="-19" xMax="1120" yMax="1482">
      <contour>
        <pt x="474" y="-19" on="1"/>
        <pt x="225" y="-19" on="0"/>
        <pt x="124" y="154" on="1"/>
        <pt x="60" y="266" on="0"/>
        <pt x="60" y="447" on="1"/>
        <pt x="60" y="573" on="0"/>
        <pt x="119" y="848" on="0"/>
        <pt x="198" y="1060" on="0"/>
        <pt x="320" y="1257" on="0"/>
        <pt x="472" y="1398" on="0"/>
        <pt x="679" y="1482" on="0"/>
        <pt x="886" y="1482" on="0"/>
        <pt x="1038" y="1430" on="0"/>
        <pt x="1120" y="1369" on="1"/>
        <pt x="967" y="1122" on="1"/>
        <pt x="956" y="1133" on="0"/>
        <pt x="906" y="1167" on="0"/>
        <pt x="882" y="1178" on="1"/>
        <pt x="820" y="1209" on="0"/>
        <pt x="701" y="1209" on="0"/>
        <pt x="611" y="1140" on="0"/>
        <pt x="548" y="1040" on="0"/>
        <pt x="520" y="970" on="1"/>
        <pt x="477" y="862" on="0"/>
        <pt x="416" y="577" on="0"/>
        <pt x="416" y="474" on="1"/>
        <pt x="416" y="255" on="0"/>
        <pt x="563" y="255" on="1"/>
        <pt x="657" y="255" on="0"/>
        <pt x="864" y="361" on="1"/>
        <pt x="802" y="66" on="1"/>
        <pt x="653" y="-19" on="0"/>
      </contour>
    </TTGlyph>
    <TTGlyph name="Ccedilla" xMin="46" yMin="-431" xMax="1105" yMax="1482">
      <contour>
        <pt x="845" y="1190" on="0"/>
        <pt x="774" y="1209" on="0"/>
        <pt x="687" y="1209" on="0"/>
        <pt x="596" y="1140" on="0"/>
        <pt x="533" y="1039" on="0"/>
        <pt x="506" y="970" on="1"/>
        <pt x="464" y="866" on="0"/>
        <pt x="402" y="577" on="0"/>
        <pt x="402" y="474" on="1"/>
        <pt x="402" y="255" on="0"/>
        <pt x="549" y="255" on="1"/>
        <pt x="643" y="255" on="0"/>
        <pt x="850" y="361" on="1"/>
        <pt x="787" y="66" on="1"/>
        <pt x="644" y="-16" on="0"/>
        <pt x="475" y="-19" on="1"/>
        <pt x="472" y="-24" on="1"/>
        <pt x="494" y="-26" on="0"/>
        <pt x="554" y="-67" on="0"/>
        <pt x="569" y="-89" on="1"/>
        <pt x="597" y="-130" on="0"/>
        <pt x="597" y="-175" on="1"/>
        <pt x="597" y="-195" on="0"/>
        <pt x="591" y="-219" on="1"/>
        <pt x="546" y="-431" on="0"/>
        <pt x="292" y="-431" on="1"/>
        <pt x="257" y="-431" on="0"/>
        <pt x="178" y="-413" on="0"/>
        <pt x="156" y="-404" on="1"/>
        <pt x="135" y="-395" on="1"/>
        <pt x="171" y="-226" on="1"/>
        <pt x="239" y="-255" on="0"/>
        <pt x="354" y="-255" on="0"/>
        <pt x="364" y="-207" on="1"/>
        <pt x="370" y="-180" on="0"/>
        <pt x="315" y="-134" on="0"/>
        <pt x="284" y="-124" on="1"/>
        <pt x="254" y="-114" on="1"/>
        <pt x="315" y="-30" on="0"/>
        <pt x="333" y="-6" on="1"/>
        <pt x="226" y="19" on="0"/>
        <pt x="91" y="158" on="0"/>
        <pt x="46" y="350" on="0"/>
        <pt x="46" y="449" on="1"/>
        <pt x="46" y="576" on="0"/>
        <pt x="104" y="848" on="0"/>
        <pt x="183" y="1060" on="0"/>
        <pt x="306" y="1257" on="0"/>
        <pt x="458" y="1398" on="0"/>
        <pt x="664" y="1482" on="0"/>
        <pt x="871" y="1482" on="0"/>
        <pt x="1024" y="1430" on="0"/>
        <pt x="1105" y="1369" on="1"/>
        <pt x="953" y="1122" on="1"/>
        <pt x="942" y="1133" on="0"/>
        <pt x="892" y="1167" on="0"/>
      </contour>
    </TTGlyph>
    <TTGlyph name="D" xMin="-7" yMin="0" xMax="1168" yMax="1462">
      <contour>
        <pt x="725" y="1462" on="1"/>
        <pt x="844" y="1462" on="0"/>
        <pt x="1020" y="1387" on="0"/>
        <pt x="1071" y="1322" on="1"/>
        <pt x="1168" y="1199" on="0"/>
        <pt x="1168" y="989" on="1"/>
        <pt x="1168" y="878" on="0"/>
        <pt x="1112" y="615" on="0"/>
        <pt x="1026" y="396" on="0"/>
        <pt x="896" y="207" on="0"/>
        <pt x="731" y="75" on="0"/>
        <pt x="512" y="0" on="0"/>
        <pt x="383" y="0" on="1"/>
        <pt x="-7" y="0" on="1"/>
        <pt x="303" y="1462" on="1"/>
      </contour>
      <contour>
        <pt x="443" y="274" on="1"/>
        <pt x="565" y="274" on="0"/>
        <pt x="732" y="504" on="0"/>
        <pt x="781" y="737" on="1"/>
        <pt x="811" y="876" on="0"/>
        <pt x="811" y="973" on="1"/>
        <pt x="811" y="1191" on="0"/>
        <pt x="659" y="1191" on="1"/>
        <pt x="596" y="1191" on="1"/>
        <pt x="401" y="274" on="1"/>
      </contour>
    </TTGlyph>
    <TTGlyph name="E" xMin="-7" yMin="0" xMax="1028" yMax="1462">
      <contour>
        <pt x="971" y="1191" on="1"/>
        <pt x="596" y="1191" on="1"/>
        <pt x="533" y="896" on="1"/>
        <pt x="881" y="896" on="1"/>
        <pt x="823" y="624" on="1"/>
        <pt x="475" y="624" on="1"/>
        <pt x="401" y="274" on="1"/>
        <pt x="776" y="274" on="1"/>
        <pt x="718" y="0" on="1"/>
        <pt x="-7" y="0" on="1"/>
        <pt x="303" y="1462" on="1"/>
        <pt x="1028" y="1462" on="1"/>
      </contour>
    </TTGlyph>
    <TTGlyph name="Eacute" xMin="-123" yMin="0" xMax="1049" yMax="1904">
      <contour>
        <pt x="1049" y="1904" on="1"/>
        <pt x="1046" y="1886" on="1"/>
        <pt x="970" y="1835" on="0"/>
        <pt x="678" y="1653" on="0"/>
        <pt x="608" y="1616" on="1"/>
        <pt x="380" y="1616" on="1"/>
        <pt x="385" y="1641" on="1"/>
        <pt x="552" y="1787" on="0"/>
        <pt x="649" y="1877" on="0"/>
        <pt x="673" y="1904" on="1"/>
      </contour>
      <contour>
        <pt x="855" y="1191" on="1"/>
        <pt x="480" y="1191" on="1"/>
        <pt x="417" y="896" on="1"/>
        <pt x="765" y="896" on="1"/>
        <pt x="707" y="624" on="1"/>
        <pt x="359" y="624" on="1"/>
        <pt x="285" y="274" on="1"/>
        <pt x="660" y="274" on="1"/>
        <pt x="602" y="0" on="1"/>
        <pt x="-123" y="0" on="1"/>
        <pt x="187" y="1462" on="1"/>
        <pt x="912" y="1462" on="1"/>
      </contour>
    </TTGlyph>
    <TTGlyph name="Ecircumflex" xMin="-123" yMin="0" xMax="986" yMax="1905">
      <contour>
        <pt x="469" y="1905" on="1"/>
        <pt x="815" y="1905" on="1"/>
        <pt x="870" y="1789" on="0"/>
        <pt x="986" y="1642" on="1"/>
        <pt x="980" y="1617" on="1"/>
        <pt x="756" y="1617" on="1"/>
        <pt x="694" y="1657" on="0"/>
        <pt x="607" y="1749" on="1"/>
        <pt x="477" y="1654" on="0"/>
        <pt x="408" y="1617" on="1"/>
        <pt x="181" y="1617" on="1"/>
        <pt x="187" y="1642" on="1"/>
        <pt x="251" y="1692" on="0"/>
        <pt x="424" y="1852" on="0"/>
      </contour>
      <contour>
        <pt x="855" y="1191" on="1"/>
        <pt x="480" y="1191" on="1"/>
        <pt x="417" y="896" on="1"/>
        <pt x="765" y="896" on="1"/>
        <pt x="707" y="624" on="1"/>
        <pt x="359" y="624" on="1"/>
        <pt x="285" y="274" on="1"/>
        <pt x="660" y="274" on="1"/>
        <pt x="602" y="0" on="1"/>
        <pt x="-123" y="0" on="1"/>
        <pt x="187" y="1462" on="1"/>
        <pt x="912" y="1462" on="1"/>
      </contour>
    </TTGlyph>
    <TTGlyph name="Edieresis" xMin="-122" yMin="0" xMax="996" yMax="1892">
      <contour>
        <pt x="279" y="1818" on="0"/>
        <pt x="375" y="1892" on="0"/>
        <pt x="517" y="1892" on="0"/>
        <pt x="550" y="1854" on="1"/>
        <pt x="573" y="1826" on="0"/>
        <pt x="573" y="1787" on="1"/>
        <pt x="573" y="1770" on="0"/>
        <pt x="569" y="1751" on="1"/>
        <pt x="555" y="1688" on="0"/>
        <pt x="458" y="1613" on="0"/>
        <pt x="316" y="1613" on="0"/>
        <pt x="284" y="1650" on="1"/>
        <pt x="261" y="1675" on="0"/>
        <pt x="261" y="1714" on="1"/>
        <pt x="261" y="1731" on="0"/>
        <pt x="265" y="1751" on="1"/>
      </contour>
      <contour>
        <pt x="702" y="1818" on="0"/>
        <pt x="798" y="1892" on="0"/>
        <pt x="940" y="1892" on="0"/>
        <pt x="973" y="1854" on="1"/>
        <pt x="996" y="1826" on="0"/>
        <pt x="996" y="1787" on="1"/>
        <pt x="996" y="1770" on="0"/>
        <pt x="992" y="1751" on="1"/>
        <pt x="978" y="1688" on="0"/>
        <pt x="881" y="1613" on="0"/>
        <pt x="739" y="1613" on="0"/>
        <pt x="706" y="1650" on="1"/>
        <pt x="684" y="1675" on="0"/>
        <pt x="684" y="1714" on="1"/>
        <pt x="684" y="1731" on="0"/>
        <pt x="688" y="1751" on="1"/>
      </contour>
      <contour>
        <pt x="856" y="1191" on="1"/>
        <pt x="481" y="1191" on="1"/>
        <pt x="418" y="896" on="1"/>
        <pt x="766" y="896" on="1"/>
        <pt x="709" y="624" on="1"/>
        <pt x="361" y="624" on="1"/>
        <pt x="286" y="274" on="1"/>
        <pt x="661" y="274" on="1"/>
        <pt x="603" y="0" on="1"/>
        <pt x="-122" y="0" on="1"/>
        <pt x="189" y="1462" on="1"/>
        <pt x="914" y="1462" on="1"/>
      </contour>
    </TTGlyph>
    <TTGlyph name="Egrave" xMin="-123" yMin="0" xMax="912" yMax="1905">
      <contour>
        <pt x="238" y="1905" on="1"/>
        <pt x="616" y="1905" on="1"/>
        <pt x="656" y="1833" on="0"/>
        <pt x="752" y="1700" on="1"/>
        <pt x="791" y="1642" on="1"/>
        <pt x="785" y="1617" on="1"/>
        <pt x="557" y="1617" on="1"/>
        <pt x="506" y="1653" on="0"/>
        <pt x="307" y="1819" on="0"/>
        <pt x="235" y="1887" on="1"/>
      </contour>
      <contour>
        <pt x="855" y="1191" on="1"/>
        <pt x="480" y="1191" on="1"/>
        <pt x="417" y="896" on="1"/>
        <pt x="765" y="896" on="1"/>
        <pt x="707" y="624" on="1"/>
        <pt x="359" y="624" on="1"/>
        <pt x="285" y="274" on="1"/>
        <pt x="660" y="274" on="1"/>
        <pt x="602" y="0" on="1"/>
        <pt x="-123" y="0" on="1"/>
        <pt x="187" y="1462" on="1"/>
        <pt x="912" y="1462" on="1"/>
      </contour>
    </TTGlyph>
    <TTGlyph name="Eth" xMin="-37" yMin="0" xMax="1168" yMax="1462">
      <contour>
        <pt x="725" y="1462" on="1"/>
        <pt x="844" y="1462" on="0"/>
        <pt x="1020" y="1387" on="0"/>
        <pt x="1071" y="1322" on="1"/>
        <pt x="1168" y="1199" on="0"/>
        <pt x="1168" y="989" on="1"/>
        <pt x="1168" y="878" on="0"/>
        <pt x="1112" y="615" on="0"/>
        <pt x="1026" y="396" on="0"/>
        <pt x="896" y="207" on="0"/>
        <pt x="731" y="75" on="0"/>
        <pt x="512" y="0" on="0"/>
        <pt x="383" y="0" on="1"/>
        <pt x="-7" y="0" on="1"/>
        <pt x="121" y="605" on="1"/>
        <pt x="-37" y="605" on="1"/>
        <pt x="13" y="841" on="1"/>
        <pt x="171" y="841" on="1"/>
        <pt x="303" y="1462" on="1"/>
      </contour>
      <contour>
        <pt x="443" y="274" on="1"/>
        <pt x="565" y="274" on="0"/>
        <pt x="732" y="504" on="0"/>
        <pt x="781" y="737" on="1"/>
        <pt x="811" y="876" on="0"/>
        <pt x="811" y="973" on="1"/>
        <pt x="811" y="1191" on="0"/>
        <pt x="659" y="1191" on="1"/>
        <pt x="596" y="1191" on="1"/>
        <pt x="521" y="841" on="1"/>
        <pt x="620" y="841" on="1"/>
        <pt x="570" y="605" on="1"/>
        <pt x="471" y="605" on="1"/>
        <pt x="401" y="274" on="1"/>
      </contour>
    </TTGlyph>
    <TTGlyph name="Euro" xMin="-61" yMin="-19" xMax="1086" yMax="1484">
      <contour>
        <pt x="785" y="1484" on="1"/>
        <pt x="877" y="1484" on="0"/>
        <pt x="1015" y="1445" on="0"/>
        <pt x="1086" y="1400" on="1"/>
        <pt x="925" y="1146" on="1"/>
        <pt x="801" y="1211" on="0"/>
        <pt x="739" y="1211" on="1"/>
        <pt x="616" y="1211" on="0"/>
        <pt x="519" y="961" on="1"/>
        <pt x="802" y="961" on="1"/>
        <pt x="758" y="755" on="1"/>
        <pt x="458" y="755" on="1"/>
        <pt x="442" y="679" on="1"/>
        <pt x="699" y="679" on="1"/>
        <pt x="655" y="473" on="1"/>
        <pt x="418" y="473" on="1"/>
        <pt x="420" y="255" on="0"/>
        <pt x="550" y="255" on="1"/>
        <pt x="639" y="255" on="0"/>
        <pt x="841" y="362" on="1"/>
        <pt x="778" y="66" on="1"/>
        <pt x="626" y="-19" on="0"/>
        <pt x="463" y="-19" on="1"/>
        <pt x="259" y="-19" on="0"/>
        <pt x="158" y="107" on="1"/>
        <pt x="68" y="221" on="0"/>
        <pt x="68" y="427" on="1"/>
        <pt x="68" y="449" on="0"/>
        <pt x="69" y="473" on="1"/>
        <pt x="-61" y="473" on="1"/>
        <pt x="-17" y="679" on="1"/>
        <pt x="97" y="679" on="1"/>
        <pt x="113" y="755" on="1"/>
        <pt x="-1" y="755" on="1"/>
        <pt x="43" y="961" on="1"/>
        <pt x="171" y="961" on="1"/>
        <pt x="266" y="1216" on="0"/>
        <pt x="582" y="1484" on="0"/>
      </contour>
    </TTGlyph>
    <TTGlyph name="F" xMin="-7" yMin="0" xMax="1024" yMax="1462">
      <contour>
        <pt x="967" y="1191" on="1"/>
        <pt x="594" y="1191" on="1"/>
        <pt x="519" y="840" on="1"/>
        <pt x="867" y="840" on="1"/>
        <pt x="810" y="569" on="1"/>
        <pt x="462" y="569" on="1"/>
        <pt x="341" y="0" on="1"/>
        <pt x="-7" y="0" on="1"/>
        <pt x="303" y="1462" on="1"/>
        <pt x="1024" y="1462" on="1"/>
      </contour>
    </TTGlyph>
    <TTGlyph name="G" xMin="61" yMin="-19" xMax="1224" yMax="1482">
      <contour>
        <pt x="417" y="478" on="1"/>
        <pt x="417" y="255" on="0"/>
        <pt x="554" y="255" on="1"/>
        <pt x="595" y="255" on="0"/>
        <pt x="643" y="264" on="1"/>
        <pt x="704" y="554" on="1"/>
        <pt x="529" y="554" on="1"/>
        <pt x="588" y="830" on="1"/>
        <pt x="1107" y="830" on="1"/>
        <pt x="946" y="72" on="1"/>
        <pt x="713" y="-19" on="0"/>
        <pt x="491" y="-19" on="1"/>
        <pt x="368" y="-19" on="0"/>
        <pt x="192" y="62" on="0"/>
        <pt x="144" y="130" on="1"/>
        <pt x="61" y="249" on="0"/>
        <pt x="61" y="452" on="1"/>
        <pt x="61" y="572" on="0"/>
        <pt x="121" y="860" on="0"/>
        <pt x="213" y="1082" on="0"/>
        <pt x="351" y="1271" on="0"/>
        <pt x="524" y="1406" on="0"/>
        <pt x="749" y="1482" on="0"/>
        <pt x="877" y="1482" on="1"/>
        <pt x="1060" y="1482" on="0"/>
        <pt x="1224" y="1379" on="1"/>
        <pt x="1064" y="1113" on="1"/>
        <pt x="921" y="1207" on="0"/>
        <pt x="834" y="1207" on="1"/>
        <pt x="770" y="1207" on="0"/>
        <pt x="656" y="1147" on="0"/>
        <pt x="574" y="1051" on="0"/>
        <pt x="540" y="986" on="1"/>
        <pt x="478" y="871" on="0"/>
        <pt x="417" y="580" on="0"/>
      </contour>
    </TTGlyph>
    <TTGlyph name="H" xMin="-7" yMin="0" xMax="1265" yMax="1462">
      <contour>
        <pt x="955" y="0" on="1"/>
        <pt x="606" y="0" on="1"/>
        <pt x="738" y="622" on="1"/>
        <pt x="474" y="622" on="1"/>
        <pt x="342" y="0" on="1"/>
        <pt x="-7" y="0" on="1"/>
        <pt x="303" y="1462" on="1"/>
        <pt x="652" y="1462" on="1"/>
        <pt x="532" y="898" on="1"/>
        <pt x="796" y="898" on="1"/>
        <pt x="916" y="1462" on="1"/>
        <pt x="1265" y="1462" on="1"/>
      </contour>
    </TTGlyph>
    <TTGlyph name="I" xMin="-7" yMin="0" xMax="637" yMax="1462">
      <contour>
        <pt x="327" y="0" on="1"/>
        <pt x="-7" y="0" on="1"/>
        <pt x="303" y="1462" on="1"/>
        <pt x="637" y="1462" on="1"/>
      </contour>
    </TTGlyph>
    <TTGlyph name="Iacute" xMin="-77" yMin="0" xMax="880" yMax="1904">
      <contour>
        <pt x="880" y="1904" on="1"/>
        <pt x="877" y="1886" on="1"/>
        <pt x="801" y="1835" on="0"/>
        <pt x="509" y="1653" on="0"/>
        <pt x="439" y="1616" on="1"/>
        <pt x="211" y="1616" on="1"/>
        <pt x="216" y="1641" on="1"/>
        <pt x="383" y="1787" on="0"/>
        <pt x="480" y="1877" on="0"/>
        <pt x="504" y="1904" on="1"/>
      </contour>
      <contour>
        <pt x="257" y="0" on="1"/>
        <pt x="-77" y="0" on="1"/>
        <pt x="233" y="1462" on="1"/>
        <pt x="567" y="1462" on="1"/>
      </contour>
    </TTGlyph>
    <TTGlyph name="Icircumflex" xMin="-77" yMin="0" xMax="835" yMax="1905">
      <contour>
        <pt x="318" y="1905" on="1"/>
        <pt x="664" y="1905" on="1"/>
        <pt x="719" y="1789" on="0"/>
        <pt x="835" y="1642" on="1"/>
        <pt x="829" y="1617" on="1"/>
        <pt x="605" y="1617" on="1"/>
        <pt x="543" y="1657" on="0"/>
        <pt x="456" y="1749" on="1"/>
        <pt x="326" y="1654" on="0"/>
        <pt x="257" y="1617" on="1"/>
        <pt x="30" y="1617" on="1"/>
        <pt x="36" y="1642" on="1"/>
        <pt x="100" y="1692" on="0"/>
        <pt x="273" y="1852" on="0"/>
      </contour>
      <contour>
        <pt x="257" y="0" on="1"/>
        <pt x="-77" y="0" on="1"/>
        <pt x="233" y="1462" on="1"/>
        <pt x="567" y="1462" on="1"/>
      </contour>
    </TTGlyph>
    <TTGlyph name="Idieresis" xMin="-76" yMin="0" xMax="842" yMax="1892">
      <contour>
        <pt x="125" y="1818" on="0"/>
        <pt x="221" y="1892" on="0"/>
        <pt x="363" y="1892" on="0"/>
        <pt x="396" y="1854" on="1"/>
        <pt x="419" y="1826" on="0"/>
        <pt x="419" y="1787" on="1"/>
        <pt x="419" y="1770" on="0"/>
        <pt x="415" y="1751" on="1"/>
        <pt x="401" y="1688" on="0"/>
        <pt x="304" y="1613" on="0"/>
        <pt x="162" y="1613" on="0"/>
        <pt x="130" y="1650" on="1"/>
        <pt x="107" y="1675" on="0"/>
        <pt x="107" y="1714" on="1"/>
        <pt x="107" y="1731" on="0"/>
        <pt x="111" y="1751" on="1"/>
      </contour>
      <contour>
        <pt x="548" y="1818" on="0"/>
        <pt x="644" y="1892" on="0"/>
        <pt x="786" y="1892" on="0"/>
        <pt x="819" y="1854" on="1"/>
        <pt x="842" y="1826" on="0"/>
        <pt x="842" y="1787" on="1"/>
        <pt x="842" y="1770" on="0"/>
        <pt x="838" y="1751" on="1"/>
        <pt x="824" y="1688" on="0"/>
        <pt x="727" y="1613" on="0"/>
        <pt x="585" y="1613" on="0"/>
        <pt x="552" y="1650" on="1"/>
        <pt x="530" y="1675" on="0"/>
        <pt x="530" y="1714" on="1"/>
        <pt x="530" y="1731" on="0"/>
        <pt x="534" y="1751" on="1"/>
      </contour>
      <contour>
        <pt x="258" y="0" on="1"/>
        <pt x="-76" y="0" on="1"/>
        <pt x="235" y="1462" on="1"/>
        <pt x="569" y="1462" on="1"/>
      </contour>
    </TTGlyph>
    <TTGlyph name="Igrave" xMin="-77" yMin="0" xMax="652" yMax="1905">
      <contour>
        <pt x="99" y="1905" on="1"/>
        <pt x="477" y="1905" on="1"/>
        <pt x="517" y="1833" on="0"/>
        <pt x="613" y="1700" on="1"/>
        <pt x="652" y="1642" on="1"/>
        <pt x="646" y="1617" on="1"/>
        <pt x="418" y="1617" on="1"/>
        <pt x="367" y="1653" on="0"/>
        <pt x="168" y="1819" on="0"/>
        <pt x="96" y="1887" on="1"/>
      </contour>
      <contour>
        <pt x="257" y="0" on="1"/>
        <pt x="-77" y="0" on="1"/>
        <pt x="233" y="1462" on="1"/>
        <pt x="567" y="1462" on="1"/>
      </contour>
    </TTGlyph>
    <TTGlyph name="J" xMin="-363" yMin="-410" xMax="651" yMax="1462">
      <contour>
        <pt x="-160" y="-410" on="1"/>
        <pt x="-163" y="-410" on="0"/>
        <pt x="-166" y="-410" on="1"/>
        <pt x="-280" y="-410" on="0"/>
        <pt x="-363" y="-373" on="1"/>
        <pt x="-304" y="-97" on="1"/>
        <pt x="-193" y="-132" on="0"/>
        <pt x="-150" y="-132" on="1"/>
        <pt x="-38" y="-132" on="0"/>
        <pt x="1" y="51" on="1"/>
        <pt x="301" y="1462" on="1"/>
        <pt x="651" y="1462" on="1"/>
        <pt x="354" y="65" on="1"/>
        <pt x="311" y="-151" on="0"/>
        <pt x="22" y="-410" on="0"/>
      </contour>
    </TTGlyph>
    <TTGlyph name="K" xMin="-7" yMin="0" xMax="1281" yMax="1462">
      <contour>
        <pt x="806" y="826" on="1"/>
        <pt x="972" y="0" on="1"/>
        <pt x="604" y="0" on="1"/>
        <pt x="507" y="564" on="1"/>
        <pt x="453" y="519" on="1"/>
        <pt x="343" y="0" on="1"/>
        <pt x="-7" y="0" on="1"/>
        <pt x="303" y="1462" on="1"/>
        <pt x="653" y="1462" on="1"/>
        <pt x="541" y="932" on="1"/>
        <pt x="556" y="958" on="1"/>
        <pt x="912" y="1462" on="1"/>
        <pt x="1281" y="1462" on="1"/>
      </contour>
    </TTGlyph>
    <TTGlyph name="L" xMin="-7" yMin="0" xMax="767" yMax="1462">
      <contour>
        <pt x="401" y="274" on="1"/>
        <pt x="767" y="274" on="1"/>
        <pt x="709" y="0" on="1"/>
        <pt x="-7" y="0" on="1"/>
        <pt x="303" y="1462" on="1"/>
        <pt x="653" y="1462" on="1"/>
      </contour>
    </TTGlyph>
    <TTGlyph name="M" xMin="-7" yMin="0" xMax="1697" yMax="1462">
      <contour>
        <pt x="794" y="505" on="1"/>
        <pt x="968" y="907" on="0"/>
        <pt x="1205" y="1462" on="1"/>
        <pt x="1697" y="1462" on="1"/>
        <pt x="1387" y="0" on="1"/>
        <pt x="1051" y="0" on="1"/>
        <pt x="1224" y="818" on="1"/>
        <pt x="869" y="0" on="1"/>
        <pt x="505" y="0" on="1"/>
        <pt x="495" y="813" on="1"/>
        <pt x="323" y="0" on="1"/>
        <pt x="-7" y="0" on="1"/>
        <pt x="303" y="1462" on="1"/>
        <pt x="794" y="1462" on="1"/>
      </contour>
    </TTGlyph>
    <TTGlyph name="N" xMin="-7" yMin="0" xMax="1382" yMax="1462">
      <contour>
        <pt x="1072" y="0" on="1"/>
        <pt x="674" y="0" on="1"/>
        <pt x="497" y="822" on="1"/>
        <pt x="323" y="0" on="1"/>
        <pt x="-7" y="0" on="1"/>
        <pt x="303" y="1462" on="1"/>
        <pt x="703" y="1462" on="1"/>
        <pt x="880" y="641" on="1"/>
        <pt x="1054" y="1462" on="1"/>
        <pt x="1382" y="1462" on="1"/>
      </contour>
    </TTGlyph>
    <TTGlyph name="Ntilde" xMin="-118" yMin="0" xMax="1272" yMax="1878">
      <contour>
        <pt x="912" y="1577" on="1"/>
        <pt x="856" y="1577" on="0"/>
        <pt x="669" y="1662" on="0"/>
        <pt x="627" y="1662" on="1"/>
        <pt x="581" y="1662" on="0"/>
        <pt x="545" y="1576" on="1"/>
        <pt x="387" y="1576" on="1"/>
        <pt x="429" y="1730" on="0"/>
        <pt x="568" y="1877" on="0"/>
        <pt x="672" y="1877" on="1"/>
        <pt x="716" y="1877" on="0"/>
        <pt x="906" y="1792" on="0"/>
        <pt x="950" y="1792" on="1"/>
        <pt x="997" y="1792" on="0"/>
        <pt x="1032" y="1878" on="1"/>
        <pt x="1192" y="1878" on="1"/>
        <pt x="1152" y="1731" on="0"/>
        <pt x="1008" y="1577" on="0"/>
      </contour>
      <contour>
        <pt x="961" y="0" on="1"/>
        <pt x="563" y="0" on="1"/>
        <pt x="387" y="822" on="1"/>
        <pt x="212" y="0" on="1"/>
        <pt x="-118" y="0" on="1"/>
        <pt x="193" y="1462" on="1"/>
        <pt x="593" y="1462" on="1"/>
        <pt x="770" y="641" on="1"/>
        <pt x="944" y="1462" on="1"/>
        <pt x="1272" y="1462" on="1"/>
      </contour>
    </TTGlyph>
    <TTGlyph name="O" xMin="61" yMin="-19" xMax="1233" yMax="1484">
      <contour>
        <pt x="686" y="1484" on="0"/>
        <pt x="932" y="1484" on="0"/>
        <pt x="1106" y="1403" on="0"/>
        <pt x="1153" y="1334" on="1"/>
        <pt x="1233" y="1216" on="0"/>
        <pt x="1233" y="1017" on="1"/>
        <pt x="1233" y="896" on="0"/>
        <pt x="1173" y="609" on="0"/>
        <pt x="1094" y="396" on="0"/>
        <pt x="972" y="200" on="0"/>
        <pt x="820" y="63" on="0"/>
        <pt x="610" y="-19" on="0"/>
        <pt x="364" y="-19" on="0"/>
        <pt x="188" y="63" on="0"/>
        <pt x="141" y="132" on="1"/>
        <pt x="61" y="249" on="0"/>
        <pt x="61" y="453" on="1"/>
        <pt x="61" y="576" on="0"/>
        <pt x="121" y="859" on="0"/>
        <pt x="200" y="1072" on="0"/>
        <pt x="322" y="1267" on="0"/>
        <pt x="476" y="1403" on="0"/>
      </contour>
      <contour>
        <pt x="416" y="472" on="1"/>
        <pt x="416" y="257" on="0"/>
        <pt x="546" y="257" on="1"/>
        <pt x="742" y="257" on="0"/>
        <pt x="843" y="733" on="1"/>
        <pt x="878" y="896" on="0"/>
        <pt x="878" y="1003" on="1"/>
        <pt x="878" y="1209" on="0"/>
        <pt x="750" y="1209" on="1"/>
        <pt x="651" y="1209" on="0"/>
        <pt x="499" y="967" on="0"/>
        <pt x="449" y="733" on="1"/>
        <pt x="416" y="578" on="0"/>
      </contour>
    </TTGlyph>
    <TTGlyph name="OE" xMin="7" yMin="-19" xMax="1519" yMax="1484">
      <contour>
        <pt x="433" y="-19" on="1"/>
        <pt x="157" y="-19" on="0"/>
        <pt x="61" y="178" on="1"/>
        <pt x="7" y="292" on="0"/>
        <pt x="7" y="453" on="1"/>
        <pt x="7" y="579" on="0"/>
        <pt x="40" y="735" on="1"/>
        <pt x="115" y="1088" on="0"/>
        <pt x="477" y="1484" on="0"/>
        <pt x="755" y="1484" on="1"/>
        <pt x="845" y="1484" on="0"/>
        <pt x="912" y="1462" on="1"/>
        <pt x="1519" y="1462" on="1"/>
        <pt x="1461" y="1191" on="1"/>
        <pt x="1089" y="1191" on="1"/>
        <pt x="1027" y="896" on="1"/>
        <pt x="1370" y="896" on="1"/>
        <pt x="1312" y="624" on="1"/>
        <pt x="969" y="624" on="1"/>
        <pt x="895" y="274" on="1"/>
        <pt x="1267" y="274" on="1"/>
        <pt x="1208" y="0" on="1"/>
        <pt x="589" y="0" on="1"/>
        <pt x="516" y="-19" on="0"/>
      </contour>
      <contour>
        <pt x="362" y="472" on="1"/>
        <pt x="362" y="257" on="0"/>
        <pt x="492" y="257" on="1"/>
        <pt x="521" y="257" on="0"/>
        <pt x="542" y="262" on="1"/>
        <pt x="742" y="1204" on="1"/>
        <pt x="722" y="1209" on="0"/>
        <pt x="696" y="1209" on="1"/>
        <pt x="597" y="1209" on="0"/>
        <pt x="445" y="967" on="0"/>
        <pt x="395" y="733" on="1"/>
        <pt x="362" y="578" on="0"/>
      </contour>
    </TTGlyph>
    <TTGlyph name="Oacute" xMin="-40" yMin="-19" xMax="1192" yMax="1904">
      <contour>
        <pt x="1192" y="1904" on="1"/>
        <pt x="1189" y="1886" on="1"/>
        <pt x="1113" y="1835" on="0"/>
        <pt x="821" y="1653" on="0"/>
        <pt x="751" y="1616" on="1"/>
        <pt x="523" y="1616" on="1"/>
        <pt x="528" y="1641" on="1"/>
        <pt x="695" y="1787" on="0"/>
        <pt x="792" y="1877" on="0"/>
        <pt x="816" y="1904" on="1"/>
      </contour>
      <contour>
        <pt x="585" y="1484" on="0"/>
        <pt x="831" y="1484" on="0"/>
        <pt x="1005" y="1403" on="0"/>
        <pt x="1052" y="1334" on="1"/>
        <pt x="1132" y="1216" on="0"/>
        <pt x="1132" y="1017" on="1"/>
        <pt x="1132" y="896" on="0"/>
        <pt x="1072" y="609" on="0"/>
        <pt x="994" y="396" on="0"/>
        <pt x="872" y="200" on="0"/>
        <pt x="720" y="63" on="0"/>
        <pt x="510" y="-19" on="0"/>
        <pt x="264" y="-19" on="0"/>
        <pt x="88" y="63" on="0"/>
        <pt x="-6" y="200" on="0"/>
        <pt x="-40" y="372" on="0"/>
        <pt x="-40" y="425" on="1"/>
        <pt x="-40" y="571" on="0"/>
        <pt x="20" y="859" on="0"/>
        <pt x="99" y="1072" on="0"/>
        <pt x="221" y="1267" on="0"/>
        <pt x="375" y="1403" on="0"/>
      </contour>
      <contour>
        <pt x="315" y="472" on="1"/>
        <pt x="315" y="257" on="0"/>
        <pt x="445" y="257" on="1"/>
        <pt x="641" y="257" on="0"/>
        <pt x="742" y="733" on="1"/>
        <pt x="777" y="897" on="0"/>
        <pt x="777" y="1005" on="1"/>
        <pt x="777" y="1209" on="0"/>
        <pt x="650" y="1209" on="1"/>
        <pt x="551" y="1209" on="0"/>
        <pt x="398" y="967" on="0"/>
        <pt x="348" y="733" on="1"/>
        <pt x="315" y="578" on="0"/>
      </contour>
    </TTGlyph>
    <TTGlyph name="Ocircumflex" xMin="-40" yMin="-19" xMax="1137" yMax="1905">
      <contour>
        <pt x="620" y="1905" on="1"/>
        <pt x="966" y="1905" on="1"/>
        <pt x="1021" y="1789" on="0"/>
        <pt x="1137" y="1642" on="1"/>
        <pt x="1131" y="1617" on="1"/>
        <pt x="907" y="1617" on="1"/>
        <pt x="845" y="1657" on="0"/>
        <pt x="758" y="1749" on="1"/>
        <pt x="628" y="1654" on="0"/>
        <pt x="559" y="1617" on="1"/>
        <pt x="332" y="1617" on="1"/>
        <pt x="338" y="1642" on="1"/>
        <pt x="402" y="1692" on="0"/>
        <pt x="575" y="1852" on="0"/>
      </contour>
      <contour>
        <pt x="585" y="1484" on="0"/>
        <pt x="831" y="1484" on="0"/>
        <pt x="1005" y="1403" on="0"/>
        <pt x="1052" y="1334" on="1"/>
        <pt x="1132" y="1216" on="0"/>
        <pt x="1132" y="1017" on="1"/>
        <pt x="1132" y="896" on="0"/>
        <pt x="1072" y="609" on="0"/>
        <pt x="994" y="396" on="0"/>
        <pt x="872" y="200" on="0"/>
        <pt x="719" y="63" on="0"/>
        <pt x="510" y="-19" on="0"/>
        <pt x="264" y="-19" on="0"/>
        <pt x="88" y="63" on="0"/>
        <pt x="40" y="132" on="1"/>
        <pt x="-40" y="248" on="0"/>
        <pt x="-40" y="453" on="1"/>
        <pt x="-40" y="577" on="0"/>
        <pt x="20" y="859" on="0"/>
        <pt x="99" y="1072" on="0"/>
        <pt x="221" y="1267" on="0"/>
        <pt x="375" y="1403" on="0"/>
      </contour>
      <contour>
        <pt x="315" y="472" on="1"/>
        <pt x="315" y="257" on="0"/>
        <pt x="445" y="257" on="1"/>
        <pt x="641" y="257" on="0"/>
        <pt x="742" y="733" on="1"/>
        <pt x="777" y="897" on="0"/>
        <pt x="777" y="1005" on="1"/>
        <pt x="777" y="1209" on="0"/>
        <pt x="650" y="1209" on="1"/>
        <pt x="551" y="1209" on="0"/>
        <pt x="398" y="967" on="0"/>
        <pt x="348" y="733" on="1"/>
        <pt x="315" y="578" on="0"/>
      </contour>
    </TTGlyph>
    <TTGlyph name="Odieresis" xMin="-39" yMin="-19" xMax="1144" yMax="1892">
      <contour>
        <pt x="427" y="1818" on="0"/>
        <pt x="523" y="1892" on="0"/>
        <pt x="665" y="1892" on="0"/>
        <pt x="698" y="1854" on="1"/>
        <pt x="721" y="1826" on="0"/>
        <pt x="721" y="1787" on="1"/>
        <pt x="721" y="1770" on="0"/>
        <pt x="717" y="1751" on="1"/>
        <pt x="703" y="1688" on="0"/>
        <pt x="606" y="1613" on="0"/>
        <pt x="464" y="1613" on="0"/>
        <pt x="432" y="1650" on="1"/>
        <pt x="409" y="1675" on="0"/>
        <pt x="409" y="1714" on="1"/>
        <pt x="409" y="1731" on="0"/>
        <pt x="413" y="1751" on="1"/>
      </contour>
      <contour>
        <pt x="850" y="1818" on="0"/>
        <pt x="946" y="1892" on="0"/>
        <pt x="1088" y="1892" on="0"/>
        <pt x="1121" y="1854" on="1"/>
        <pt x="1144" y="1826" on="0"/>
        <pt x="1144" y="1787" on="1"/>
        <pt x="1144" y="1770" on="0"/>
        <pt x="1140" y="1751" on="1"/>
        <pt x="1126" y="1688" on="0"/>
        <pt x="1029" y="1613" on="0"/>
        <pt x="887" y="1613" on="0"/>
        <pt x="854" y="1650" on="1"/>
        <pt x="832" y="1675" on="0"/>
        <pt x="832" y="1714" on="1"/>
        <pt x="832" y="1731" on="0"/>
        <pt x="836" y="1751" on="1"/>
      </contour>
      <contour>
        <pt x="376" y="1403" on="0"/>
        <pt x="586" y="1484" on="0"/>
        <pt x="812" y="1484" on="0"/>
        <pt x="968" y="1428" on="0"/>
        <pt x="1016" y="1376" on="1"/>
        <pt x="1116" y="1270" on="0"/>
        <pt x="1130" y="1103" on="1"/>
        <pt x="1133" y="1061" on="0"/>
        <pt x="1133" y="1017" on="1"/>
        <pt x="1133" y="888" on="0"/>
        <pt x="1074" y="609" on="0"/>
        <pt x="995" y="396" on="0"/>
        <pt x="873" y="200" on="0"/>
        <pt x="721" y="63" on="0"/>
        <pt x="511" y="-19" on="0"/>
        <pt x="265" y="-19" on="0"/>
        <pt x="89" y="63" on="0"/>
        <pt x="-5" y="200" on="0"/>
        <pt x="-39" y="372" on="0"/>
        <pt x="-39" y="425" on="1"/>
        <pt x="-39" y="571" on="0"/>
        <pt x="22" y="859" on="0"/>
        <pt x="100" y="1072" on="0"/>
        <pt x="223" y="1267" on="0"/>
      </contour>
      <contour>
        <pt x="317" y="472" on="1"/>
        <pt x="317" y="257" on="0"/>
        <pt x="447" y="257" on="1"/>
        <pt x="642" y="257" on="0"/>
        <pt x="744" y="733" on="1"/>
        <pt x="779" y="896" on="0"/>
        <pt x="779" y="1003" on="1"/>
        <pt x="779" y="1209" on="0"/>
        <pt x="651" y="1209" on="1"/>
        <pt x="552" y="1209" on="0"/>
        <pt x="400" y="967" on="0"/>
        <pt x="350" y="733" on="1"/>
        <pt x="317" y="578" on="0"/>
      </contour>
    </TTGlyph>
    <TTGlyph name="Ograve" xMin="-40" yMin="-19" xMax="1132" yMax="1905">
      <contour>
        <pt x="395" y="1905" on="1"/>
        <pt x="773" y="1905" on="1"/>
        <pt x="813" y="1833" on="0"/>
        <pt x="909" y="1700" on="1"/>
        <pt x="948" y="1642" on="1"/>
        <pt x="942" y="1617" on="1"/>
        <pt x="714" y="1617" on="1"/>
        <pt x="663" y="1653" on="0"/>
        <pt x="479" y="1806" on="0"/>
        <pt x="392" y="1887" on="1"/>
      </contour>
      <contour>
        <pt x="585" y="1484" on="0"/>
        <pt x="831" y="1484" on="0"/>
        <pt x="1005" y="1403" on="0"/>
        <pt x="1052" y="1334" on="1"/>
        <pt x="1132" y="1216" on="0"/>
        <pt x="1132" y="1017" on="1"/>
        <pt x="1132" y="896" on="0"/>
        <pt x="1072" y="609" on="0"/>
        <pt x="994" y="396" on="0"/>
        <pt x="872" y="200" on="0"/>
        <pt x="719" y="63" on="0"/>
        <pt x="510" y="-19" on="0"/>
        <pt x="264" y="-19" on="0"/>
        <pt x="88" y="63" on="0"/>
        <pt x="40" y="132" on="1"/>
        <pt x="-40" y="248" on="0"/>
        <pt x="-40" y="453" on="1"/>
        <pt x="-40" y="577" on="0"/>
        <pt x="20" y="859" on="0"/>
        <pt x="99" y="1072" on="0"/>
        <pt x="221" y="1267" on="0"/>
        <pt x="375" y="1403" on="0"/>
      </contour>
      <contour>
        <pt x="315" y="472" on="1"/>
        <pt x="315" y="257" on="0"/>
        <pt x="445" y="257" on="1"/>
        <pt x="641" y="257" on="0"/>
        <pt x="742" y="733" on="1"/>
        <pt x="777" y="897" on="0"/>
        <pt x="777" y="1005" on="1"/>
        <pt x="777" y="1209" on="0"/>
        <pt x="650" y="1209" on="1"/>
        <pt x="551" y="1209" on="0"/>
        <pt x="398" y="967" on="0"/>
        <pt x="348" y="733" on="1"/>
        <pt x="315" y="578" on="0"/>
      </contour>
    </TTGlyph>
    <TTGlyph name="Oslash" xMin="-47" yMin="-107" xMax="1252" yMax="1568">
      <contour>
        <pt x="1179" y="1020" on="1"/>
        <pt x="1179" y="893" on="0"/>
        <pt x="1120" y="609" on="0"/>
        <pt x="1041" y="396" on="0"/>
        <pt x="919" y="200" on="0"/>
        <pt x="767" y="63" on="0"/>
        <pt x="557" y="-19" on="0"/>
        <pt x="306" y="-19" on="0"/>
        <pt x="213" y="25" on="1"/>
        <pt x="119" y="-107" on="1"/>
        <pt x="-47" y="-13" on="1"/>
        <pt x="73" y="155" on="1"/>
        <pt x="7" y="267" on="0"/>
        <pt x="7" y="445" on="1"/>
        <pt x="7" y="573" on="0"/>
        <pt x="67" y="859" on="0"/>
        <pt x="146" y="1072" on="0"/>
        <pt x="268" y="1267" on="0"/>
        <pt x="422" y="1403" on="0"/>
        <pt x="632" y="1484" on="0"/>
        <pt x="893" y="1484" on="0"/>
        <pt x="988" y="1432" on="1"/>
        <pt x="1086" y="1568" on="1"/>
        <pt x="1252" y="1475" on="1"/>
        <pt x="1123" y="1294" on="1"/>
        <pt x="1179" y="1185" on="0"/>
      </contour>
      <contour>
        <pt x="697" y="1209" on="1"/>
        <pt x="598" y="1209" on="0"/>
        <pt x="446" y="967" on="0"/>
        <pt x="396" y="733" on="1"/>
        <pt x="376" y="643" on="0"/>
        <pt x="368" y="566" on="1"/>
        <pt x="792" y="1158" on="1"/>
        <pt x="760" y="1209" on="0"/>
      </contour>
      <contour>
        <pt x="492" y="257" on="1"/>
        <pt x="688" y="257" on="0"/>
        <pt x="790" y="733" on="1"/>
        <pt x="796" y="762" on="0"/>
        <pt x="813" y="861" on="1"/>
        <pt x="406" y="294" on="1"/>
        <pt x="439" y="257" on="0"/>
      </contour>
    </TTGlyph>
    <TTGlyph name="Otilde" xMin="-37" yMin="-19" xMax="1163" yMax="1878">
      <contour>
        <pt x="883" y="1577" on="1"/>
        <pt x="827" y="1577" on="0"/>
        <pt x="640" y="1662" on="0"/>
        <pt x="598" y="1662" on="1"/>
        <pt x="552" y="1662" on="0"/>
        <pt x="516" y="1576" on="1"/>
        <pt x="358" y="1576" on="1"/>
        <pt x="400" y="1730" on="0"/>
        <pt x="539" y="1877" on="0"/>
        <pt x="643" y="1877" on="1"/>
        <pt x="688" y="1877" on="0"/>
        <pt x="876" y="1792" on="0"/>
        <pt x="968" y="1792" on="0"/>
        <pt x="1003" y="1878" on="1"/>
        <pt x="1163" y="1878" on="1"/>
        <pt x="1123" y="1731" on="0"/>
        <pt x="979" y="1577" on="0"/>
      </contour>
      <contour>
        <pt x="588" y="1484" on="0"/>
        <pt x="834" y="1484" on="0"/>
        <pt x="1008" y="1403" on="0"/>
        <pt x="1055" y="1334" on="1"/>
        <pt x="1135" y="1216" on="0"/>
        <pt x="1135" y="1017" on="1"/>
        <pt x="1135" y="896" on="0"/>
        <pt x="1075" y="609" on="0"/>
        <pt x="996" y="396" on="0"/>
        <pt x="874" y="200" on="0"/>
        <pt x="722" y="63" on="0"/>
        <pt x="512" y="-19" on="0"/>
        <pt x="266" y="-19" on="0"/>
        <pt x="90" y="63" on="0"/>
        <pt x="43" y="132" on="1"/>
        <pt x="-37" y="249" on="0"/>
        <pt x="-37" y="453" on="1"/>
        <pt x="-37" y="576" on="0"/>
        <pt x="23" y="859" on="0"/>
        <pt x="102" y="1072" on="0"/>
        <pt x="224" y="1267" on="0"/>
        <pt x="378" y="1403" on="0"/>
      </contour>
      <contour>
        <pt x="318" y="472" on="1"/>
        <pt x="318" y="257" on="0"/>
        <pt x="448" y="257" on="1"/>
        <pt x="644" y="257" on="0"/>
        <pt x="745" y="733" on="1"/>
        <pt x="780" y="896" on="0"/>
        <pt x="780" y="1003" on="1"/>
        <pt x="780" y="1209" on="0"/>
        <pt x="652" y="1209" on="1"/>
        <pt x="453" y="1209" on="0"/>
        <pt x="351" y="733" on="1"/>
        <pt x="318" y="578" on="0"/>
      </contour>
    </TTGlyph>
    <TTGlyph name="P" xMin="-7" yMin="0" xMax="1082" yMax="1462">
      <contour>
        <pt x="706" y="1462" on="1"/>
        <pt x="1082" y="1462" on="0"/>
        <pt x="1082" y="1151" on="1"/>
        <pt x="1082" y="1084" on="0"/>
        <pt x="1065" y="1004" on="1"/>
        <pt x="1015" y="767" on="0"/>
        <pt x="711" y="515" on="0"/>
        <pt x="475" y="515" on="1"/>
        <pt x="452" y="515" on="1"/>
        <pt x="343" y="0" on="1"/>
        <pt x="-7" y="0" on="1"/>
        <pt x="303" y="1462" on="1"/>
      </contour>
      <contour>
        <pt x="721" y="1077" on="1"/>
        <pt x="721" y="1191" on="0"/>
        <pt x="617" y="1191" on="1"/>
        <pt x="596" y="1191" on="1"/>
        <pt x="510" y="786" on="1"/>
        <pt x="517" y="786" on="1"/>
        <pt x="593" y="786" on="0"/>
        <pt x="688" y="885" on="0"/>
        <pt x="711" y="993" on="1"/>
        <pt x="721" y="1041" on="0"/>
      </contour>
    </TTGlyph>
    <TTGlyph name="Q" xMin="95" yMin="-338" xMax="1267" yMax="1484">
      <contour>
        <pt x="95" y="454" on="1"/>
        <pt x="95" y="579" on="0"/>
        <pt x="128" y="735" on="1"/>
        <pt x="205" y="1091" on="0"/>
        <pt x="566" y="1484" on="0"/>
        <pt x="1118" y="1484" on="0"/>
        <pt x="1213" y="1286" on="1"/>
        <pt x="1267" y="1174" on="0"/>
        <pt x="1267" y="1013" on="1"/>
        <pt x="1267" y="888" on="0"/>
        <pt x="1234" y="733" on="1"/>
        <pt x="1132" y="255" on="0"/>
        <pt x="840" y="69" on="1"/>
        <pt x="1005" y="-288" on="0"/>
        <pt x="1027" y="-338" on="1"/>
        <pt x="634" y="-338" on="1"/>
        <pt x="506" y="-19" on="1"/>
        <pt x="243" y="-14" on="0"/>
        <pt x="150" y="178" on="1"/>
        <pt x="95" y="291" on="0"/>
      </contour>
      <contour>
        <pt x="450" y="472" on="1"/>
        <pt x="450" y="257" on="0"/>
        <pt x="580" y="257" on="1"/>
        <pt x="776" y="257" on="0"/>
        <pt x="877" y="733" on="1"/>
        <pt x="912" y="896" on="0"/>
        <pt x="912" y="1003" on="1"/>
        <pt x="912" y="1209" on="0"/>
        <pt x="784" y="1209" on="1"/>
        <pt x="685" y="1209" on="0"/>
        <pt x="533" y="967" on="0"/>
        <pt x="483" y="733" on="1"/>
        <pt x="450" y="578" on="0"/>
      </contour>
    </TTGlyph>
    <TTGlyph name="R" xMin="-7" yMin="0" xMax="1084" yMax="1462">
      <contour>
        <pt x="691" y="1462" on="1"/>
        <pt x="932" y="1462" on="0"/>
        <pt x="1024" y="1353" on="1"/>
        <pt x="1084" y="1281" on="0"/>
        <pt x="1084" y="1160" on="1"/>
        <pt x="1084" y="1096" on="0"/>
        <pt x="1068" y="1019" on="1"/>
        <pt x="1013" y="759" on="0"/>
        <pt x="809" y="640" on="1"/>
        <pt x="953" y="0" on="1"/>
        <pt x="584" y="0" on="1"/>
        <pt x="477" y="552" on="1"/>
        <pt x="459" y="552" on="1"/>
        <pt x="342" y="0" on="1"/>
        <pt x="-7" y="0" on="1"/>
        <pt x="303" y="1462" on="1"/>
      </contour>
      <contour>
        <pt x="542" y="822" on="1"/>
        <pt x="611" y="822" on="0"/>
        <pt x="694" y="916" on="0"/>
        <pt x="715" y="1012" on="1"/>
        <pt x="724" y="1056" on="0"/>
        <pt x="724" y="1091" on="1"/>
        <pt x="724" y="1191" on="0"/>
        <pt x="619" y="1191" on="1"/>
        <pt x="595" y="1191" on="1"/>
        <pt x="516" y="822" on="1"/>
      </contour>
    </TTGlyph>
    <TTGlyph name="S" xMin="-61" yMin="-19" xMax="1003" yMax="1482">
      <contour>
        <pt x="313" y="253" on="1"/>
        <pt x="366" y="253" on="0"/>
        <pt x="437" y="324" on="0"/>
        <pt x="451" y="387" on="1"/>
        <pt x="453" y="410" on="0"/>
        <pt x="457" y="445" on="0"/>
        <pt x="445" y="484" on="0"/>
        <pt x="435" y="513" on="0"/>
        <pt x="411" y="546" on="0"/>
        <pt x="393" y="570" on="0"/>
        <pt x="363" y="598" on="0"/>
        <pt x="340" y="617" on="0"/>
        <pt x="325" y="630" on="1"/>
        <pt x="214" y="722" on="0"/>
        <pt x="173" y="824" on="1"/>
        <pt x="149" y="883" on="0"/>
        <pt x="149" y="1006" on="0"/>
        <pt x="162" y="1065" on="1"/>
        <pt x="203" y="1257" on="0"/>
        <pt x="482" y="1482" on="0"/>
        <pt x="848" y="1482" on="0"/>
        <pt x="1003" y="1375" on="1"/>
        <pt x="841" y="1118" on="1"/>
        <pt x="766" y="1163" on="0"/>
        <pt x="736" y="1177" on="0"/>
        <pt x="706" y="1191" on="0"/>
        <pt x="688" y="1197" on="0"/>
        <pt x="675" y="1200" on="1"/>
        <pt x="651" y="1207" on="0"/>
        <pt x="628" y="1207" on="1"/>
        <pt x="585" y="1207" on="0"/>
        <pt x="523" y="1134" on="0"/>
        <pt x="509" y="1071" on="1"/>
        <pt x="502" y="1049" on="0"/>
        <pt x="508" y="1003" on="0"/>
        <pt x="512" y="970" on="0"/>
        <pt x="534" y="933" on="0"/>
        <pt x="552" y="908" on="0"/>
        <pt x="568" y="892" on="1"/>
        <pt x="596" y="865" on="0"/>
        <pt x="626" y="842" on="1"/>
        <pt x="740" y="752" on="0"/>
        <pt x="786" y="652" on="1"/>
        <pt x="815" y="592" on="0"/>
        <pt x="815" y="468" on="0"/>
        <pt x="803" y="413" on="1"/>
        <pt x="759" y="204" on="0"/>
        <pt x="487" y="-19" on="0"/>
        <pt x="76" y="-19" on="0"/>
        <pt x="-61" y="68" on="1"/>
        <pt x="9" y="396" on="1"/>
        <pt x="196" y="253" on="0"/>
      </contour>
    </TTGlyph>
    <TTGlyph name="Scaron" xMin="-166" yMin="-19" xMax="1028" yMax="1907">
      <contour>
        <pt x="1028" y="1907" on="1"/>
        <pt x="1022" y="1882" on="1"/>
        <pt x="847" y="1737" on="0"/>
        <pt x="740" y="1619" on="1"/>
        <pt x="394" y="1619" on="1"/>
        <pt x="372" y="1671" on="0"/>
        <pt x="272" y="1823" on="0"/>
        <pt x="223" y="1882" on="1"/>
        <pt x="229" y="1907" on="1"/>
        <pt x="456" y="1907" on="1"/>
        <pt x="510" y="1868" on="0"/>
        <pt x="599" y="1775" on="1"/>
        <pt x="718" y="1863" on="0"/>
        <pt x="804" y="1907" on="1"/>
      </contour>
      <contour>
        <pt x="208" y="253" on="1"/>
        <pt x="261" y="253" on="0"/>
        <pt x="332" y="324" on="0"/>
        <pt x="346" y="387" on="1"/>
        <pt x="348" y="410" on="0"/>
        <pt x="352" y="445" on="0"/>
        <pt x="340" y="484" on="0"/>
        <pt x="330" y="513" on="0"/>
        <pt x="306" y="546" on="0"/>
        <pt x="288" y="570" on="0"/>
        <pt x="258" y="598" on="0"/>
        <pt x="235" y="617" on="0"/>
        <pt x="220" y="630" on="1"/>
        <pt x="109" y="722" on="0"/>
        <pt x="68" y="824" on="1"/>
        <pt x="44" y="882" on="0"/>
        <pt x="44" y="1006" on="0"/>
        <pt x="57" y="1065" on="1"/>
        <pt x="98" y="1257" on="0"/>
        <pt x="376" y="1482" on="0"/>
        <pt x="743" y="1482" on="0"/>
        <pt x="898" y="1375" on="1"/>
        <pt x="736" y="1118" on="1"/>
        <pt x="661" y="1163" on="0"/>
        <pt x="631" y="1177" on="0"/>
        <pt x="601" y="1191" on="0"/>
        <pt x="583" y="1197" on="0"/>
        <pt x="570" y="1200" on="1"/>
        <pt x="546" y="1207" on="0"/>
        <pt x="523" y="1207" on="1"/>
        <pt x="480" y="1207" on="0"/>
        <pt x="418" y="1134" on="0"/>
        <pt x="404" y="1071" on="1"/>
        <pt x="388" y="992" on="0"/>
        <pt x="427" y="936" on="1"/>
        <pt x="454" y="897" on="0"/>
        <pt x="495" y="863" on="1"/>
        <pt x="506" y="854" on="0"/>
        <pt x="521" y="842" on="1"/>
        <pt x="635" y="752" on="0"/>
        <pt x="682" y="652" on="1"/>
        <pt x="710" y="592" on="0"/>
        <pt x="710" y="468" on="0"/>
        <pt x="698" y="413" on="1"/>
        <pt x="654" y="204" on="0"/>
        <pt x="382" y="-19" on="0"/>
        <pt x="-31" y="-19" on="0"/>
        <pt x="-166" y="68" on="1"/>
        <pt x="-96" y="396" on="1"/>
        <pt x="91" y="253" on="0"/>
      </contour>
    </TTGlyph>
    <TTGlyph name="T" xMin="138" yMin="0" xMax="1088" yMax="1462">
      <contour>
        <pt x="1030" y="1187" on="1"/>
        <pt x="758" y="1187" on="1"/>
        <pt x="506" y="0" on="1"/>
        <pt x="158" y="0" on="1"/>
        <pt x="410" y="1187" on="1"/>
        <pt x="138" y="1187" on="1"/>
        <pt x="196" y="1462" on="1"/>
        <pt x="1088" y="1462" on="1"/>
      </contour>
    </TTGlyph>
    <TTGlyph name="Thorn" xMin="-75" yMin="0" xMax="966" yMax="1462">
      <contour>
        <pt x="588" y="1236" on="1"/>
        <pt x="966" y="1236" on="0"/>
        <pt x="966" y="923" on="1"/>
        <pt x="966" y="857" on="0"/>
        <pt x="949" y="777" on="1"/>
        <pt x="899" y="540" on="0"/>
        <pt x="595" y="286" on="0"/>
        <pt x="358" y="286" on="1"/>
        <pt x="335" y="286" on="1"/>
        <pt x="275" y="0" on="1"/>
        <pt x="-75" y="0" on="1"/>
        <pt x="235" y="1462" on="1"/>
        <pt x="585" y="1462" on="1"/>
        <pt x="537" y="1236" on="1"/>
      </contour>
      <contour>
        <pt x="400" y="557" on="1"/>
        <pt x="476" y="557" on="0"/>
        <pt x="571" y="657" on="0"/>
        <pt x="595" y="767" on="1"/>
        <pt x="605" y="814" on="0"/>
        <pt x="605" y="851" on="1"/>
        <pt x="605" y="966" on="0"/>
        <pt x="503" y="966" on="1"/>
        <pt x="480" y="966" on="1"/>
        <pt x="393" y="557" on="1"/>
      </contour>
    </TTGlyph>
    <TTGlyph name="U" xMin="76" yMin="-19" xMax="1261" yMax="1462">
      <contour>
        <pt x="1006" y="259" on="0"/>
        <pt x="695" y="-19" on="0"/>
        <pt x="225" y="-19" on="0"/>
        <pt x="133" y="119" on="1"/>
        <pt x="76" y="204" on="0"/>
        <pt x="76" y="339" on="1"/>
        <pt x="76" y="423" on="0"/>
        <pt x="98" y="526" on="1"/>
        <pt x="297" y="1462" on="1"/>
        <pt x="645" y="1462" on="1"/>
        <pt x="442" y="507" on="1"/>
        <pt x="427" y="437" on="0"/>
        <pt x="427" y="387" on="1"/>
        <pt x="427" y="257" on="0"/>
        <pt x="526" y="257" on="1"/>
        <pt x="589" y="257" on="0"/>
        <pt x="685" y="384" on="0"/>
        <pt x="710" y="501" on="1"/>
        <pt x="914" y="1462" on="1"/>
        <pt x="1261" y="1462" on="1"/>
        <pt x="1062" y="522" on="1"/>
      </contour>
    </TTGlyph>
    <TTGlyph name="Uacute" xMin="-36" yMin="-19" xMax="1159" yMax="1904">
      <contour>
        <pt x="1159" y="1904" on="1"/>
        <pt x="1156" y="1886" on="1"/>
        <pt x="1080" y="1835" on="0"/>
        <pt x="788" y="1653" on="0"/>
        <pt x="718" y="1616" on="1"/>
        <pt x="490" y="1616" on="1"/>
        <pt x="495" y="1641" on="1"/>
        <pt x="662" y="1787" on="0"/>
        <pt x="759" y="1877" on="0"/>
        <pt x="783" y="1904" on="1"/>
      </contour>
      <contour>
        <pt x="894" y="259" on="0"/>
        <pt x="583" y="-19" on="0"/>
        <pt x="113" y="-19" on="0"/>
        <pt x="21" y="119" on="1"/>
        <pt x="-36" y="204" on="0"/>
        <pt x="-36" y="339" on="1"/>
        <pt x="-36" y="423" on="0"/>
        <pt x="-14" y="526" on="1"/>
        <pt x="185" y="1462" on="1"/>
        <pt x="533" y="1462" on="1"/>
        <pt x="330" y="507" on="1"/>
        <pt x="315" y="437" on="0"/>
        <pt x="315" y="387" on="1"/>
        <pt x="315" y="257" on="0"/>
        <pt x="414" y="257" on="1"/>
        <pt x="477" y="257" on="0"/>
        <pt x="573" y="384" on="0"/>
        <pt x="598" y="501" on="1"/>
        <pt x="802" y="1462" on="1"/>
        <pt x="1149" y="1462" on="1"/>
        <pt x="950" y="522" on="1"/>
      </contour>
    </TTGlyph>
    <TTGlyph name="Ucircumflex" xMin="-36" yMin="-19" xMax="1149" yMax="1905">
      <contour>
        <pt x="587" y="1905" on="1"/>
        <pt x="933" y="1905" on="1"/>
        <pt x="988" y="1789" on="0"/>
        <pt x="1104" y="1642" on="1"/>
        <pt x="1098" y="1617" on="1"/>
        <pt x="874" y="1617" on="1"/>
        <pt x="812" y="1657" on="0"/>
        <pt x="725" y="1749" on="1"/>
        <pt x="595" y="1654" on="0"/>
        <pt x="526" y="1617" on="1"/>
        <pt x="299" y="1617" on="1"/>
        <pt x="305" y="1642" on="1"/>
        <pt x="369" y="1692" on="0"/>
        <pt x="542" y="1852" on="0"/>
      </contour>
      <contour>
        <pt x="894" y="259" on="0"/>
        <pt x="583" y="-19" on="0"/>
        <pt x="113" y="-19" on="0"/>
        <pt x="21" y="119" on="1"/>
        <pt x="-36" y="204" on="0"/>
        <pt x="-36" y="339" on="1"/>
        <pt x="-36" y="423" on="0"/>
        <pt x="-14" y="526" on="1"/>
        <pt x="185" y="1462" on="1"/>
        <pt x="533" y="1462" on="1"/>
        <pt x="330" y="507" on="1"/>
        <pt x="315" y="437" on="0"/>
        <pt x="315" y="387" on="1"/>
        <pt x="315" y="257" on="0"/>
        <pt x="414" y="257" on="1"/>
        <pt x="477" y="257" on="0"/>
        <pt x="573" y="384" on="0"/>
        <pt x="598" y="501" on="1"/>
        <pt x="802" y="1462" on="1"/>
        <pt x="1149" y="1462" on="1"/>
        <pt x="950" y="522" on="1"/>
      </contour>
    </TTGlyph>
    <TTGlyph name="Udieresis" xMin="-34" yMin="-19" xMax="1151" yMax="1892">
      <contour>
        <pt x="394" y="1818" on="0"/>
        <pt x="490" y="1892" on="0"/>
        <pt x="632" y="1892" on="0"/>
        <pt x="665" y="1854" on="1"/>
        <pt x="688" y="1826" on="0"/>
        <pt x="688" y="1787" on="1"/>
        <pt x="688" y="1770" on="0"/>
        <pt x="684" y="1751" on="1"/>
        <pt x="670" y="1688" on="0"/>
        <pt x="573" y="1613" on="0"/>
        <pt x="431" y="1613" on="0"/>
        <pt x="398" y="1650" on="1"/>
        <pt x="376" y="1675" on="0"/>
        <pt x="376" y="1714" on="1"/>
        <pt x="376" y="1731" on="0"/>
        <pt x="380" y="1751" on="1"/>
      </contour>
      <contour>
        <pt x="817" y="1818" on="0"/>
        <pt x="913" y="1892" on="0"/>
        <pt x="1055" y="1892" on="0"/>
        <pt x="1088" y="1854" on="1"/>
        <pt x="1111" y="1826" on="0"/>
        <pt x="1111" y="1787" on="1"/>
        <pt x="1111" y="1770" on="0"/>
        <pt x="1107" y="1751" on="1"/>
        <pt x="1093" y="1688" on="0"/>
        <pt x="996" y="1613" on="0"/>
        <pt x="854" y="1613" on="0"/>
        <pt x="822" y="1650" on="1"/>
        <pt x="799" y="1675" on="0"/>
        <pt x="799" y="1714" on="1"/>
        <pt x="799" y="1731" on="0"/>
        <pt x="803" y="1751" on="1"/>
      </contour>
      <contour>
        <pt x="895" y="259" on="0"/>
        <pt x="584" y="-19" on="0"/>
        <pt x="114" y="-19" on="0"/>
        <pt x="22" y="119" on="1"/>
        <pt x="-34" y="204" on="0"/>
        <pt x="-34" y="338" on="1"/>
        <pt x="-34" y="422" on="0"/>
        <pt x="-12" y="526" on="1"/>
        <pt x="187" y="1462" on="1"/>
        <pt x="535" y="1462" on="1"/>
        <pt x="332" y="507" on="1"/>
        <pt x="317" y="437" on="0"/>
        <pt x="317" y="386" on="1"/>
        <pt x="317" y="257" on="0"/>
        <pt x="416" y="257" on="1"/>
        <pt x="479" y="257" on="0"/>
        <pt x="574" y="384" on="0"/>
        <pt x="599" y="501" on="1"/>
        <pt x="804" y="1462" on="1"/>
        <pt x="1151" y="1462" on="1"/>
        <pt x="951" y="522" on="1"/>
      </contour>
    </TTGlyph>
    <TTGlyph name="Ugrave" xMin="-36" yMin="-19" xMax="1149" yMax="1905">
      <contour>
        <pt x="361" y="1905" on="1"/>
        <pt x="739" y="1905" on="1"/>
        <pt x="779" y="1833" on="0"/>
        <pt x="875" y="1700" on="1"/>
        <pt x="914" y="1642" on="1"/>
        <pt x="908" y="1617" on="1"/>
        <pt x="680" y="1617" on="1"/>
        <pt x="629" y="1653" on="0"/>
        <pt x="445" y="1806" on="0"/>
        <pt x="358" y="1887" on="1"/>
      </contour>
      <contour>
        <pt x="894" y="259" on="0"/>
        <pt x="583" y="-19" on="0"/>
        <pt x="113" y="-19" on="0"/>
        <pt x="21" y="119" on="1"/>
        <pt x="-36" y="204" on="0"/>
        <pt x="-36" y="339" on="1"/>
        <pt x="-36" y="423" on="0"/>
        <pt x="-14" y="526" on="1"/>
        <pt x="185" y="1462" on="1"/>
        <pt x="533" y="1462" on="1"/>
        <pt x="330" y="507" on="1"/>
        <pt x="315" y="437" on="0"/>
        <pt x="315" y="387" on="1"/>
        <pt x="315" y="257" on="0"/>
        <pt x="414" y="257" on="1"/>
        <pt x="477" y="257" on="0"/>
        <pt x="573" y="384" on="0"/>
        <pt x="598" y="501" on="1"/>
        <pt x="802" y="1462" on="1"/>
        <pt x="1149" y="1462" on="1"/>
        <pt x="950" y="522" on="1"/>
      </contour>
    </TTGlyph>
    <TTGlyph name="V" xMin="145" yMin="0" xMax="1242" yMax="1462">
      <contour>
        <pt x="499" y="1462" on="1"/>
        <pt x="499" y="579" on="1"/>
        <pt x="499" y="555" on="0"/>
        <pt x="498" y="538" on="1"/>
        <pt x="891" y="1462" on="1"/>
        <pt x="1242" y="1462" on="1"/>
        <pt x="588" y="0" on="1"/>
        <pt x="177" y="0" on="1"/>
        <pt x="145" y="1462" on="1"/>
      </contour>
    </TTGlyph>
    <TTGlyph name="W" xMin="131" yMin="0" xMax="1809" yMax="1462">
      <contour>
        <pt x="1809" y="1462" on="1"/>
        <pt x="1235" y="0" on="1"/>
        <pt x="828" y="0" on="1"/>
        <pt x="847" y="761" on="1"/>
        <pt x="847" y="786" on="1"/>
        <pt x="837" y="757" on="1"/>
        <pt x="538" y="0" on="1"/>
        <pt x="131" y="0" on="1"/>
        <pt x="176" y="1462" on="1"/>
        <pt x="520" y="1462" on="1"/>
        <pt x="476" y="643" on="1"/>
        <pt x="475" y="607" on="1"/>
        <pt x="816" y="1462" on="1"/>
        <pt x="1168" y="1462" on="1"/>
        <pt x="1147" y="638" on="1"/>
        <pt x="1147" y="603" on="1"/>
        <pt x="1462" y="1462" on="1"/>
      </contour>
    </TTGlyph>
    <TTGlyph name="X" xMin="-161" yMin="0" xMax="1169" yMax="1462">
      <contour>
        <pt x="596" y="1090" on="1"/>
        <pt x="805" y="1462" on="1"/>
        <pt x="1169" y="1462" on="1"/>
        <pt x="709" y="748" on="1"/>
        <pt x="884" y="0" on="1"/>
        <pt x="523" y="0" on="1"/>
        <pt x="443" y="417" on="1"/>
        <pt x="201" y="0" on="1"/>
        <pt x="-161" y="0" on="1"/>
        <pt x="334" y="759" on="1"/>
        <pt x="173" y="1462" on="1"/>
        <pt x="525" y="1462" on="1"/>
      </contour>
    </TTGlyph>
    <TTGlyph name="Y" xMin="145" yMin="0" xMax="1180" yMax="1462">
      <contour>
        <pt x="650" y="590" on="1"/>
        <pt x="525" y="0" on="1"/>
        <pt x="179" y="0" on="1"/>
        <pt x="302" y="580" on="1"/>
        <pt x="145" y="1462" on="1"/>
        <pt x="511" y="1462" on="1"/>
        <pt x="568" y="1009" on="1"/>
        <pt x="629" y="1119" on="0"/>
        <pt x="816" y="1462" on="1"/>
        <pt x="1180" y="1462" on="1"/>
      </contour>
    </TTGlyph>
    <TTGlyph name="Yacute" xMin="54" yMin="0" xMax="1089" yMax="1904">
      <contour>
        <pt x="1059" y="1904" on="1"/>
        <pt x="1056" y="1886" on="1"/>
        <pt x="980" y="1835" on="0"/>
        <pt x="688" y="1653" on="0"/>
        <pt x="618" y="1616" on="1"/>
        <pt x="390" y="1616" on="1"/>
        <pt x="395" y="1641" on="1"/>
        <pt x="562" y="1787" on="0"/>
        <pt x="659" y="1877" on="0"/>
        <pt x="683" y="1904" on="1"/>
      </contour>
      <contour>
        <pt x="559" y="590" on="1"/>
        <pt x="434" y="0" on="1"/>
        <pt x="88" y="0" on="1"/>
        <pt x="211" y="580" on="1"/>
        <pt x="54" y="1462" on="1"/>
        <pt x="420" y="1462" on="1"/>
        <pt x="477" y="1009" on="1"/>
        <pt x="725" y="1462" on="1"/>
        <pt x="1089" y="1462" on="1"/>
      </contour>
    </TTGlyph>
    <TTGlyph name="Ydieresis" xMin="56" yMin="0" xMax="1091" yMax="1892">
      <contour>
        <pt x="299" y="1818" on="0"/>
        <pt x="395" y="1892" on="0"/>
        <pt x="537" y="1892" on="0"/>
        <pt x="570" y="1854" on="1"/>
        <pt x="593" y="1826" on="0"/>
        <pt x="593" y="1787" on="1"/>
        <pt x="593" y="1770" on="0"/>
        <pt x="589" y="1751" on="1"/>
        <pt x="575" y="1688" on="0"/>
        <pt x="478" y="1613" on="0"/>
        <pt x="336" y="1613" on="0"/>
        <pt x="304" y="1650" on="1"/>
        <pt x="281" y="1675" on="0"/>
        <pt x="281" y="1714" on="1"/>
        <pt x="281" y="1731" on="0"/>
        <pt x="285" y="1751" on="1"/>
      </contour>
      <contour>
        <pt x="722" y="1818" on="0"/>
        <pt x="818" y="1892" on="0"/>
        <pt x="960" y="1892" on="0"/>
        <pt x="993" y="1854" on="1"/>
        <pt x="1016" y="1826" on="0"/>
        <pt x="1016" y="1787" on="1"/>
        <pt x="1016" y="1770" on="0"/>
        <pt x="1012" y="1751" on="1"/>
        <pt x="998" y="1688" on="0"/>
        <pt x="901" y="1613" on="0"/>
        <pt x="759" y="1613" on="0"/>
        <pt x="726" y="1650" on="1"/>
        <pt x="704" y="1675" on="0"/>
        <pt x="704" y="1714" on="1"/>
        <pt x="704" y="1731" on="0"/>
        <pt x="708" y="1751" on="1"/>
      </contour>
      <contour>
        <pt x="560" y="590" on="1"/>
        <pt x="435" y="0" on="1"/>
        <pt x="89" y="0" on="1"/>
        <pt x="212" y="580" on="1"/>
        <pt x="56" y="1462" on="1"/>
        <pt x="422" y="1462" on="1"/>
        <pt x="478" y="1009" on="1"/>
        <pt x="637" y="1296" on="0"/>
        <pt x="727" y="1462" on="1"/>
        <pt x="1091" y="1462" on="1"/>
      </contour>
    </TTGlyph>
    <TTGlyph name="Z" xMin="-104" yMin="0" xMax="1045" yMax="1462">
      <contour>
        <pt x="1002" y="1256" on="1"/>
        <pt x="350" y="274" on="1"/>
        <pt x="808" y="274" on="1"/>
        <pt x="750" y="0" on="1"/>
        <pt x="-104" y="0" on="1"/>
        <pt x="-61" y="206" on="1"/>
        <pt x="592" y="1189" on="1"/>
        <pt x="162" y="1189" on="1"/>
        <pt x="220" y="1462" on="1"/>
        <pt x="1045" y="1462" on="1"/>
      </contour>
    </TTGlyph>
    <TTGlyph name="Zcaron" xMin="-208" yMin="0" xMax="1026" yMax="1907">
      <contour>
        <pt x="1026" y="1907" on="1"/>
        <pt x="1020" y="1882" on="1"/>
        <pt x="845" y="1737" on="0"/>
        <pt x="738" y="1619" on="1"/>
        <pt x="392" y="1619" on="1"/>
        <pt x="370" y="1671" on="0"/>
        <pt x="270" y="1823" on="0"/>
        <pt x="221" y="1882" on="1"/>
        <pt x="227" y="1907" on="1"/>
        <pt x="454" y="1907" on="1"/>
        <pt x="508" y="1868" on="0"/>
        <pt x="597" y="1775" on="1"/>
        <pt x="716" y="1863" on="0"/>
        <pt x="802" y="1907" on="1"/>
      </contour>
      <contour>
        <pt x="898" y="1256" on="1"/>
        <pt x="247" y="274" on="1"/>
        <pt x="705" y="274" on="1"/>
        <pt x="646" y="0" on="1"/>
        <pt x="-208" y="0" on="1"/>
        <pt x="-164" y="206" on="1"/>
        <pt x="489" y="1189" on="1"/>
        <pt x="59" y="1189" on="1"/>
        <pt x="117" y="1462" on="1"/>
        <pt x="942" y="1462" on="1"/>
      </contour>
    </TTGlyph>
    <TTGlyph name="a" xMin="4" yMin="-19" xMax="971" yMax="1136">
      <contour>
        <pt x="233" y="1018" on="1"/>
        <pt x="444" y="1136" on="0"/>
        <pt x="840" y="1136" on="0"/>
        <pt x="918" y="1034" on="1"/>
        <pt x="971" y="966" on="0"/>
        <pt x="971" y="859" on="1"/>
        <pt x="971" y="805" on="0"/>
        <pt x="957" y="741" on="1"/>
        <pt x="799" y="0" on="1"/>
        <pt x="533" y="0" on="1"/>
        <pt x="520" y="90" on="1"/>
        <pt x="396" y="-19" on="0"/>
        <pt x="238" y="-19" on="1"/>
        <pt x="161" y="-19" on="0"/>
        <pt x="56" y="41" on="0"/>
        <pt x="34" y="90" on="1"/>
        <pt x="4" y="155" on="0"/>
        <pt x="4" y="285" on="0"/>
        <pt x="17" y="337" on="1"/>
        <pt x="55" y="514" on="0"/>
        <pt x="296" y="691" on="0"/>
        <pt x="505" y="700" on="1"/>
        <pt x="608" y="704" on="1"/>
        <pt x="620" y="762" on="1"/>
        <pt x="627" y="793" on="0"/>
        <pt x="627" y="817" on="1"/>
        <pt x="627" y="891" on="0"/>
        <pt x="560" y="891" on="1"/>
        <pt x="485" y="891" on="0"/>
        <pt x="298" y="793" on="1"/>
      </contour>
      <contour>
        <pt x="358" y="277" on="1"/>
        <pt x="358" y="223" on="0"/>
        <pt x="394" y="223" on="1"/>
        <pt x="445" y="223" on="0"/>
        <pt x="530" y="338" on="0"/>
        <pt x="550" y="433" on="1"/>
        <pt x="564" y="499" on="1"/>
        <pt x="552" y="498" on="0"/>
        <pt x="530" y="498" on="1"/>
        <pt x="397" y="487" on="0"/>
        <pt x="365" y="335" on="1"/>
        <pt x="358" y="301" on="0"/>
      </contour>
    </TTGlyph>
    <TTGlyph name="aacute" xMin="-97" yMin="-19" xMax="1041" yMax="1566">
      <contour>
        <pt x="1041" y="1566" on="1"/>
        <pt x="1038" y="1548" on="1"/>
        <pt x="943" y="1484" on="0"/>
        <pt x="670" y="1315" on="0"/>
        <pt x="600" y="1278" on="1"/>
        <pt x="372" y="1278" on="1"/>
        <pt x="378" y="1303" on="1"/>
        <pt x="553" y="1457" on="0"/>
        <pt x="641" y="1539" on="0"/>
        <pt x="665" y="1566" on="1"/>
      </contour>
      <contour>
        <pt x="132" y="1018" on="1"/>
        <pt x="344" y="1136" on="0"/>
        <pt x="739" y="1136" on="0"/>
        <pt x="818" y="1034" on="1"/>
        <pt x="870" y="966" on="0"/>
        <pt x="870" y="861" on="1"/>
        <pt x="870" y="806" on="0"/>
        <pt x="856" y="741" on="1"/>
        <pt x="699" y="0" on="1"/>
        <pt x="433" y="0" on="1"/>
        <pt x="420" y="90" on="1"/>
        <pt x="294" y="-19" on="0"/>
        <pt x="138" y="-19" on="1"/>
        <pt x="61" y="-19" on="0"/>
        <pt x="-45" y="41" on="0"/>
        <pt x="-68" y="90" on="1"/>
        <pt x="-97" y="155" on="0"/>
        <pt x="-97" y="285" on="0"/>
        <pt x="-84" y="337" on="1"/>
        <pt x="-46" y="514" on="0"/>
        <pt x="195" y="691" on="0"/>
        <pt x="404" y="700" on="1"/>
        <pt x="507" y="704" on="1"/>
        <pt x="520" y="762" on="1"/>
        <pt x="526" y="792" on="0"/>
        <pt x="526" y="815" on="1"/>
        <pt x="526" y="891" on="0"/>
        <pt x="459" y="891" on="1"/>
        <pt x="384" y="891" on="0"/>
        <pt x="197" y="793" on="1"/>
      </contour>
      <contour>
        <pt x="257" y="275" on="1"/>
        <pt x="257" y="223" on="0"/>
        <pt x="293" y="223" on="1"/>
        <pt x="344" y="223" on="0"/>
        <pt x="430" y="338" on="0"/>
        <pt x="450" y="433" on="1"/>
        <pt x="464" y="499" on="1"/>
        <pt x="451" y="498" on="0"/>
        <pt x="429" y="498" on="1"/>
        <pt x="298" y="487" on="0"/>
        <pt x="265" y="335" on="1"/>
        <pt x="257" y="300" on="0"/>
      </contour>
    </TTGlyph>
    <TTGlyph name="acircumflex" xMin="-97" yMin="-19" xMax="989" yMax="1566">
      <contour>
        <pt x="472" y="1566" on="1"/>
        <pt x="818" y="1566" on="1"/>
        <pt x="873" y="1450" on="0"/>
        <pt x="989" y="1303" on="1"/>
        <pt x="983" y="1278" on="1"/>
        <pt x="759" y="1278" on="1"/>
        <pt x="697" y="1318" on="0"/>
        <pt x="610" y="1410" on="1"/>
        <pt x="480" y="1315" on="0"/>
        <pt x="411" y="1278" on="1"/>
        <pt x="184" y="1278" on="1"/>
        <pt x="190" y="1303" on="1"/>
        <pt x="254" y="1353" on="0"/>
        <pt x="427" y="1513" on="0"/>
      </contour>
      <contour>
        <pt x="132" y="1018" on="1"/>
        <pt x="344" y="1136" on="0"/>
        <pt x="739" y="1136" on="0"/>
        <pt x="818" y="1034" on="1"/>
        <pt x="870" y="966" on="0"/>
        <pt x="870" y="861" on="1"/>
        <pt x="870" y="806" on="0"/>
        <pt x="856" y="741" on="1"/>
        <pt x="699" y="0" on="1"/>
        <pt x="433" y="0" on="1"/>
        <pt x="420" y="90" on="1"/>
        <pt x="294" y="-19" on="0"/>
        <pt x="138" y="-19" on="1"/>
        <pt x="61" y="-19" on="0"/>
        <pt x="-45" y="41" on="0"/>
        <pt x="-68" y="90" on="1"/>
        <pt x="-97" y="155" on="0"/>
        <pt x="-97" y="285" on="0"/>
        <pt x="-84" y="337" on="1"/>
        <pt x="-46" y="514" on="0"/>
        <pt x="195" y="691" on="0"/>
        <pt x="404" y="700" on="1"/>
        <pt x="507" y="704" on="1"/>
        <pt x="520" y="762" on="1"/>
        <pt x="526" y="792" on="0"/>
        <pt x="526" y="815" on="1"/>
        <pt x="526" y="891" on="0"/>
        <pt x="459" y="891" on="1"/>
        <pt x="384" y="891" on="0"/>
        <pt x="197" y="793" on="1"/>
      </contour>
      <contour>
        <pt x="257" y="275" on="1"/>
        <pt x="257" y="223" on="0"/>
        <pt x="293" y="223" on="1"/>
        <pt x="344" y="223" on="0"/>
        <pt x="430" y="338" on="0"/>
        <pt x="450" y="433" on="1"/>
        <pt x="464" y="499" on="1"/>
        <pt x="451" y="498" on="0"/>
        <pt x="429" y="498" on="1"/>
        <pt x="298" y="487" on="0"/>
        <pt x="265" y="335" on="1"/>
        <pt x="257" y="300" on="0"/>
      </contour>
    </TTGlyph>
    <TTGlyph name="acute" xMin="183" yMin="1278" xMax="853" yMax="1566">
      <contour>
        <pt x="853" y="1566" on="1"/>
        <pt x="849" y="1548" on="1"/>
        <pt x="754" y="1484" on="0"/>
        <pt x="481" y="1315" on="0"/>
        <pt x="411" y="1278" on="1"/>
        <pt x="183" y="1278" on="1"/>
        <pt x="189" y="1303" on="1"/>
        <pt x="377" y="1469" on="0"/>
        <pt x="439" y="1527" on="0"/>
        <pt x="477" y="1566" on="1"/>
      </contour>
    </TTGlyph>
    <TTGlyph name="adieresis" xMin="-96" yMin="-19" xMax="996" yMax="1554">
      <contour>
        <pt x="279" y="1480" on="0"/>
        <pt x="375" y="1554" on="0"/>
        <pt x="517" y="1554" on="0"/>
        <pt x="550" y="1516" on="1"/>
        <pt x="573" y="1488" on="0"/>
        <pt x="573" y="1449" on="1"/>
        <pt x="573" y="1432" on="0"/>
        <pt x="569" y="1413" on="1"/>
        <pt x="556" y="1350" on="0"/>
        <pt x="458" y="1275" on="0"/>
        <pt x="316" y="1275" on="0"/>
        <pt x="284" y="1312" on="1"/>
        <pt x="261" y="1337" on="0"/>
        <pt x="261" y="1376" on="1"/>
        <pt x="261" y="1393" on="0"/>
        <pt x="265" y="1413" on="1"/>
      </contour>
      <contour>
        <pt x="702" y="1480" on="0"/>
        <pt x="798" y="1554" on="0"/>
        <pt x="940" y="1554" on="0"/>
        <pt x="973" y="1516" on="1"/>
        <pt x="996" y="1488" on="0"/>
        <pt x="996" y="1449" on="1"/>
        <pt x="996" y="1432" on="0"/>
        <pt x="992" y="1413" on="1"/>
        <pt x="979" y="1350" on="0"/>
        <pt x="881" y="1275" on="0"/>
        <pt x="739" y="1275" on="0"/>
        <pt x="706" y="1312" on="1"/>
        <pt x="684" y="1337" on="0"/>
        <pt x="684" y="1376" on="1"/>
        <pt x="684" y="1393" on="0"/>
        <pt x="688" y="1413" on="1"/>
      </contour>
      <contour>
        <pt x="133" y="1018" on="1"/>
        <pt x="345" y="1136" on="0"/>
        <pt x="740" y="1136" on="0"/>
        <pt x="819" y="1034" on="1"/>
        <pt x="871" y="966" on="0"/>
        <pt x="871" y="861" on="1"/>
        <pt x="871" y="806" on="0"/>
        <pt x="857" y="741" on="1"/>
        <pt x="700" y="0" on="1"/>
        <pt x="434" y="0" on="1"/>
        <pt x="421" y="90" on="1"/>
        <pt x="295" y="-19" on="0"/>
        <pt x="139" y="-19" on="1"/>
        <pt x="62" y="-19" on="0"/>
        <pt x="-43" y="41" on="0"/>
        <pt x="-66" y="90" on="1"/>
        <pt x="-96" y="157" on="0"/>
        <pt x="-96" y="238" on="1"/>
        <pt x="-96" y="286" on="0"/>
        <pt x="-83" y="337" on="1"/>
        <pt x="-45" y="514" on="0"/>
        <pt x="197" y="691" on="0"/>
        <pt x="406" y="700" on="1"/>
        <pt x="509" y="704" on="1"/>
        <pt x="521" y="762" on="1"/>
        <pt x="527" y="792" on="0"/>
        <pt x="527" y="815" on="1"/>
        <pt x="527" y="891" on="0"/>
        <pt x="460" y="891" on="1"/>
        <pt x="385" y="891" on="0"/>
        <pt x="198" y="793" on="1"/>
      </contour>
      <contour>
        <pt x="258" y="275" on="1"/>
        <pt x="258" y="223" on="0"/>
        <pt x="294" y="223" on="1"/>
        <pt x="345" y="223" on="0"/>
        <pt x="431" y="338" on="0"/>
        <pt x="451" y="433" on="1"/>
        <pt x="465" y="499" on="1"/>
        <pt x="453" y="498" on="0"/>
        <pt x="431" y="498" on="1"/>
        <pt x="299" y="487" on="0"/>
        <pt x="266" y="335" on="1"/>
        <pt x="258" y="300" on="0"/>
      </contour>
    </TTGlyph>
    <TTGlyph name="ae" xMin="-46" yMin="-19" xMax="1407" yMax="1136">
      <contour>
        <pt x="600" y="1136" on="1"/>
        <pt x="756" y="1136" on="0"/>
        <pt x="834" y="1066" on="1"/>
        <pt x="942" y="1134" on="0"/>
        <pt x="1079" y="1134" on="1"/>
        <pt x="1165" y="1134" on="0"/>
        <pt x="1294" y="1082" on="0"/>
        <pt x="1331" y="1036" on="1"/>
        <pt x="1407" y="941" on="0"/>
        <pt x="1407" y="801" on="1"/>
        <pt x="1407" y="725" on="0"/>
        <pt x="1391" y="628" on="1"/>
        <pt x="1357" y="470" on="1"/>
        <pt x="844" y="470" on="1"/>
        <pt x="836" y="422" on="0"/>
        <pt x="836" y="383" on="1"/>
        <pt x="836" y="230" on="0"/>
        <pt x="962" y="230" on="1"/>
        <pt x="1112" y="230" on="0"/>
        <pt x="1280" y="323" on="1"/>
        <pt x="1226" y="70" on="1"/>
        <pt x="1059" y="-19" on="0"/>
        <pt x="870" y="-19" on="1"/>
        <pt x="657" y="-19" on="0"/>
        <pt x="569" y="114" on="1"/>
        <pt x="433" y="-19" on="0"/>
        <pt x="238" y="-19" on="1"/>
        <pt x="68" y="-19" on="0"/>
        <pt x="-1" y="72" on="1"/>
        <pt x="-46" y="131" on="0"/>
        <pt x="-46" y="226" on="1"/>
        <pt x="-46" y="276" on="0"/>
        <pt x="-33" y="337" on="1"/>
        <pt x="5" y="514" on="0"/>
        <pt x="246" y="691" on="0"/>
        <pt x="455" y="700" on="1"/>
        <pt x="558" y="704" on="1"/>
        <pt x="570" y="760" on="1"/>
        <pt x="576" y="791" on="0"/>
        <pt x="576" y="815" on="1"/>
        <pt x="576" y="891" on="0"/>
        <pt x="510" y="891" on="1"/>
        <pt x="435" y="891" on="0"/>
        <pt x="248" y="793" on="1"/>
        <pt x="183" y="1018" on="1"/>
        <pt x="394" y="1136" on="0"/>
      </contour>
      <contour>
        <pt x="1081" y="796" on="1"/>
        <pt x="1081" y="895" on="0"/>
        <pt x="1029" y="895" on="1"/>
        <pt x="953" y="895" on="0"/>
        <pt x="899" y="699" on="1"/>
        <pt x="1072" y="699" on="1"/>
        <pt x="1081" y="755" on="0"/>
      </contour>
      <contour>
        <pt x="480" y="498" on="1"/>
        <pt x="417" y="498" on="0"/>
        <pt x="332" y="413" on="0"/>
        <pt x="315" y="335" on="1"/>
        <pt x="308" y="301" on="0"/>
        <pt x="308" y="277" on="1"/>
        <pt x="308" y="223" on="0"/>
        <pt x="344" y="223" on="1"/>
        <pt x="395" y="223" on="0"/>
        <pt x="480" y="338" on="0"/>
        <pt x="500" y="433" on="1"/>
        <pt x="514" y="499" on="1"/>
        <pt x="502" y="498" on="0"/>
      </contour>
    </TTGlyph>
    <TTGlyph name="agrave" xMin="-97" yMin="-19" xMax="870" yMax="1567">
      <contour>
        <pt x="262" y="1567" on="1"/>
        <pt x="640" y="1567" on="1"/>
        <pt x="676" y="1499" on="0"/>
        <pt x="775" y="1362" on="1"/>
        <pt x="814" y="1304" on="1"/>
        <pt x="808" y="1279" on="1"/>
        <pt x="580" y="1279" on="1"/>
        <pt x="529" y="1315" on="0"/>
        <pt x="345" y="1468" on="0"/>
        <pt x="258" y="1549" on="1"/>
      </contour>
      <contour>
        <pt x="132" y="1018" on="1"/>
        <pt x="344" y="1136" on="0"/>
        <pt x="739" y="1136" on="0"/>
        <pt x="818" y="1034" on="1"/>
        <pt x="870" y="966" on="0"/>
        <pt x="870" y="861" on="1"/>
        <pt x="870" y="806" on="0"/>
        <pt x="856" y="741" on="1"/>
        <pt x="698" y="0" on="1"/>
        <pt x="432" y="0" on="1"/>
        <pt x="420" y="90" on="1"/>
        <pt x="294" y="-19" on="0"/>
        <pt x="137" y="-19" on="1"/>
        <pt x="60" y="-19" on="0"/>
        <pt x="-45" y="41" on="0"/>
        <pt x="-68" y="90" on="1"/>
        <pt x="-97" y="155" on="0"/>
        <pt x="-97" y="285" on="0"/>
        <pt x="-84" y="337" on="1"/>
        <pt x="-46" y="514" on="0"/>
        <pt x="195" y="691" on="0"/>
        <pt x="404" y="700" on="1"/>
        <pt x="507" y="704" on="1"/>
        <pt x="519" y="762" on="1"/>
        <pt x="526" y="793" on="0"/>
        <pt x="526" y="817" on="1"/>
        <pt x="526" y="891" on="0"/>
        <pt x="459" y="891" on="1"/>
        <pt x="384" y="891" on="0"/>
        <pt x="197" y="793" on="1"/>
      </contour>
      <contour>
        <pt x="257" y="275" on="1"/>
        <pt x="257" y="223" on="0"/>
        <pt x="293" y="223" on="1"/>
        <pt x="344" y="223" on="0"/>
        <pt x="430" y="338" on="0"/>
        <pt x="450" y="433" on="1"/>
        <pt x="464" y="499" on="1"/>
        <pt x="451" y="498" on="0"/>
        <pt x="429" y="498" on="1"/>
        <pt x="298" y="487" on="0"/>
        <pt x="265" y="335" on="1"/>
        <pt x="257" y="300" on="0"/>
      </contour>
    </TTGlyph>
    <TTGlyph name="alefdageshhb" xMin="-61" yMin="0" xMax="1156" yMax="1290">
      <contour>
        <pt x="1156" y="1290" on="1"/>
        <pt x="1055" y="813" on="1"/>
        <pt x="1022" y="659" on="0"/>
        <pt x="948" y="576" on="1"/>
        <pt x="919" y="542" on="0"/>
        <pt x="822" y="474" on="0"/>
        <pt x="759" y="450" on="1"/>
        <pt x="872" y="0" on="1"/>
        <pt x="496" y="0" on="1"/>
        <pt x="399" y="546" on="1"/>
        <pt x="399" y="545" on="0"/>
        <pt x="386" y="490" on="1"/>
        <pt x="282" y="0" on="1"/>
        <pt x="-61" y="0" on="1"/>
        <pt x="38" y="467" on="1"/>
        <pt x="61" y="573" on="0"/>
        <pt x="196" y="761" on="0"/>
        <pt x="321" y="820" on="1"/>
        <pt x="299" y="902" on="0"/>
        <pt x="205" y="1227" on="0"/>
        <pt x="187" y="1290" on="1"/>
        <pt x="563" y="1290" on="1"/>
        <pt x="658" y="831" on="1"/>
        <pt x="681" y="703" on="1"/>
        <pt x="693" y="727" on="0"/>
        <pt x="709" y="800" on="1"/>
        <pt x="813" y="1290" on="1"/>
      </contour>
      <contour>
        <pt x="401" y="163" on="1"/>
        <pt x="434" y="163" on="0"/>
        <pt x="460" y="133" on="0"/>
        <pt x="460" y="120" on="1"/>
        <pt x="460" y="75" on="0"/>
        <pt x="406" y="33" on="0"/>
        <pt x="340" y="33" on="0"/>
        <pt x="315" y="62" on="0"/>
        <pt x="315" y="88" on="0"/>
        <pt x="317" y="98" on="1"/>
        <pt x="332" y="163" on="0"/>
      </contour>
    </TTGlyph>
    <TTGlyph name="alefpatahhb" xMin="-61" yMin="-344" xMax="1156" yMax="1290">
      <contour>
        <pt x="1156" y="1290" on="1"/>
        <pt x="1055" y="813" on="1"/>
        <pt x="1022" y="659" on="0"/>
        <pt x="948" y="576" on="1"/>
        <pt x="919" y="542" on="0"/>
        <pt x="822" y="474" on="0"/>
        <pt x="759" y="450" on="1"/>
        <pt x="872" y="0" on="1"/>
        <pt x="496" y="0" on="1"/>
        <pt x="399" y="546" on="1"/>
        <pt x="399" y="545" on="0"/>
        <pt x="386" y="490" on="1"/>
        <pt x="282" y="0" on="1"/>
        <pt x="-61" y="0" on="1"/>
        <pt x="38" y="467" on="1"/>
        <pt x="61" y="573" on="0"/>
        <pt x="196" y="761" on="0"/>
        <pt x="321" y="820" on="1"/>
        <pt x="299" y="902" on="0"/>
        <pt x="205" y="1227" on="0"/>
        <pt x="187" y="1290" on="1"/>
        <pt x="563" y="1290" on="1"/>
        <pt x="658" y="831" on="1"/>
        <pt x="681" y="703" on="1"/>
        <pt x="693" y="727" on="0"/>
        <pt x="709" y="800" on="1"/>
        <pt x="813" y="1290" on="1"/>
      </contour>
      <contour>
        <pt x="522" y="-344" on="1"/>
        <pt x="129" y="-344" on="1"/>
        <pt x="153" y="-228" on="1"/>
        <pt x="546" y="-228" on="1"/>
      </contour>
    </TTGlyph>
    <TTGlyph name="alefqamatshb" xMin="-61" yMin="-567" xMax="1156" yMax="1290">
      <contour>
        <pt x="1156" y="1290" on="1"/>
        <pt x="1055" y="813" on="1"/>
        <pt x="1022" y="659" on="0"/>
        <pt x="948" y="576" on="1"/>
        <pt x="919" y="542" on="0"/>
        <pt x="822" y="474" on="0"/>
        <pt x="759" y="450" on="1"/>
        <pt x="872" y="0" on="1"/>
        <pt x="496" y="0" on="1"/>
        <pt x="399" y="546" on="1"/>
        <pt x="399" y="545" on="0"/>
        <pt x="386" y="490" on="1"/>
        <pt x="282" y="0" on="1"/>
        <pt x="-61" y="0" on="1"/>
        <pt x="38" y="467" on="1"/>
        <pt x="61" y="573" on="0"/>
        <pt x="196" y="761" on="0"/>
        <pt x="321" y="820" on="1"/>
        <pt x="299" y="902" on="0"/>
        <pt x="205" y="1227" on="0"/>
        <pt x="187" y="1290" on="1"/>
        <pt x="563" y="1290" on="1"/>
        <pt x="658" y="831" on="1"/>
        <pt x="681" y="703" on="1"/>
        <pt x="693" y="727" on="0"/>
        <pt x="709" y="800" on="1"/>
        <pt x="813" y="1290" on="1"/>
      </contour>
      <contour>
        <pt x="511" y="-365" on="1"/>
        <pt x="375" y="-365" on="1"/>
        <pt x="332" y="-567" on="1"/>
        <pt x="221" y="-567" on="1"/>
        <pt x="264" y="-365" on="1"/>
        <pt x="129" y="-365" on="1"/>
        <pt x="154" y="-248" on="1"/>
        <pt x="536" y="-248" on="1"/>
      </contour>
    </TTGlyph>
    <TTGlyph name="ampersand" xMin="-21" yMin="-19" xMax="1214" yMax="1482">
      <contour>
        <pt x="1022" y="1229" on="1"/>
        <pt x="1022" y="978" on="0"/>
        <pt x="703" y="763" on="1"/>
        <pt x="720" y="729" on="0"/>
        <pt x="777" y="609" on="0"/>
        <pt x="802" y="561" on="1"/>
        <pt x="829" y="609" on="0"/>
        <pt x="905" y="788" on="1"/>
        <pt x="1214" y="788" on="1"/>
        <pt x="1114" y="501" on="0"/>
        <pt x="944" y="283" on="1"/>
        <pt x="1017" y="135" on="0"/>
        <pt x="1088" y="0" on="1"/>
        <pt x="710" y="0" on="1"/>
        <pt x="674" y="74" on="1"/>
        <pt x="526" y="-19" on="0"/>
        <pt x="134" y="-19" on="0"/>
        <pt x="42" y="93" on="1"/>
        <pt x="-21" y="170" on="0"/>
        <pt x="-21" y="286" on="1"/>
        <pt x="-21" y="340" on="0"/>
        <pt x="-8" y="401" on="1"/>
        <pt x="42" y="637" on="0"/>
        <pt x="312" y="808" on="1"/>
        <pt x="255" y="951" on="0"/>
        <pt x="252" y="990" on="1"/>
        <pt x="251" y="1004" on="0"/>
        <pt x="249" y="1028" on="1"/>
        <pt x="246" y="1066" on="0"/>
        <pt x="259" y="1129" on="1"/>
        <pt x="294" y="1290" on="0"/>
        <pt x="552" y="1482" on="0"/>
        <pt x="882" y="1482" on="0"/>
        <pt x="964" y="1391" on="1"/>
        <pt x="1022" y="1326" on="0"/>
      </contour>
      <contour>
        <pt x="689" y="1173" on="1"/>
        <pt x="689" y="1220" on="0"/>
        <pt x="660" y="1220" on="1"/>
        <pt x="635" y="1220" on="0"/>
        <pt x="593" y="1167" on="0"/>
        <pt x="578" y="1094" on="0"/>
        <pt x="578" y="1024" on="0"/>
        <pt x="599" y="977" on="1"/>
        <pt x="689" y="1060" on="0"/>
      </contour>
      <contour>
        <pt x="343" y="425" on="1"/>
        <pt x="335" y="390" on="0"/>
        <pt x="335" y="325" on="0"/>
        <pt x="348" y="299" on="1"/>
        <pt x="369" y="253" on="0"/>
        <pt x="487" y="253" on="0"/>
        <pt x="560" y="305" on="1"/>
        <pt x="536" y="354" on="0"/>
        <pt x="451" y="532" on="0"/>
        <pt x="425" y="586" on="1"/>
        <pt x="362" y="519" on="0"/>
      </contour>
    </TTGlyph>
    <TTGlyph name="aring" xMin="-112" yMin="-19" xMax="867" yMax="1706">
      <contour>
        <pt x="486" y="1645" on="1"/>
        <pt x="562" y="1706" on="0"/>
        <pt x="773" y="1706" on="0"/>
        <pt x="827" y="1644" on="1"/>
        <pt x="867" y="1598" on="0"/>
        <pt x="867" y="1535" on="1"/>
        <pt x="867" y="1511" on="0"/>
        <pt x="861" y="1484" on="1"/>
        <pt x="840" y="1384" on="0"/>
        <pt x="760" y="1322" on="1"/>
        <pt x="678" y="1260" on="0"/>
        <pt x="468" y="1260" on="0"/>
        <pt x="417" y="1320" on="1"/>
        <pt x="382" y="1363" on="0"/>
        <pt x="382" y="1424" on="1"/>
        <pt x="382" y="1451" on="0"/>
        <pt x="389" y="1482" on="1"/>
        <pt x="410" y="1582" on="0"/>
      </contour>
      <contour>
        <pt x="667" y="1556" on="0"/>
        <pt x="605" y="1556" on="0"/>
        <pt x="555" y="1515" on="0"/>
        <pt x="541" y="1449" on="0"/>
        <pt x="570" y="1408" on="0"/>
        <pt x="636" y="1408" on="0"/>
        <pt x="688" y="1450" on="0"/>
        <pt x="702" y="1515" on="0"/>
      </contour>
      <contour>
        <pt x="117" y="1018" on="1"/>
        <pt x="329" y="1136" on="0"/>
        <pt x="724" y="1136" on="0"/>
        <pt x="803" y="1034" on="1"/>
        <pt x="855" y="966" on="0"/>
        <pt x="855" y="861" on="1"/>
        <pt x="855" y="806" on="0"/>
        <pt x="841" y="741" on="1"/>
        <pt x="684" y="0" on="1"/>
        <pt x="418" y="0" on="1"/>
        <pt x="405" y="90" on="1"/>
        <pt x="279" y="-19" on="0"/>
        <pt x="123" y="-19" on="1"/>
        <pt x="46" y="-19" on="0"/>
        <pt x="-60" y="41" on="0"/>
        <pt x="-82" y="90" on="1"/>
        <pt x="-112" y="155" on="0"/>
        <pt x="-112" y="285" on="0"/>
        <pt x="-99" y="337" on="1"/>
        <pt x="-61" y="514" on="0"/>
        <pt x="180" y="691" on="0"/>
        <pt x="389" y="700" on="1"/>
        <pt x="492" y="704" on="1"/>
        <pt x="505" y="762" on="1"/>
        <pt x="511" y="792" on="0"/>
        <pt x="511" y="815" on="1"/>
        <pt x="511" y="891" on="0"/>
        <pt x="444" y="891" on="1"/>
        <pt x="369" y="891" on="0"/>
        <pt x="182" y="793" on="1"/>
      </contour>
      <contour>
        <pt x="242" y="275" on="1"/>
        <pt x="242" y="223" on="0"/>
        <pt x="278" y="223" on="1"/>
        <pt x="329" y="223" on="0"/>
        <pt x="415" y="338" on="0"/>
        <pt x="435" y="433" on="1"/>
        <pt x="449" y="499" on="1"/>
        <pt x="437" y="498" on="0"/>
        <pt x="415" y="498" on="1"/>
        <pt x="283" y="487" on="0"/>
        <pt x="250" y="335" on="1"/>
        <pt x="242" y="300" on="0"/>
      </contour>
    </TTGlyph>
    <TTGlyph name="asciicircum" xMin="-143" yMin="511" xMax="998" yMax="1470">
      <contour>
        <pt x="998" y="511" on="1"/>
        <pt x="693" y="511" on="1"/>
        <pt x="529" y="1081" on="1"/>
        <pt x="158" y="511" on="1"/>
        <pt x="-143" y="511" on="1"/>
        <pt x="505" y="1470" on="1"/>
        <pt x="701" y="1470" on="1"/>
      </contour>
    </TTGlyph>
    <TTGlyph name="asciitilde" xMin="58" yMin="571" xMax="907" yMax="873">
      <contour>
        <pt x="638" y="572" on="1"/>
        <pt x="542" y="572" on="0"/>
        <pt x="341" y="664" on="0"/>
        <pt x="172" y="664" on="0"/>
        <pt x="58" y="571" on="1"/>
        <pt x="104" y="788" on="1"/>
        <pt x="203" y="872" on="0"/>
        <pt x="327" y="872" on="1"/>
        <pt x="378" y="872" on="0"/>
        <pt x="470" y="850" on="0"/>
        <pt x="532" y="822" on="1"/>
        <pt x="625" y="780" on="0"/>
        <pt x="708" y="780" on="1"/>
        <pt x="748" y="780" on="0"/>
        <pt x="854" y="829" on="0"/>
        <pt x="907" y="873" on="1"/>
        <pt x="861" y="656" on="1"/>
        <pt x="762" y="572" on="0"/>
      </contour>
    </TTGlyph>
    <TTGlyph name="asterisk" xMin="43" yMin="702" xMax="943" yMax="1556">
      <contour>
        <pt x="616" y="1250" on="1"/>
        <pt x="943" y="1338" on="1"/>
        <pt x="921" y="1082" on="1"/>
        <pt x="644" y="1064" on="1"/>
        <pt x="773" y="822" on="1"/>
        <pt x="521" y="702" on="1"/>
        <pt x="450" y="948" on="1"/>
        <pt x="291" y="704" on="1"/>
        <pt x="80" y="822" on="1"/>
        <pt x="310" y="1064" on="1"/>
        <pt x="43" y="1085" on="1"/>
        <pt x="135" y="1338" on="1"/>
        <pt x="419" y="1250" on="1"/>
        <pt x="450" y="1556" on="1"/>
        <pt x="714" y="1556" on="1"/>
      </contour>
    </TTGlyph>
    <TTGlyph name="at" xMin="34" yMin="-163" xMax="1499" yMax="1477">
      <contour>
        <pt x="570" y="-163" on="1"/>
        <pt x="267" y="-163" on="0"/>
        <pt x="128" y="40" on="1"/>
        <pt x="34" y="177" on="0"/>
        <pt x="34" y="375" on="1"/>
        <pt x="34" y="478" on="0"/>
        <pt x="59" y="598" on="1"/>
        <pt x="95" y="768" on="0"/>
        <pt x="267" y="1084" on="0"/>
        <pt x="505" y="1329" on="0"/>
        <pt x="819" y="1477" on="0"/>
        <pt x="985" y="1477" on="1"/>
        <pt x="1298" y="1477" on="0"/>
        <pt x="1426" y="1270" on="1"/>
        <pt x="1499" y="1154" on="0"/>
        <pt x="1499" y="972" on="1"/>
        <pt x="1499" y="868" on="0"/>
        <pt x="1458" y="672" on="0"/>
        <pt x="1410" y="533" on="0"/>
        <pt x="1331" y="391" on="0"/>
        <pt x="1233" y="289" on="0"/>
        <pt x="1096" y="224" on="0"/>
        <pt x="955" y="224" on="0"/>
        <pt x="862" y="271" on="0"/>
        <pt x="841" y="312" on="1"/>
        <pt x="745" y="224" on="0"/>
        <pt x="623" y="224" on="1"/>
        <pt x="480" y="224" on="0"/>
        <pt x="424" y="320" on="1"/>
        <pt x="391" y="376" on="0"/>
        <pt x="391" y="528" on="0"/>
        <pt x="429" y="707" on="0"/>
        <pt x="514" y="882" on="0"/>
        <pt x="637" y="1023" on="0"/>
        <pt x="809" y="1105" on="0"/>
        <pt x="1021" y="1105" on="0"/>
        <pt x="1168" y="1055" on="1"/>
        <pt x="1040" y="555" on="1"/>
        <pt x="1029" y="505" on="0"/>
        <pt x="1029" y="434" on="0"/>
        <pt x="1051" y="434" on="1"/>
        <pt x="1075" y="434" on="0"/>
        <pt x="1123" y="505" on="0"/>
        <pt x="1142" y="562" on="1"/>
        <pt x="1216" y="792" on="0"/>
        <pt x="1216" y="947" on="1"/>
        <pt x="1216" y="1058" on="0"/>
        <pt x="1178" y="1130" on="1"/>
        <pt x="1111" y="1260" on="0"/>
        <pt x="934" y="1260" on="1"/>
        <pt x="839" y="1260" on="0"/>
        <pt x="664" y="1175" on="0"/>
        <pt x="535" y="1040" on="0"/>
        <pt x="429" y="865" on="0"/>
        <pt x="396" y="778" on="1"/>
        <pt x="324" y="587" on="0"/>
        <pt x="324" y="421" on="1"/>
        <pt x="324" y="167" on="0"/>
        <pt x="483" y="86" on="1"/>
        <pt x="546" y="54" on="0"/>
        <pt x="632" y="54" on="1"/>
        <pt x="788" y="54" on="0"/>
        <pt x="1053" y="169" on="1"/>
        <pt x="1004" y="-63" on="1"/>
        <pt x="797" y="-163" on="0"/>
        <pt x="585" y="-163" on="1"/>
        <pt x="578" y="-163" on="0"/>
      </contour>
      <contour>
        <pt x="672" y="501" on="1"/>
        <pt x="672" y="434" on="0"/>
        <pt x="700" y="434" on="1"/>
        <pt x="743" y="434" on="0"/>
        <pt x="813" y="684" on="1"/>
        <pt x="820" y="711" on="0"/>
        <pt x="859" y="853" on="0"/>
        <pt x="869" y="894" on="1"/>
        <pt x="866" y="895" on="0"/>
        <pt x="853" y="895" on="1"/>
        <pt x="816" y="895" on="0"/>
        <pt x="778" y="838" on="1"/>
        <pt x="713" y="740" on="0"/>
        <pt x="686" y="608" on="1"/>
        <pt x="672" y="546" on="0"/>
      </contour>
    </TTGlyph>
    <TTGlyph name="atilde" xMin="-94" yMin="-19" xMax="1016" yMax="1540">
      <contour>
        <pt x="736" y="1239" on="1"/>
        <pt x="680" y="1239" on="0"/>
        <pt x="493" y="1324" on="0"/>
        <pt x="451" y="1324" on="1"/>
        <pt x="405" y="1324" on="0"/>
        <pt x="369" y="1238" on="1"/>
        <pt x="211" y="1238" on="1"/>
        <pt x="253" y="1392" on="0"/>
        <pt x="392" y="1539" on="0"/>
        <pt x="496" y="1539" on="1"/>
        <pt x="540" y="1539" on="0"/>
        <pt x="730" y="1454" on="0"/>
        <pt x="774" y="1454" on="1"/>
        <pt x="821" y="1454" on="0"/>
        <pt x="856" y="1540" on="1"/>
        <pt x="1016" y="1540" on="1"/>
        <pt x="976" y="1393" on="0"/>
        <pt x="832" y="1239" on="0"/>
      </contour>
      <contour>
        <pt x="135" y="1018" on="1"/>
        <pt x="347" y="1136" on="0"/>
        <pt x="742" y="1136" on="0"/>
        <pt x="820" y="1034" on="1"/>
        <pt x="873" y="966" on="0"/>
        <pt x="873" y="859" on="1"/>
        <pt x="873" y="805" on="0"/>
        <pt x="859" y="741" on="1"/>
        <pt x="701" y="0" on="1"/>
        <pt x="435" y="0" on="1"/>
        <pt x="422" y="90" on="1"/>
        <pt x="298" y="-19" on="0"/>
        <pt x="140" y="-19" on="1"/>
        <pt x="63" y="-19" on="0"/>
        <pt x="-42" y="41" on="0"/>
        <pt x="-64" y="90" on="1"/>
        <pt x="-94" y="155" on="0"/>
        <pt x="-94" y="285" on="0"/>
        <pt x="-81" y="337" on="1"/>
        <pt x="-43" y="514" on="0"/>
        <pt x="198" y="691" on="0"/>
        <pt x="407" y="700" on="1"/>
        <pt x="510" y="704" on="1"/>
        <pt x="522" y="762" on="1"/>
        <pt x="529" y="793" on="0"/>
        <pt x="529" y="817" on="1"/>
        <pt x="529" y="891" on="0"/>
        <pt x="462" y="891" on="1"/>
        <pt x="387" y="891" on="0"/>
        <pt x="200" y="793" on="1"/>
      </contour>
      <contour>
        <pt x="260" y="275" on="1"/>
        <pt x="260" y="223" on="0"/>
        <pt x="296" y="223" on="1"/>
        <pt x="347" y="223" on="0"/>
        <pt x="432" y="338" on="0"/>
        <pt x="452" y="433" on="1"/>
        <pt x="466" y="499" on="1"/>
        <pt x="454" y="498" on="0"/>
        <pt x="432" y="498" on="1"/>
        <pt x="299" y="487" on="0"/>
        <pt x="268" y="335" on="1"/>
        <pt x="260" y="300" on="0"/>
      </contour>
    </TTGlyph>
    <TTGlyph name="b" xMin="-37" yMin="-19" xMax="993" yMax="1539">
      <contour>
        <pt x="731" y="1134" on="1"/>
        <pt x="908" y="1134" on="0"/>
        <pt x="964" y="978" on="1"/>
        <pt x="993" y="899" on="0"/>
        <pt x="993" y="689" on="0"/>
        <pt x="965" y="559" on="1"/>
        <pt x="910" y="298" on="0"/>
        <pt x="785" y="137" on="1"/>
        <pt x="724" y="63" on="0"/>
        <pt x="566" y="-19" on="0"/>
        <pt x="482" y="-19" on="1"/>
        <pt x="337" y="-19" on="0"/>
        <pt x="274" y="79" on="1"/>
        <pt x="229" y="0" on="1"/>
        <pt x="-37" y="0" on="1"/>
        <pt x="291" y="1539" on="1"/>
        <pt x="632" y="1539" on="1"/>
        <pt x="553" y="1168" on="1"/>
        <pt x="542" y="1121" on="1"/>
        <pt x="526" y="1066" on="1"/>
        <pt x="613" y="1134" on="0"/>
      </contour>
      <contour>
        <pt x="395" y="353" on="1"/>
        <pt x="395" y="326" on="0"/>
        <pt x="399" y="307" on="1"/>
        <pt x="413" y="243" on="0"/>
        <pt x="455" y="243" on="1"/>
        <pt x="551" y="243" on="0"/>
        <pt x="619" y="563" on="1"/>
        <pt x="646" y="689" on="0"/>
        <pt x="646" y="764" on="1"/>
        <pt x="646" y="875" on="0"/>
        <pt x="587" y="875" on="1"/>
        <pt x="548" y="875" on="0"/>
        <pt x="467" y="758" on="0"/>
        <pt x="429" y="587" on="1"/>
        <pt x="424" y="561" on="1"/>
        <pt x="395" y="426" on="0"/>
      </contour>
    </TTGlyph>
    <TTGlyph name="backslash" xMin="114" yMin="0" xMax="685" yMax="1462">
      <contour>
        <pt x="685" y="0" on="1"/>
        <pt x="349" y="0" on="1"/>
        <pt x="114" y="1462" on="1"/>
        <pt x="450" y="1462" on="1"/>
      </contour>
    </TTGlyph>
    <TTGlyph name="bar" xMin="164" yMin="-457" xMax="876" yMax="1549">
      <contour>
        <pt x="450" y="-457" on="1"/>
        <pt x="164" y="-457" on="1"/>
        <pt x="590" y="1549" on="1"/>
        <pt x="876" y="1549" on="1"/>
      </contour>
    </TTGlyph>
    <TTGlyph name="betdageshhb" xMin="-79" yMin="0" xMax="870" yMax="1310">
      <contour>
        <pt x="193" y="1282" on="1"/>
        <pt x="350" y="1310" on="0"/>
        <pt x="576" y="1310" on="0"/>
        <pt x="700" y="1290" on="0"/>
        <pt x="786" y="1253" on="0"/>
        <pt x="813" y="1223" on="1"/>
        <pt x="870" y="1160" on="0"/>
        <pt x="870" y="1054" on="1"/>
        <pt x="870" y="978" on="0"/>
        <pt x="844" y="853" on="1"/>
        <pt x="716" y="251" on="1"/>
        <pt x="846" y="251" on="1"/>
        <pt x="793" y="0" on="1"/>
        <pt x="-79" y="0" on="1"/>
        <pt x="-26" y="251" on="1"/>
        <pt x="371" y="251" on="1"/>
        <pt x="499" y="854" on="1"/>
        <pt x="511" y="911" on="0"/>
        <pt x="511" y="992" on="0"/>
        <pt x="498" y="1014" on="1"/>
        <pt x="473" y="1057" on="0"/>
        <pt x="384" y="1057" on="1"/>
        <pt x="324" y="1057" on="0"/>
        <pt x="202" y="1044" on="0"/>
        <pt x="171" y="1037" on="1"/>
        <pt x="140" y="1030" on="1"/>
      </contour>
      <contour>
        <pt x="275" y="722" on="1"/>
        <pt x="308" y="722" on="0"/>
        <pt x="334" y="692" on="0"/>
        <pt x="334" y="679" on="1"/>
        <pt x="334" y="634" on="0"/>
        <pt x="280" y="592" on="0"/>
        <pt x="214" y="592" on="0"/>
        <pt x="189" y="621" on="0"/>
        <pt x="189" y="647" on="0"/>
        <pt x="191" y="657" on="1"/>
        <pt x="206" y="722" on="0"/>
      </contour>
    </TTGlyph>
    <TTGlyph name="braceleft" xMin="23" yMin="-316" xMax="985" yMax="1463">
      <contour>
        <pt x="587" y="410" on="1"/>
        <pt x="587" y="386" on="0"/>
        <pt x="581" y="359" on="1"/>
        <pt x="516" y="53" on="1"/>
        <pt x="509" y="20" on="0"/>
        <pt x="509" y="-26" on="0"/>
        <pt x="518" y="-36" on="1"/>
        <pt x="544" y="-64" on="0"/>
        <pt x="660" y="-68" on="1"/>
        <pt x="607" y="-316" on="1"/>
        <pt x="329" y="-312" on="0"/>
        <pt x="236" y="-250" on="1"/>
        <pt x="167" y="-203" on="0"/>
        <pt x="167" y="-98" on="1"/>
        <pt x="167" y="-62" on="0"/>
        <pt x="175" y="-19" on="1"/>
        <pt x="241" y="289" on="1"/>
        <pt x="245" y="308" on="0"/>
        <pt x="245" y="325" on="1"/>
        <pt x="245" y="380" on="0"/>
        <pt x="203" y="408" on="1"/>
        <pt x="148" y="444" on="0"/>
        <pt x="23" y="444" on="1"/>
        <pt x="79" y="703" on="1"/>
        <pt x="328" y="703" on="0"/>
        <pt x="359" y="848" on="1"/>
        <pt x="427" y="1167" on="1"/>
        <pt x="453" y="1281" on="0"/>
        <pt x="576" y="1406" on="0"/>
        <pt x="796" y="1460" on="0"/>
        <pt x="985" y="1463" on="1"/>
        <pt x="932" y="1215" on="1"/>
        <pt x="816" y="1212" on="0"/>
        <pt x="779" y="1183" on="1"/>
        <pt x="753" y="1165" on="0"/>
        <pt x="738" y="1095" on="1"/>
        <pt x="675" y="801" on="1"/>
        <pt x="636" y="628" on="0"/>
        <pt x="438" y="574" on="1"/>
        <pt x="587" y="530" on="0"/>
      </contour>
    </TTGlyph>
    <TTGlyph name="braceright" xMin="-133" yMin="-315" xMax="829" yMax="1462">
      <contour>
        <pt x="687" y="1240" on="1"/>
        <pt x="687" y="1206" on="0"/>
        <pt x="679" y="1167" on="1"/>
        <pt x="611" y="848" on="1"/>
        <pt x="607" y="831" on="0"/>
        <pt x="607" y="816" on="1"/>
        <pt x="607" y="764" on="0"/>
        <pt x="650" y="738" on="1"/>
        <pt x="705" y="703" on="0"/>
        <pt x="829" y="703" on="1"/>
        <pt x="773" y="444" on="1"/>
        <pt x="648" y="444" on="0"/>
        <pt x="511" y="372" on="0"/>
        <pt x="493" y="289" on="1"/>
        <pt x="427" y="-18" on="1"/>
        <pt x="394" y="-174" on="0"/>
        <pt x="265" y="-249" on="1"/>
        <pt x="266" y="-249" on="1"/>
        <pt x="155" y="-315" on="0"/>
        <pt x="-133" y="-315" on="1"/>
        <pt x="-80" y="-68" on="1"/>
        <pt x="39" y="-63" on="0"/>
        <pt x="102" y="-15" on="0"/>
        <pt x="116" y="53" on="1"/>
        <pt x="181" y="356" on="1"/>
        <pt x="215" y="519" on="0"/>
        <pt x="417" y="574" on="1"/>
        <pt x="270" y="619" on="0"/>
        <pt x="270" y="748" on="1"/>
        <pt x="270" y="773" on="0"/>
        <pt x="275" y="800" on="1"/>
        <pt x="338" y="1095" on="1"/>
        <pt x="345" y="1126" on="0"/>
        <pt x="345" y="1173" on="0"/>
        <pt x="334" y="1184" on="1"/>
        <pt x="310" y="1212" on="0"/>
        <pt x="192" y="1215" on="1"/>
        <pt x="245" y="1462" on="1"/>
        <pt x="535" y="1462" on="0"/>
        <pt x="617" y="1396" on="1"/>
        <pt x="616" y="1396" on="1"/>
        <pt x="687" y="1339" on="0"/>
      </contour>
    </TTGlyph>
    <TTGlyph name="bracketleft" xMin="-107" yMin="-315" xMax="811" yMax="1462">
      <contour>
        <pt x="761" y="1227" on="1"/>
        <pt x="545" y="1227" on="1"/>
        <pt x="267" y="-79" on="1"/>
        <pt x="483" y="-79" on="1"/>
        <pt x="433" y="-315" on="1"/>
        <pt x="-107" y="-315" on="1"/>
        <pt x="271" y="1462" on="1"/>
        <pt x="811" y="1462" on="1"/>
      </contour>
    </TTGlyph>
    <TTGlyph name="bracketright" xMin="-192" yMin="-315" xMax="727" yMax="1462">
      <contour>
        <pt x="349" y="-315" on="1"/>
        <pt x="-192" y="-315" on="1"/>
        <pt x="-142" y="-79" on="1"/>
        <pt x="75" y="-79" on="1"/>
        <pt x="353" y="1227" on="1"/>
        <pt x="136" y="1227" on="1"/>
        <pt x="186" y="1462" on="1"/>
        <pt x="727" y="1462" on="1"/>
      </contour>
    </TTGlyph>
    <TTGlyph name="breve" xMin="269" yMin="1241" xMax="897" yMax="1567">
      <contour>
        <pt x="852" y="1410" on="0"/>
        <pt x="653" y="1241" on="0"/>
        <pt x="369" y="1241" on="0"/>
        <pt x="310" y="1326" on="1"/>
        <pt x="269" y="1384" on="0"/>
        <pt x="269" y="1476" on="1"/>
        <pt x="269" y="1518" on="0"/>
        <pt x="277" y="1567" on="1"/>
        <pt x="437" y="1567" on="1"/>
        <pt x="435" y="1549" on="0"/>
        <pt x="435" y="1533" on="1"/>
        <pt x="435" y="1489" on="0"/>
        <pt x="476" y="1442" on="0"/>
        <pt x="637" y="1442" on="0"/>
        <pt x="710" y="1497" on="0"/>
        <pt x="736" y="1567" on="1"/>
        <pt x="897" y="1567" on="1"/>
      </contour>
    </TTGlyph>
    <TTGlyph name="brokenbar" xMin="146" yMin="-457" xMax="858" yMax="1549">
      <contour>
        <pt x="682" y="721" on="1"/>
        <pt x="396" y="721" on="1"/>
        <pt x="572" y="1549" on="1"/>
        <pt x="858" y="1549" on="1"/>
      </contour>
      <contour>
        <pt x="432" y="-457" on="1"/>
        <pt x="146" y="-457" on="1"/>
        <pt x="322" y="371" on="1"/>
        <pt x="608" y="371" on="1"/>
      </contour>
    </TTGlyph>
    <TTGlyph name="bullet" xMin="37" yMin="427" xMax="681" yMax="1067">
      <contour>
        <pt x="81" y="901" on="0"/>
        <pt x="278" y="1067" on="0"/>
        <pt x="576" y="1067" on="0"/>
        <pt x="639" y="984" on="1"/>
        <pt x="681" y="928" on="0"/>
        <pt x="681" y="843" on="1"/>
        <pt x="681" y="799" on="0"/>
        <pt x="670" y="748" on="1"/>
        <pt x="638" y="597" on="0"/>
        <pt x="438" y="427" on="0"/>
        <pt x="142" y="427" on="0"/>
        <pt x="79" y="511" on="1"/>
        <pt x="37" y="567" on="0"/>
        <pt x="37" y="653" on="1"/>
        <pt x="37" y="696" on="0"/>
        <pt x="48" y="748" on="1"/>
      </contour>
    </TTGlyph>
    <TTGlyph name="c" xMin="49" yMin="-19" xMax="897" yMax="1134">
      <contour>
        <pt x="396" y="359" on="1"/>
        <pt x="396" y="243" on="0"/>
        <pt x="466" y="243" on="1"/>
        <pt x="544" y="243" on="0"/>
        <pt x="732" y="349" on="1"/>
        <pt x="670" y="59" on="1"/>
        <pt x="528" y="-19" on="0"/>
        <pt x="387" y="-19" on="1"/>
        <pt x="175" y="-19" on="0"/>
        <pt x="95" y="126" on="1"/>
        <pt x="49" y="209" on="0"/>
        <pt x="49" y="336" on="1"/>
        <pt x="49" y="431" on="0"/>
        <pt x="75" y="551" on="1"/>
        <pt x="137" y="846" on="0"/>
        <pt x="410" y="1134" on="0"/>
        <pt x="630" y="1134" on="1"/>
        <pt x="699" y="1134" on="0"/>
        <pt x="843" y="1091" on="0"/>
        <pt x="897" y="1051" on="1"/>
        <pt x="753" y="800" on="1"/>
        <pt x="647" y="873" on="0"/>
        <pt x="601" y="873" on="1"/>
        <pt x="543" y="873" on="0"/>
        <pt x="456" y="715" on="0"/>
        <pt x="396" y="432" on="0"/>
      </contour>
    </TTGlyph>
    <TTGlyph name="caron" xMin="179" yMin="1281" xMax="984" yMax="1569">
      <contour>
        <pt x="984" y="1569" on="1"/>
        <pt x="978" y="1544" on="1"/>
        <pt x="913" y="1490" on="0"/>
        <pt x="747" y="1338" on="0"/>
        <pt x="696" y="1281" on="1"/>
        <pt x="350" y="1281" on="1"/>
        <pt x="328" y="1333" on="0"/>
        <pt x="228" y="1485" on="0"/>
        <pt x="179" y="1544" on="1"/>
        <pt x="185" y="1569" on="1"/>
        <pt x="412" y="1569" on="1"/>
        <pt x="466" y="1530" on="0"/>
        <pt x="555" y="1437" on="1"/>
        <pt x="674" y="1525" on="0"/>
        <pt x="760" y="1569" on="1"/>
      </contour>
    </TTGlyph>
    <TTGlyph name="ccedilla" xMin="43" yMin="-431" xMax="891" yMax="1134">
      <contour>
        <pt x="265" y="-6" on="1"/>
        <pt x="43" y="51" on="0"/>
        <pt x="43" y="338" on="1"/>
        <pt x="43" y="432" on="0"/>
        <pt x="68" y="551" on="1"/>
        <pt x="131" y="846" on="0"/>
        <pt x="403" y="1134" on="0"/>
        <pt x="623" y="1134" on="1"/>
        <pt x="692" y="1134" on="0"/>
        <pt x="837" y="1091" on="0"/>
        <pt x="891" y="1051" on="1"/>
        <pt x="746" y="800" on="1"/>
        <pt x="642" y="873" on="0"/>
        <pt x="595" y="873" on="1"/>
        <pt x="537" y="873" on="0"/>
        <pt x="450" y="715" on="0"/>
        <pt x="390" y="432" on="0"/>
        <pt x="390" y="359" on="1"/>
        <pt x="390" y="243" on="0"/>
        <pt x="460" y="243" on="1"/>
        <pt x="537" y="243" on="0"/>
        <pt x="725" y="349" on="1"/>
        <pt x="664" y="59" on="1"/>
        <pt x="534" y="-12" on="0"/>
        <pt x="408" y="-18" on="1"/>
        <pt x="405" y="-24" on="1"/>
        <pt x="427" y="-26" on="0"/>
        <pt x="487" y="-67" on="0"/>
        <pt x="502" y="-89" on="1"/>
        <pt x="530" y="-130" on="0"/>
        <pt x="530" y="-175" on="1"/>
        <pt x="530" y="-195" on="0"/>
        <pt x="524" y="-219" on="1"/>
        <pt x="479" y="-431" on="0"/>
        <pt x="225" y="-431" on="1"/>
        <pt x="190" y="-431" on="0"/>
        <pt x="111" y="-413" on="0"/>
        <pt x="90" y="-404" on="1"/>
        <pt x="68" y="-395" on="1"/>
        <pt x="104" y="-226" on="1"/>
        <pt x="172" y="-255" on="0"/>
        <pt x="287" y="-255" on="0"/>
        <pt x="297" y="-207" on="1"/>
        <pt x="303" y="-180" on="0"/>
        <pt x="248" y="-134" on="0"/>
        <pt x="218" y="-124" on="1"/>
        <pt x="187" y="-114" on="1"/>
        <pt x="247" y="-30" on="0"/>
      </contour>
    </TTGlyph>
    <TTGlyph name="cedilla" xMin="-57" yMin="-431" xMax="404" yMax="1">
      <contour>
        <pt x="361" y="-67" on="0"/>
        <pt x="391" y="-111" on="0"/>
        <pt x="404" y="-158" on="0"/>
        <pt x="404" y="-195" on="0"/>
        <pt x="398" y="-219" on="1"/>
        <pt x="353" y="-431" on="0"/>
        <pt x="99" y="-431" on="1"/>
        <pt x="64" y="-431" on="0"/>
        <pt x="-14" y="-413" on="0"/>
        <pt x="-36" y="-404" on="1"/>
        <pt x="-57" y="-395" on="1"/>
        <pt x="-21" y="-226" on="1"/>
        <pt x="46" y="-255" on="0"/>
        <pt x="162" y="-255" on="0"/>
        <pt x="172" y="-207" on="1"/>
        <pt x="177" y="-180" on="0"/>
        <pt x="122" y="-134" on="0"/>
        <pt x="92" y="-124" on="1"/>
        <pt x="61" y="-114" on="1"/>
        <pt x="144" y="1" on="0"/>
        <pt x="145" y="1" on="1"/>
        <pt x="293" y="1" on="1"/>
        <pt x="280" y="-24" on="1"/>
        <pt x="301" y="-26" on="0"/>
      </contour>
    </TTGlyph>
    <TTGlyph name="cent" xMin="74" yMin="-19" xMax="932" yMax="1479">
      <contour>
        <pt x="423" y="545" on="1"/>
        <pt x="423" y="426" on="0"/>
        <pt x="493" y="426" on="1"/>
        <pt x="572" y="426" on="0"/>
        <pt x="762" y="536" on="1"/>
        <pt x="699" y="243" on="1"/>
        <pt x="602" y="188" on="0"/>
        <pt x="515" y="172" on="1"/>
        <pt x="475" y="-19" on="1"/>
        <pt x="228" y="-19" on="1"/>
        <pt x="271" y="185" on="1"/>
        <pt x="74" y="263" on="0"/>
        <pt x="74" y="528" on="1"/>
        <pt x="74" y="621" on="0"/>
        <pt x="98" y="737" on="1"/>
        <pt x="147" y="967" on="0"/>
        <pt x="357" y="1254" on="0"/>
        <pt x="509" y="1306" on="1"/>
        <pt x="546" y="1479" on="1"/>
        <pt x="793" y="1479" on="1"/>
        <pt x="759" y="1316" on="1"/>
        <pt x="847" y="1297" on="0"/>
        <pt x="932" y="1243" on="1"/>
        <pt x="783" y="989" on="1"/>
        <pt x="673" y="1062" on="0"/>
        <pt x="631" y="1062" on="1"/>
        <pt x="572" y="1062" on="0"/>
        <pt x="484" y="904" on="0"/>
        <pt x="423" y="619" on="0"/>
      </contour>
    </TTGlyph>
    <TTGlyph name="circumflex" xMin="117" yMin="1279" xMax="922" yMax="1567">
      <contour>
        <pt x="406" y="1567" on="1"/>
        <pt x="752" y="1567" on="1"/>
        <pt x="809" y="1447" on="0"/>
        <pt x="922" y="1304" on="1"/>
        <pt x="916" y="1279" on="1"/>
        <pt x="692" y="1279" on="1"/>
        <pt x="630" y="1319" on="0"/>
        <pt x="543" y="1411" on="1"/>
        <pt x="413" y="1316" on="0"/>
        <pt x="344" y="1279" on="1"/>
        <pt x="117" y="1279" on="1"/>
        <pt x="123" y="1304" on="1"/>
        <pt x="187" y="1354" on="0"/>
        <pt x="356" y="1511" on="0"/>
      </contour>
    </TTGlyph>
    <TTGlyph name="colon" xMin="-40" yMin="-26" xMax="515" yMax="1146">
      <contour>
        <pt x="158" y="1055" on="0"/>
        <pt x="265" y="1146" on="0"/>
        <pt x="460" y="1146" on="0"/>
        <pt x="494" y="1100" on="1"/>
        <pt x="515" y="1071" on="0"/>
        <pt x="515" y="998" on="0"/>
        <pt x="508" y="965" on="1"/>
        <pt x="470" y="785" on="0"/>
        <pt x="285" y="785" on="1"/>
        <pt x="188" y="785" on="0"/>
        <pt x="154" y="831" on="1"/>
        <pt x="132" y="861" on="0"/>
        <pt x="132" y="933" on="0"/>
        <pt x="139" y="965" on="1"/>
      </contour>
      <contour>
        <pt x="-14" y="244" on="0"/>
        <pt x="92" y="335" on="0"/>
        <pt x="287" y="335" on="0"/>
        <pt x="321" y="290" on="1"/>
        <pt x="343" y="260" on="0"/>
        <pt x="343" y="186" on="0"/>
        <pt x="336" y="154" on="1"/>
        <pt x="297" y="-26" on="0"/>
        <pt x="112" y="-26" on="1"/>
        <pt x="16" y="-26" on="0"/>
        <pt x="-18" y="20" on="1"/>
        <pt x="-40" y="50" on="0"/>
        <pt x="-40" y="122" on="0"/>
        <pt x="-33" y="154" on="1"/>
      </contour>
    </TTGlyph>
    <TTGlyph name="comma" xMin="-158" yMin="-256" xMax="405" yMax="274">
      <contour>
        <pt x="387" y="274" on="1"/>
        <pt x="405" y="230" on="1"/>
        <pt x="312" y="33" on="0"/>
        <pt x="121" y="-256" on="1"/>
        <pt x="-158" y="-256" on="1"/>
        <pt x="-21" y="45" on="0"/>
        <pt x="62" y="274" on="1"/>
      </contour>
    </TTGlyph>
    <TTGlyph name="copyright" xMin="157" yMin="70" xMax="1511" yMax="1393">
      <contour>
        <pt x="331" y="1062" on="1"/>
        <pt x="452" y="1217" on="0"/>
        <pt x="797" y="1393" on="0"/>
        <pt x="1147" y="1393" on="0"/>
        <pt x="1415" y="1222" on="0"/>
        <pt x="1475" y="1068" on="1"/>
        <pt x="1511" y="975" on="0"/>
        <pt x="1511" y="889" on="1"/>
        <pt x="1511" y="620" on="0"/>
        <pt x="1336" y="400" on="1"/>
        <pt x="1213" y="246" on="0"/>
        <pt x="874" y="70" on="0"/>
        <pt x="511" y="70" on="0"/>
        <pt x="242" y="252" on="0"/>
        <pt x="188" y="404" on="1"/>
        <pt x="157" y="495" on="0"/>
        <pt x="157" y="578" on="1"/>
        <pt x="157" y="840" on="0"/>
      </contour>
      <contour>
        <pt x="1338" y="989" on="1"/>
        <pt x="1296" y="1108" on="0"/>
        <pt x="1086" y="1248" on="0"/>
        <pt x="805" y="1248" on="0"/>
        <pt x="537" y="1111" on="0"/>
        <pt x="346" y="871" on="0"/>
        <pt x="316" y="731" on="1"/>
        <pt x="304" y="675" on="0"/>
        <pt x="304" y="544" on="0"/>
        <pt x="331" y="471" on="1"/>
        <pt x="374" y="350" on="0"/>
        <pt x="587" y="214" on="0"/>
        <pt x="864" y="214" on="0"/>
        <pt x="1132" y="353" on="0"/>
        <pt x="1321" y="590" on="0"/>
        <pt x="1351" y="731" on="1"/>
        <pt x="1363" y="788" on="0"/>
        <pt x="1363" y="919" on="0"/>
      </contour>
      <contour>
        <pt x="777" y="318" on="1"/>
        <pt x="591" y="318" on="0"/>
        <pt x="510" y="427" on="1"/>
        <pt x="459" y="498" on="0"/>
        <pt x="459" y="607" on="1"/>
        <pt x="459" y="666" on="0"/>
        <pt x="474" y="735" on="1"/>
        <pt x="515" y="926" on="0"/>
        <pt x="636" y="1034" on="1"/>
        <pt x="760" y="1142" on="0"/>
        <pt x="942" y="1142" on="1"/>
        <pt x="1088" y="1142" on="0"/>
        <pt x="1211" y="1073" on="1"/>
        <pt x="1091" y="893" on="1"/>
        <pt x="1009" y="942" on="0"/>
        <pt x="917" y="942" on="1"/>
        <pt x="844" y="942" on="0"/>
        <pt x="741" y="834" on="0"/>
        <pt x="720" y="731" on="1"/>
        <pt x="709" y="679" on="0"/>
        <pt x="709" y="637" on="1"/>
        <pt x="709" y="518" on="0"/>
        <pt x="953" y="518" on="0"/>
        <pt x="1071" y="578" on="1"/>
        <pt x="1028" y="375" on="1"/>
        <pt x="905" y="318" on="0"/>
      </contour>
    </TTGlyph>
    <TTGlyph name="currency" xMin="-25" yMin="229" xMax="1104" yMax="1220">
      <contour>
        <pt x="207" y="916" on="1"/>
        <pt x="107" y="1042" on="1"/>
        <pt x="323" y="1220" on="1"/>
        <pt x="428" y="1087" on="1"/>
        <pt x="521" y="1126" on="0"/>
        <pt x="727" y="1126" on="0"/>
        <pt x="798" y="1086" on="1"/>
        <pt x="959" y="1219" on="1"/>
        <pt x="1104" y="1046" on="1"/>
        <pt x="950" y="918" on="1"/>
        <pt x="969" y="862" on="0"/>
        <pt x="969" y="803" on="1"/>
        <pt x="969" y="656" on="0"/>
        <pt x="867" y="528" on="1"/>
        <pt x="964" y="405" on="1"/>
        <pt x="751" y="229" on="1"/>
        <pt x="644" y="361" on="1"/>
        <pt x="551" y="322" on="0"/>
        <pt x="354" y="322" on="0"/>
        <pt x="271" y="358" on="1"/>
        <pt x="113" y="230" on="1"/>
        <pt x="-25" y="407" on="1"/>
        <pt x="125" y="530" on="1"/>
        <pt x="104" y="585" on="0"/>
        <pt x="104" y="645" on="1"/>
        <pt x="104" y="780" on="0"/>
      </contour>
      <contour>
        <pt x="673" y="846" on="1"/>
        <pt x="632" y="897" on="0"/>
        <pt x="516" y="897" on="0"/>
        <pt x="402" y="801" on="0"/>
        <pt x="386" y="723" on="1"/>
        <pt x="380" y="698" on="0"/>
        <pt x="380" y="676" on="1"/>
        <pt x="380" y="632" on="0"/>
        <pt x="404" y="602" on="1"/>
        <pt x="444" y="551" on="0"/>
        <pt x="560" y="551" on="0"/>
        <pt x="674" y="646" on="0"/>
        <pt x="691" y="723" on="1"/>
        <pt x="696" y="748" on="0"/>
        <pt x="696" y="769" on="1"/>
        <pt x="696" y="815" on="0"/>
      </contour>
    </TTGlyph>
    <TTGlyph name="d" xMin="7" yMin="-19" xMax="1126" yMax="1539">
      <contour>
        <pt x="272" y="-19" on="1"/>
        <pt x="200" y="-19" on="0"/>
        <pt x="95" y="34" on="0"/>
        <pt x="38" y="127" on="0"/>
        <pt x="7" y="240" on="0"/>
        <pt x="7" y="307" on="1"/>
        <pt x="7" y="438" on="0"/>
        <pt x="49" y="635" on="0"/>
        <pt x="99" y="784" on="0"/>
        <pt x="182" y="943" on="0"/>
        <pt x="283" y="1059" on="0"/>
        <pt x="429" y="1134" on="0"/>
        <pt x="512" y="1134" on="1"/>
        <pt x="630" y="1134" on="0"/>
        <pt x="688" y="1066" on="1"/>
        <pt x="703" y="1149" on="0"/>
        <pt x="705" y="1160" on="1"/>
        <pt x="786" y="1539" on="1"/>
        <pt x="1126" y="1539" on="1"/>
        <pt x="798" y="0" on="1"/>
        <pt x="530" y="0" on="1"/>
        <pt x="522" y="81" on="1"/>
        <pt x="415" y="-19" on="0"/>
      </contour>
      <contour>
        <pt x="606" y="772" on="1"/>
        <pt x="606" y="870" on="0"/>
        <pt x="542" y="871" on="1"/>
        <pt x="447" y="871" on="0"/>
        <pt x="380" y="551" on="1"/>
        <pt x="352" y="422" on="0"/>
        <pt x="352" y="346" on="1"/>
        <pt x="352" y="240" on="0"/>
        <pt x="410" y="240" on="1"/>
        <pt x="460" y="240" on="0"/>
        <pt x="488" y="282" on="1"/>
        <pt x="504" y="306" on="0"/>
        <pt x="524" y="344" on="0"/>
        <pt x="547" y="427" on="0"/>
        <pt x="556" y="470" on="0"/>
        <pt x="564" y="506" on="1"/>
        <pt x="606" y="694" on="0"/>
      </contour>
    </TTGlyph>
    <TTGlyph name="dagger" xMin="137" yMin="0" xMax="984" yMax="1556">
      <contour>
        <pt x="647" y="1139" on="1"/>
        <pt x="984" y="1169" on="1"/>
        <pt x="935" y="940" on="1"/>
        <pt x="611" y="971" on="1"/>
        <pt x="460" y="0" on="1"/>
        <pt x="194" y="0" on="1"/>
        <pt x="455" y="971" on="1"/>
        <pt x="137" y="940" on="1"/>
        <pt x="186" y="1169" on="1"/>
        <pt x="491" y="1139" on="1"/>
        <pt x="524" y="1556" on="1"/>
        <pt x="790" y="1556" on="1"/>
      </contour>
    </TTGlyph>
    <TTGlyph name="daggerdbl" xMin="0" yMin="0" xMax="1004" yMax="1556">
      <contour>
        <pt x="665" y="1180" on="1"/>
        <pt x="1004" y="1210" on="1"/>
        <pt x="955" y="981" on="1"/>
        <pt x="629" y="1012" on="1"/>
        <pt x="629" y="786" on="1"/>
        <pt x="530" y="545" on="1"/>
        <pt x="869" y="575" on="1"/>
        <pt x="820" y="346" on="1"/>
        <pt x="495" y="377" on="1"/>
        <pt x="470" y="0" on="1"/>
        <pt x="204" y="0" on="1"/>
        <pt x="339" y="377" on="1"/>
        <pt x="0" y="346" on="1"/>
        <pt x="49" y="575" on="1"/>
        <pt x="374" y="545" on="1"/>
        <pt x="379" y="786" on="1"/>
        <pt x="474" y="1012" on="1"/>
        <pt x="135" y="981" on="1"/>
        <pt x="184" y="1210" on="1"/>
        <pt x="509" y="1180" on="1"/>
        <pt x="534" y="1556" on="1"/>
        <pt x="800" y="1556" on="1"/>
      </contour>
    </TTGlyph>
    <TTGlyph name="daletdageshhb" xMin="111" yMin="0" xMax="1025" yMax="1290">
      <contour>
        <pt x="1025" y="1290" on="1"/>
        <pt x="977" y="1062" on="1"/>
        <pt x="817" y="1008" on="0"/>
        <pt x="775" y="811" on="1"/>
        <pt x="603" y="0" on="1"/>
        <pt x="260" y="0" on="1"/>
        <pt x="434" y="818" on="1"/>
        <pt x="464" y="960" on="0"/>
        <pt x="591" y="1039" on="1"/>
        <pt x="111" y="1039" on="1"/>
        <pt x="164" y="1290" on="1"/>
      </contour>
      <contour>
        <pt x="224" y="722" on="1"/>
        <pt x="257" y="722" on="0"/>
        <pt x="283" y="692" on="0"/>
        <pt x="283" y="679" on="1"/>
        <pt x="283" y="634" on="0"/>
        <pt x="229" y="592" on="0"/>
        <pt x="163" y="592" on="0"/>
        <pt x="138" y="621" on="0"/>
        <pt x="138" y="647" on="0"/>
        <pt x="140" y="657" on="1"/>
        <pt x="155" y="722" on="0"/>
      </contour>
    </TTGlyph>
    <TTGlyph name="degree" xMin="44" yMin="783" xMax="761" yMax="1482">
      <contour>
        <pt x="331" y="1482" on="0"/>
        <pt x="621" y="1482" on="0"/>
        <pt x="702" y="1380" on="1"/>
        <pt x="761" y="1305" on="0"/>
        <pt x="761" y="1209" on="1"/>
        <pt x="761" y="1172" on="0"/>
        <pt x="752" y="1132" on="1"/>
        <pt x="721" y="987" on="0"/>
        <pt x="473" y="783" on="0"/>
        <pt x="183" y="783" on="0"/>
        <pt x="102" y="885" on="1"/>
        <pt x="44" y="959" on="0"/>
        <pt x="44" y="1055" on="1"/>
        <pt x="44" y="1092" on="0"/>
        <pt x="53" y="1132" on="1"/>
        <pt x="84" y="1277" on="0"/>
      </contour>
      <contour>
        <pt x="488" y="1269" on="0"/>
        <pt x="374" y="1269" on="0"/>
        <pt x="326" y="1229" on="1"/>
        <pt x="262" y="1176" on="0"/>
        <pt x="262" y="1102" on="1"/>
        <pt x="262" y="1064" on="0"/>
        <pt x="284" y="1035" on="1"/>
        <pt x="316" y="995" on="0"/>
        <pt x="430" y="995" on="0"/>
        <pt x="478" y="1035" on="1"/>
        <pt x="542" y="1088" on="0"/>
        <pt x="542" y="1162" on="1"/>
        <pt x="542" y="1200" on="0"/>
        <pt x="520" y="1229" on="1"/>
      </contour>
    </TTGlyph>
    <TTGlyph name="dieresis" xMin="193" yMin="1275" xMax="928" yMax="1554">
      <contour>
        <pt x="211" y="1480" on="0"/>
        <pt x="307" y="1554" on="0"/>
        <pt x="449" y="1554" on="0"/>
        <pt x="482" y="1516" on="1"/>
        <pt x="505" y="1488" on="0"/>
        <pt x="505" y="1449" on="1"/>
        <pt x="505" y="1432" on="0"/>
        <pt x="501" y="1413" on="1"/>
        <pt x="487" y="1350" on="0"/>
        <pt x="389" y="1275" on="0"/>
        <pt x="247" y="1275" on="0"/>
        <pt x="215" y="1312" on="1"/>
        <pt x="193" y="1337" on="0"/>
        <pt x="193" y="1376" on="1"/>
        <pt x="193" y="1393" on="0"/>
        <pt x="197" y="1413" on="1"/>
      </contour>
      <contour>
        <pt x="634" y="1480" on="0"/>
        <pt x="730" y="1554" on="0"/>
        <pt x="872" y="1554" on="0"/>
        <pt x="905" y="1516" on="1"/>
        <pt x="928" y="1488" on="0"/>
        <pt x="928" y="1449" on="1"/>
        <pt x="928" y="1432" on="0"/>
        <pt x="924" y="1413" on="1"/>
        <pt x="910" y="1350" on="0"/>
        <pt x="812" y="1275" on="0"/>
        <pt x="670" y="1275" on="0"/>
        <pt x="638" y="1312" on="1"/>
        <pt x="616" y="1337" on="0"/>
        <pt x="616" y="1376" on="1"/>
        <pt x="616" y="1393" on="0"/>
        <pt x="620" y="1413" on="1"/>
      </contour>
    </TTGlyph>
    <TTGlyph name="divide" xMin="31" yMin="220" xMax="853" yMax="1224">
      <contour>
        <pt x="547" y="1224" on="1"/>
        <pt x="680" y="1224" on="0"/>
        <pt x="680" y="1112" on="1"/>
        <pt x="680" y="1089" on="0"/>
        <pt x="674" y="1061" on="1"/>
        <pt x="658" y="986" on="0"/>
        <pt x="554" y="899" on="0"/>
        <pt x="403" y="899" on="0"/>
        <pt x="367" y="939" on="1"/>
        <pt x="343" y="966" on="0"/>
        <pt x="343" y="1013" on="1"/>
        <pt x="343" y="1035" on="0"/>
        <pt x="348" y="1061" on="1"/>
        <pt x="382" y="1224" on="0"/>
      </contour>
      <contour>
        <pt x="801" y="600" on="1"/>
        <pt x="31" y="600" on="1"/>
        <pt x="83" y="844" on="1"/>
        <pt x="853" y="844" on="1"/>
      </contour>
      <contour>
        <pt x="403" y="546" on="1"/>
        <pt x="483" y="546" on="0"/>
        <pt x="515" y="504" on="1"/>
        <pt x="536" y="477" on="0"/>
        <pt x="536" y="443" on="1"/>
        <pt x="536" y="326" on="0"/>
        <pt x="461" y="264" on="1"/>
        <pt x="409" y="220" on="0"/>
        <pt x="258" y="220" on="0"/>
        <pt x="222" y="260" on="1"/>
        <pt x="198" y="288" on="0"/>
        <pt x="198" y="333" on="1"/>
        <pt x="198" y="356" on="0"/>
        <pt x="204" y="383" on="1"/>
        <pt x="238" y="546" on="0"/>
      </contour>
    </TTGlyph>
    <TTGlyph name="dollar" xMin="-45" yMin="-116" xMax="1020" yMax="1554">
      <contour>
        <pt x="595" y="1145" on="1"/>
        <pt x="459" y="1145" on="0"/>
        <pt x="434" y="1036" on="1"/>
        <pt x="433" y="1029" on="0"/>
        <pt x="433" y="998" on="0"/>
        <pt x="466" y="940" on="0"/>
        <pt x="508" y="917" on="1"/>
        <pt x="743" y="789" on="1"/>
        <pt x="884" y="712" on="0"/>
        <pt x="884" y="544" on="1"/>
        <pt x="884" y="505" on="0"/>
        <pt x="875" y="464" on="1"/>
        <pt x="842" y="307" on="0"/>
        <pt x="630" y="117" on="0"/>
        <pt x="460" y="93" on="1"/>
        <pt x="416" y="-116" on="1"/>
        <pt x="225" y="-116" on="1"/>
        <pt x="267" y="86" on="1"/>
        <pt x="91" y="98" on="0"/>
        <pt x="-45" y="179" on="1"/>
        <pt x="18" y="473" on="1"/>
        <pt x="251" y="317" on="0"/>
        <pt x="412" y="317" on="1"/>
        <pt x="495" y="317" on="0"/>
        <pt x="535" y="370" on="1"/>
        <pt x="566" y="411" on="0"/>
        <pt x="576" y="458" on="1"/>
        <pt x="579" y="470" on="0"/>
        <pt x="579" y="482" on="1"/>
        <pt x="579" y="525" on="0"/>
        <pt x="538" y="549" on="1"/>
        <pt x="374" y="645" on="1"/>
        <pt x="264" y="705" on="0"/>
        <pt x="216" y="753" on="1"/>
        <pt x="166" y="803" on="0"/>
        <pt x="139" y="870" on="0"/>
        <pt x="133" y="900" on="1"/>
        <pt x="121" y="958" on="0"/>
        <pt x="137" y="1036" on="1"/>
        <pt x="168" y="1182" on="0"/>
        <pt x="380" y="1366" on="0"/>
        <pt x="545" y="1392" on="1"/>
        <pt x="579" y="1554" on="1"/>
        <pt x="770" y="1554" on="1"/>
        <pt x="737" y="1396" on="1"/>
        <pt x="884" y="1378" on="0"/>
        <pt x="1020" y="1301" on="1"/>
        <pt x="874" y="1053" on="1"/>
        <pt x="866" y="1057" on="0"/>
        <pt x="804" y="1091" on="0"/>
        <pt x="782" y="1102" on="0"/>
        <pt x="725" y="1127" on="0"/>
        <pt x="705" y="1132" on="1"/>
        <pt x="645" y="1145" on="0"/>
      </contour>
    </TTGlyph>
    <TTGlyph name="dotaccent" xMin="116" yMin="1262" xMax="433" yMax="1548">
      <contour>
        <pt x="305" y="1548" on="1"/>
        <pt x="433" y="1548" on="0"/>
        <pt x="433" y="1448" on="1"/>
        <pt x="433" y="1428" on="0"/>
        <pt x="428" y="1405" on="1"/>
        <pt x="413" y="1335" on="0"/>
        <pt x="319" y="1262" on="0"/>
        <pt x="245" y="1262" on="1"/>
        <pt x="116" y="1262" on="0"/>
        <pt x="116" y="1362" on="1"/>
        <pt x="116" y="1382" on="0"/>
        <pt x="121" y="1405" on="1"/>
        <pt x="151" y="1548" on="0"/>
      </contour>
    </TTGlyph>
    <TTGlyph name="dotlessi" xMin="20" yMin="0" xMax="597" yMax="1114">
      <contour>
        <pt x="361" y="0" on="1"/>
        <pt x="20" y="0" on="1"/>
        <pt x="256" y="1114" on="1"/>
        <pt x="597" y="1114" on="1"/>
      </contour>
    </TTGlyph>
    <TTGlyph name="e" xMin="54" yMin="-19" xMax="970" yMax="1134">
      <contour>
        <pt x="428" y="-19" on="1"/>
        <pt x="330" y="-19" on="0"/>
        <pt x="182" y="43" on="0"/>
        <pt x="139" y="96" on="1"/>
        <pt x="54" y="202" on="0"/>
        <pt x="54" y="370" on="1"/>
        <pt x="54" y="454" on="0"/>
        <pt x="94" y="642" on="0"/>
        <pt x="158" y="807" on="0"/>
        <pt x="256" y="959" on="0"/>
        <pt x="379" y="1069" on="0"/>
        <pt x="544" y="1134" on="0"/>
        <pt x="719" y="1134" on="0"/>
        <pt x="840" y="1093" on="0"/>
        <pt x="911" y="1029" on="0"/>
        <pt x="934" y="983" on="1"/>
        <pt x="970" y="908" on="0"/>
        <pt x="970" y="807" on="1"/>
        <pt x="970" y="729" on="0"/>
        <pt x="950" y="628" on="1"/>
        <pt x="916" y="470" on="1"/>
        <pt x="402" y="470" on="1"/>
        <pt x="395" y="423" on="0"/>
        <pt x="395" y="386" on="1"/>
        <pt x="395" y="230" on="0"/>
        <pt x="521" y="230" on="1"/>
        <pt x="630" y="230" on="0"/>
        <pt x="843" y="343" on="1"/>
        <pt x="785" y="70" on="1"/>
        <pt x="618" y="-19" on="0"/>
      </contour>
      <contour>
        <pt x="639" y="801" on="1"/>
        <pt x="639" y="895" on="0"/>
        <pt x="586" y="895" on="1"/>
        <pt x="508" y="895" on="0"/>
        <pt x="455" y="699" on="1"/>
        <pt x="628" y="699" on="1"/>
        <pt x="639" y="760" on="0"/>
      </contour>
    </TTGlyph>
    <TTGlyph name="eacute" xMin="-40" yMin="-19" xMax="1027" yMax="1566">
      <contour>
        <pt x="1027" y="1566" on="1"/>
        <pt x="1024" y="1548" on="1"/>
        <pt x="929" y="1484" on="0"/>
        <pt x="656" y="1315" on="0"/>
        <pt x="586" y="1278" on="1"/>
        <pt x="358" y="1278" on="1"/>
        <pt x="364" y="1303" on="1"/>
        <pt x="539" y="1457" on="0"/>
        <pt x="627" y="1539" on="0"/>
        <pt x="651" y="1566" on="1"/>
      </contour>
      <contour>
        <pt x="335" y="-19" on="1"/>
        <pt x="237" y="-19" on="0"/>
        <pt x="89" y="43" on="0"/>
        <pt x="46" y="96" on="1"/>
        <pt x="-40" y="203" on="0"/>
        <pt x="-40" y="374" on="1"/>
        <pt x="-40" y="540" on="0"/>
        <pt x="32" y="724" on="1"/>
        <pt x="102" y="906" on="0"/>
        <pt x="224" y="1014" on="1"/>
        <pt x="285" y="1069" on="0"/>
        <pt x="450" y="1134" on="0"/>
        <pt x="625" y="1134" on="0"/>
        <pt x="746" y="1093" on="0"/>
        <pt x="817" y="1029" on="0"/>
        <pt x="840" y="983" on="1"/>
        <pt x="876" y="908" on="0"/>
        <pt x="876" y="807" on="1"/>
        <pt x="876" y="729" on="0"/>
        <pt x="856" y="628" on="1"/>
        <pt x="822" y="470" on="1"/>
        <pt x="308" y="470" on="1"/>
        <pt x="301" y="423" on="0"/>
        <pt x="301" y="386" on="1"/>
        <pt x="301" y="230" on="0"/>
        <pt x="427" y="230" on="1"/>
        <pt x="536" y="230" on="0"/>
        <pt x="749" y="343" on="1"/>
        <pt x="691" y="70" on="1"/>
        <pt x="524" y="-19" on="0"/>
      </contour>
      <contour>
        <pt x="545" y="801" on="1"/>
        <pt x="545" y="895" on="0"/>
        <pt x="492" y="895" on="1"/>
        <pt x="414" y="895" on="0"/>
        <pt x="361" y="699" on="1"/>
        <pt x="534" y="699" on="1"/>
        <pt x="545" y="760" on="0"/>
      </contour>
    </TTGlyph>
    <TTGlyph name="ecircumflex" xMin="-40" yMin="-19" xMax="981" yMax="1567">
      <contour>
        <pt x="465" y="1567" on="1"/>
        <pt x="811" y="1567" on="1"/>
        <pt x="868" y="1447" on="0"/>
        <pt x="981" y="1304" on="1"/>
        <pt x="975" y="1279" on="1"/>
        <pt x="751" y="1279" on="1"/>
        <pt x="689" y="1319" on="0"/>
        <pt x="602" y="1411" on="1"/>
        <pt x="472" y="1316" on="0"/>
        <pt x="403" y="1279" on="1"/>
        <pt x="176" y="1279" on="1"/>
        <pt x="182" y="1304" on="1"/>
        <pt x="246" y="1354" on="0"/>
        <pt x="415" y="1511" on="0"/>
      </contour>
      <contour>
        <pt x="334" y="-19" on="1"/>
        <pt x="236" y="-19" on="0"/>
        <pt x="88" y="43" on="0"/>
        <pt x="45" y="96" on="1"/>
        <pt x="-40" y="202" on="0"/>
        <pt x="-40" y="370" on="1"/>
        <pt x="-40" y="454" on="0"/>
        <pt x="0" y="642" on="0"/>
        <pt x="64" y="807" on="0"/>
        <pt x="162" y="959" on="0"/>
        <pt x="285" y="1069" on="0"/>
        <pt x="450" y="1134" on="0"/>
        <pt x="625" y="1134" on="0"/>
        <pt x="746" y="1093" on="0"/>
        <pt x="817" y="1029" on="0"/>
        <pt x="840" y="983" on="1"/>
        <pt x="876" y="908" on="0"/>
        <pt x="876" y="807" on="1"/>
        <pt x="876" y="729" on="0"/>
        <pt x="856" y="628" on="1"/>
        <pt x="822" y="470" on="1"/>
        <pt x="308" y="470" on="1"/>
        <pt x="301" y="423" on="0"/>
        <pt x="301" y="386" on="1"/>
        <pt x="301" y="230" on="0"/>
        <pt x="427" y="230" on="1"/>
        <pt x="536" y="230" on="0"/>
        <pt x="749" y="343" on="1"/>
        <pt x="691" y="70" on="1"/>
        <pt x="524" y="-19" on="0"/>
      </contour>
      <contour>
        <pt x="545" y="801" on="1"/>
        <pt x="545" y="895" on="0"/>
        <pt x="492" y="895" on="1"/>
        <pt x="414" y="895" on="0"/>
        <pt x="361" y="699" on="1"/>
        <pt x="534" y="699" on="1"/>
        <pt x="545" y="760" on="0"/>
      </contour>
    </TTGlyph>
    <TTGlyph name="edieresis" xMin="-38" yMin="-19" xMax="988" yMax="1554">
      <contour>
        <pt x="271" y="1480" on="0"/>
        <pt x="367" y="1554" on="0"/>
        <pt x="509" y="1554" on="0"/>
        <pt x="542" y="1516" on="1"/>
        <pt x="565" y="1488" on="0"/>
        <pt x="565" y="1449" on="1"/>
        <pt x="565" y="1432" on="0"/>
        <pt x="561" y="1413" on="1"/>
        <pt x="548" y="1350" on="0"/>
        <pt x="450" y="1275" on="0"/>
        <pt x="308" y="1275" on="0"/>
        <pt x="276" y="1312" on="1"/>
        <pt x="253" y="1337" on="0"/>
        <pt x="253" y="1376" on="1"/>
        <pt x="253" y="1393" on="0"/>
        <pt x="257" y="1413" on="1"/>
      </contour>
      <contour>
        <pt x="694" y="1480" on="0"/>
        <pt x="790" y="1554" on="0"/>
        <pt x="932" y="1554" on="0"/>
        <pt x="965" y="1516" on="1"/>
        <pt x="988" y="1488" on="0"/>
        <pt x="988" y="1449" on="1"/>
        <pt x="988" y="1432" on="0"/>
        <pt x="984" y="1413" on="1"/>
        <pt x="971" y="1350" on="0"/>
        <pt x="873" y="1275" on="0"/>
        <pt x="731" y="1275" on="0"/>
        <pt x="698" y="1312" on="1"/>
        <pt x="676" y="1337" on="0"/>
        <pt x="676" y="1376" on="1"/>
        <pt x="676" y="1393" on="0"/>
        <pt x="680" y="1413" on="1"/>
      </contour>
      <contour>
        <pt x="336" y="-19" on="1"/>
        <pt x="238" y="-19" on="0"/>
        <pt x="90" y="43" on="0"/>
        <pt x="47" y="96" on="1"/>
        <pt x="-38" y="202" on="0"/>
        <pt x="-38" y="370" on="1"/>
        <pt x="-38" y="537" on="0"/>
        <pt x="34" y="724" on="1"/>
        <pt x="102" y="905" on="0"/>
        <pt x="224" y="1014" on="1"/>
        <pt x="286" y="1069" on="0"/>
        <pt x="451" y="1134" on="0"/>
        <pt x="626" y="1134" on="0"/>
        <pt x="747" y="1093" on="0"/>
        <pt x="818" y="1029" on="0"/>
        <pt x="840" y="983" on="1"/>
        <pt x="877" y="908" on="0"/>
        <pt x="877" y="807" on="1"/>
        <pt x="877" y="729" on="0"/>
        <pt x="857" y="628" on="1"/>
        <pt x="824" y="470" on="1"/>
        <pt x="310" y="470" on="1"/>
        <pt x="302" y="422" on="0"/>
        <pt x="302" y="383" on="1"/>
        <pt x="302" y="230" on="0"/>
        <pt x="429" y="230" on="1"/>
        <pt x="538" y="230" on="0"/>
        <pt x="751" y="343" on="1"/>
        <pt x="693" y="70" on="1"/>
        <pt x="524" y="-19" on="0"/>
      </contour>
      <contour>
        <pt x="546" y="801" on="1"/>
        <pt x="546" y="895" on="0"/>
        <pt x="493" y="895" on="1"/>
        <pt x="415" y="895" on="0"/>
        <pt x="362" y="699" on="1"/>
        <pt x="535" y="699" on="1"/>
        <pt x="546" y="760" on="0"/>
      </contour>
    </TTGlyph>
    <TTGlyph name="egrave" xMin="-40" yMin="-19" xMax="876" yMax="1567">
      <contour>
        <pt x="260" y="1567" on="1"/>
        <pt x="638" y="1567" on="1"/>
        <pt x="674" y="1499" on="0"/>
        <pt x="773" y="1362" on="1"/>
        <pt x="812" y="1304" on="1"/>
        <pt x="806" y="1279" on="1"/>
        <pt x="578" y="1279" on="1"/>
        <pt x="527" y="1315" on="0"/>
        <pt x="343" y="1468" on="0"/>
        <pt x="256" y="1549" on="1"/>
      </contour>
      <contour>
        <pt x="334" y="-19" on="1"/>
        <pt x="236" y="-19" on="0"/>
        <pt x="88" y="43" on="0"/>
        <pt x="45" y="96" on="1"/>
        <pt x="-40" y="202" on="0"/>
        <pt x="-40" y="370" on="1"/>
        <pt x="-40" y="454" on="0"/>
        <pt x="0" y="642" on="0"/>
        <pt x="64" y="807" on="0"/>
        <pt x="162" y="959" on="0"/>
        <pt x="285" y="1069" on="0"/>
        <pt x="450" y="1134" on="0"/>
        <pt x="625" y="1134" on="0"/>
        <pt x="746" y="1093" on="0"/>
        <pt x="817" y="1029" on="0"/>
        <pt x="840" y="983" on="1"/>
        <pt x="876" y="908" on="0"/>
        <pt x="876" y="807" on="1"/>
        <pt x="876" y="729" on="0"/>
        <pt x="856" y="628" on="1"/>
        <pt x="822" y="470" on="1"/>
        <pt x="308" y="470" on="1"/>
        <pt x="301" y="423" on="0"/>
        <pt x="301" y="386" on="1"/>
        <pt x="301" y="230" on="0"/>
        <pt x="427" y="230" on="1"/>
        <pt x="536" y="230" on="0"/>
        <pt x="749" y="343" on="1"/>
        <pt x="691" y="70" on="1"/>
        <pt x="524" y="-19" on="0"/>
      </contour>
      <contour>
        <pt x="545" y="801" on="1"/>
        <pt x="545" y="895" on="0"/>
        <pt x="492" y="895" on="1"/>
        <pt x="414" y="895" on="0"/>
        <pt x="361" y="699" on="1"/>
        <pt x="534" y="699" on="1"/>
        <pt x="545" y="760" on="0"/>
      </contour>
    </TTGlyph>
    <TTGlyph name="eight" xMin="-24" yMin="-19" xMax="991" yMax="1480">
      <contour>
        <pt x="655" y="1480" on="1"/>
        <pt x="831" y="1480" on="0"/>
        <pt x="924" y="1374" on="1"/>
        <pt x="991" y="1298" on="0"/>
        <pt x="991" y="1189" on="1"/>
        <pt x="991" y="1146" on="0"/>
        <pt x="981" y="1099" on="1"/>
        <pt x="961" y="1001" on="0"/>
        <pt x="837" y="849" on="0"/>
        <pt x="715" y="773" on="1"/>
        <pt x="864" y="639" on="0"/>
        <pt x="864" y="469" on="1"/>
        <pt x="864" y="427" on="0"/>
        <pt x="855" y="382" on="1"/>
        <pt x="815" y="194" on="0"/>
        <pt x="524" y="-19" on="0"/>
        <pt x="141" y="-19" on="0"/>
        <pt x="44" y="88" on="1"/>
        <pt x="-24" y="163" on="0"/>
        <pt x="-24" y="279" on="1"/>
        <pt x="-24" y="327" on="0"/>
        <pt x="-12" y="382" on="1"/>
        <pt x="36" y="610" on="0"/>
        <pt x="277" y="762" on="1"/>
        <pt x="201" y="840" on="0"/>
        <pt x="172" y="918" on="1"/>
        <pt x="156" y="962" on="0"/>
        <pt x="156" y="1008" on="1"/>
        <pt x="156" y="1175" on="0"/>
        <pt x="266" y="1302" on="1"/>
        <pt x="344" y="1390" on="0"/>
        <pt x="548" y="1480" on="0"/>
      </contour>
      <contour>
        <pt x="601" y="1233" on="1"/>
        <pt x="533" y="1233" on="0"/>
        <pt x="503" y="1099" on="1"/>
        <pt x="497" y="1071" on="0"/>
        <pt x="497" y="1045" on="1"/>
        <pt x="497" y="976" on="0"/>
        <pt x="539" y="926" on="1"/>
        <pt x="621" y="992" on="0"/>
        <pt x="643" y="1099" on="1"/>
        <pt x="651" y="1138" on="0"/>
        <pt x="651" y="1165" on="1"/>
        <pt x="651" y="1233" on="0"/>
      </contour>
      <contour>
        <pt x="315" y="314" on="1"/>
        <pt x="315" y="230" on="0"/>
        <pt x="386" y="230" on="1"/>
        <pt x="485" y="230" on="0"/>
        <pt x="518" y="382" on="1"/>
        <pt x="526" y="422" on="0"/>
        <pt x="526" y="485" on="0"/>
        <pt x="518" y="508" on="1"/>
        <pt x="501" y="556" on="0"/>
        <pt x="455" y="609" on="1"/>
        <pt x="356" y="531" on="0"/>
        <pt x="324" y="382" on="1"/>
        <pt x="315" y="343" on="0"/>
      </contour>
    </TTGlyph>
    <TTGlyph name="ellipsis" xMin="95" yMin="-27" xMax="1544" yMax="301">
      <contour>
        <pt x="220" y="301" on="0"/>
        <pt x="382" y="301" on="0"/>
        <pt x="416" y="258" on="1"/>
        <pt x="438" y="230" on="0"/>
        <pt x="438" y="186" on="1"/>
        <pt x="438" y="164" on="0"/>
        <pt x="432" y="137" on="1"/>
        <pt x="416" y="59" on="0"/>
        <pt x="310" y="-27" on="0"/>
        <pt x="151" y="-27" on="0"/>
        <pt x="118" y="16" on="1"/>
        <pt x="95" y="45" on="0"/>
        <pt x="95" y="88" on="1"/>
        <pt x="95" y="111" on="0"/>
        <pt x="101" y="137" on="1"/>
        <pt x="118" y="216" on="0"/>
      </contour>
      <contour>
        <pt x="773" y="301" on="0"/>
        <pt x="935" y="301" on="0"/>
        <pt x="968" y="258" on="1"/>
        <pt x="991" y="230" on="0"/>
        <pt x="991" y="186" on="1"/>
        <pt x="991" y="164" on="0"/>
        <pt x="985" y="137" on="1"/>
        <pt x="969" y="59" on="0"/>
        <pt x="863" y="-27" on="0"/>
        <pt x="704" y="-27" on="0"/>
        <pt x="670" y="16" on="1"/>
        <pt x="648" y="45" on="0"/>
        <pt x="648" y="88" on="1"/>
        <pt x="648" y="111" on="0"/>
        <pt x="654" y="137" on="1"/>
        <pt x="671" y="216" on="0"/>
      </contour>
      <contour>
        <pt x="1326" y="301" on="0"/>
        <pt x="1488" y="301" on="0"/>
        <pt x="1522" y="258" on="1"/>
        <pt x="1544" y="230" on="0"/>
        <pt x="1544" y="186" on="1"/>
        <pt x="1544" y="164" on="0"/>
        <pt x="1538" y="137" on="1"/>
        <pt x="1522" y="59" on="0"/>
        <pt x="1416" y="-27" on="0"/>
        <pt x="1257" y="-27" on="0"/>
        <pt x="1224" y="16" on="1"/>
        <pt x="1201" y="45" on="0"/>
        <pt x="1201" y="88" on="1"/>
        <pt x="1201" y="111" on="0"/>
        <pt x="1207" y="137" on="1"/>
        <pt x="1224" y="216" on="0"/>
      </contour>
    </TTGlyph>
    <TTGlyph name="emdash" xMin="0" yMin="429" xMax="1534" yMax="682">
      <contour>
        <pt x="1480" y="429" on="1"/>
        <pt x="0" y="429" on="1"/>
        <pt x="54" y="682" on="1"/>
        <pt x="1534" y="682" on="1"/>
      </contour>
    </TTGlyph>
    <TTGlyph name="endash" xMin="-5" yMin="429" xMax="943" yMax="682">
      <contour>
        <pt x="889" y="429" on="1"/>
        <pt x="-5" y="429" on="1"/>
        <pt x="49" y="682" on="1"/>
        <pt x="943" y="682" on="1"/>
      </contour>
    </TTGlyph>
    <TTGlyph name="equal" xMin="-9" yMin="410" xMax="893" yMax="1033">
      <contour>
        <pt x="842" y="791" on="1"/>
        <pt x="72" y="791" on="1"/>
        <pt x="123" y="1033" on="1"/>
        <pt x="893" y="1033" on="1"/>
      </contour>
      <contour>
        <pt x="761" y="410" on="1"/>
        <pt x="-9" y="410" on="1"/>
        <pt x="42" y="653" on="1"/>
        <pt x="812" y="653" on="1"/>
      </contour>
    </TTGlyph>
    <TTGlyph name="eth" xMin="-51" yMin="-19" xMax="989" yMax="1572">
      <contour>
        <pt x="931" y="843" on="1"/>
        <pt x="931" y="716" on="0"/>
        <pt x="900" y="569" on="1"/>
        <pt x="843" y="301" on="0"/>
        <pt x="690" y="140" on="1"/>
        <pt x="691" y="140" on="1"/>
        <pt x="541" y="-19" on="0"/>
        <pt x="95" y="-19" on="0"/>
        <pt x="9" y="118" on="1"/>
        <pt x="-51" y="212" on="0"/>
        <pt x="-51" y="340" on="1"/>
        <pt x="-51" y="408" on="0"/>
        <pt x="-34" y="486" on="1"/>
        <pt x="15" y="717" on="0"/>
        <pt x="150" y="858" on="1"/>
        <pt x="285" y="996" on="0"/>
        <pt x="488" y="996" on="1"/>
        <pt x="559" y="996" on="0"/>
        <pt x="612" y="965" on="1"/>
        <pt x="592" y="1055" on="0"/>
        <pt x="542" y="1132" on="1"/>
        <pt x="293" y="988" on="1"/>
        <pt x="209" y="1174" on="1"/>
        <pt x="416" y="1289" on="1"/>
        <pt x="359" y="1334" on="0"/>
        <pt x="291" y="1377" on="1"/>
        <pt x="449" y="1572" on="1"/>
        <pt x="602" y="1483" on="0"/>
        <pt x="666" y="1429" on="1"/>
        <pt x="706" y="1452" on="0"/>
        <pt x="876" y="1554" on="0"/>
        <pt x="907" y="1572" on="1"/>
        <pt x="989" y="1386" on="1"/>
        <pt x="804" y="1282" on="1"/>
        <pt x="931" y="1101" on="0"/>
      </contour>
      <contour>
        <pt x="298" y="361" on="1"/>
        <pt x="298" y="241" on="0"/>
        <pt x="374" y="241" on="1"/>
        <pt x="432" y="241" on="0"/>
        <pt x="515" y="384" on="0"/>
        <pt x="546" y="531" on="1"/>
        <pt x="558" y="588" on="0"/>
        <pt x="558" y="627" on="1"/>
        <pt x="558" y="750" on="0"/>
        <pt x="484" y="750" on="1"/>
        <pt x="424" y="750" on="0"/>
        <pt x="342" y="621" on="0"/>
        <pt x="313" y="486" on="1"/>
        <pt x="298" y="413" on="0"/>
      </contour>
    </TTGlyph>
    <TTGlyph name="exclam" xMin="-53" yMin="-26" xMax="634" yMax="1462">
      <contour>
        <pt x="369" y="457" on="1"/>
        <pt x="73" y="457" on="1"/>
        <pt x="237" y="1462" on="1"/>
        <pt x="634" y="1462" on="1"/>
      </contour>
      <contour>
        <pt x="94" y="335" on="0"/>
        <pt x="294" y="335" on="0"/>
        <pt x="336" y="288" on="1"/>
        <pt x="365" y="256" on="0"/>
        <pt x="365" y="205" on="1"/>
        <pt x="365" y="181" on="0"/>
        <pt x="359" y="154" on="1"/>
        <pt x="341" y="69" on="0"/>
        <pt x="214" y="-26" on="0"/>
        <pt x="18" y="-26" on="0"/>
        <pt x="-24" y="21" on="1"/>
        <pt x="-53" y="54" on="0"/>
        <pt x="-53" y="106" on="1"/>
        <pt x="-53" y="128" on="0"/>
        <pt x="-48" y="154" on="1"/>
        <pt x="-29" y="241" on="0"/>
      </contour>
    </TTGlyph>
    <TTGlyph name="exclamdown" xMin="-98" yMin="-358" xMax="591" yMax="1128">
      <contour>
        <pt x="197" y="1033" on="0"/>
        <pt x="324" y="1128" on="0"/>
        <pt x="518" y="1128" on="0"/>
        <pt x="561" y="1080" on="1"/>
        <pt x="591" y="1048" on="0"/>
        <pt x="591" y="996" on="1"/>
        <pt x="591" y="973" on="0"/>
        <pt x="585" y="947" on="1"/>
        <pt x="567" y="861" on="0"/>
        <pt x="441" y="768" on="0"/>
        <pt x="245" y="768" on="0"/>
        <pt x="202" y="814" on="1"/>
        <pt x="173" y="847" on="0"/>
        <pt x="173" y="899" on="1"/>
        <pt x="173" y="921" on="0"/>
        <pt x="178" y="947" on="1"/>
      </contour>
      <contour>
        <pt x="303" y="-358" on="1"/>
        <pt x="-98" y="-358" on="1"/>
        <pt x="166" y="646" on="1"/>
        <pt x="465" y="646" on="1"/>
      </contour>
    </TTGlyph>
    <TTGlyph name="f" xMin="-6" yMin="0" xMax="905" yMax="1550">
      <contour>
        <pt x="679" y="1550" on="1"/>
        <pt x="799" y="1550" on="0"/>
        <pt x="905" y="1492" on="1"/>
        <pt x="769" y="1248" on="1"/>
        <pt x="688" y="1292" on="0"/>
        <pt x="652" y="1292" on="1"/>
        <pt x="610" y="1292" on="0"/>
        <pt x="584" y="1172" on="1"/>
        <pt x="572" y="1114" on="1"/>
        <pt x="749" y="1114" on="1"/>
        <pt x="697" y="869" on="1"/>
        <pt x="520" y="869" on="1"/>
        <pt x="335" y="0" on="1"/>
        <pt x="-6" y="0" on="1"/>
        <pt x="179" y="869" on="1"/>
        <pt x="55" y="869" on="1"/>
        <pt x="88" y="1024" on="1"/>
        <pt x="228" y="1101" on="1"/>
        <pt x="244" y="1176" on="1"/>
        <pt x="285" y="1368" on="0"/>
        <pt x="494" y="1550" on="0"/>
      </contour>
    </TTGlyph>
    <TTGlyph name="fi" xMin="-59" yMin="0" xMax="1159" yMax="1550">
      <contour>
        <pt x="1008" y="1532" on="1"/>
        <pt x="1091" y="1532" on="0"/>
        <pt x="1130" y="1489" on="1"/>
        <pt x="1159" y="1458" on="0"/>
        <pt x="1159" y="1413" on="1"/>
        <pt x="1159" y="1394" on="0"/>
        <pt x="1154" y="1373" on="1"/>
        <pt x="1139" y="1299" on="0"/>
        <pt x="1021" y="1214" on="0"/>
        <pt x="856" y="1214" on="0"/>
        <pt x="816" y="1256" on="1"/>
        <pt x="786" y="1286" on="0"/>
        <pt x="786" y="1333" on="1"/>
        <pt x="786" y="1357" on="0"/>
        <pt x="796" y="1391" on="1"/>
        <pt x="716" y="1248" on="1"/>
        <pt x="635" y="1292" on="0"/>
        <pt x="599" y="1292" on="1"/>
        <pt x="557" y="1292" on="0"/>
        <pt x="531" y="1172" on="1"/>
        <pt x="519" y="1114" on="1"/>
        <pt x="696" y="1114" on="1"/>
        <pt x="644" y="869" on="1"/>
        <pt x="467" y="869" on="1"/>
        <pt x="282" y="0" on="1"/>
        <pt x="-59" y="0" on="1"/>
        <pt x="126" y="869" on="1"/>
        <pt x="2" y="869" on="1"/>
        <pt x="35" y="1024" on="1"/>
        <pt x="175" y="1101" on="1"/>
        <pt x="191" y="1176" on="1"/>
        <pt x="232" y="1368" on="0"/>
        <pt x="441" y="1550" on="0"/>
        <pt x="626" y="1550" on="1"/>
        <pt x="746" y="1550" on="0"/>
        <pt x="852" y="1492" on="1"/>
        <pt x="836" y="1464" on="1"/>
        <pt x="898" y="1532" on="0"/>
      </contour>
      <contour>
        <pt x="747" y="1114" on="1"/>
        <pt x="1088" y="1114" on="1"/>
        <pt x="851" y="0" on="1"/>
        <pt x="510" y="0" on="1"/>
      </contour>
    </TTGlyph>
    <TTGlyph name="finalkafdageshhb" xMin="71" yMin="-478" xMax="811" yMax="1310">
      <contour>
        <pt x="464" y="1310" on="1"/>
        <pt x="685" y="1310" on="0"/>
        <pt x="763" y="1175" on="1"/>
        <pt x="811" y="1093" on="0"/>
        <pt x="811" y="968" on="1"/>
        <pt x="811" y="870" on="0"/>
        <pt x="782" y="733" on="1"/>
        <pt x="525" y="-478" on="1"/>
        <pt x="182" y="-478" on="1"/>
        <pt x="439" y="733" on="1"/>
        <pt x="458" y="820" on="0"/>
        <pt x="458" y="914" on="0"/>
        <pt x="443" y="992" on="0"/>
        <pt x="380" y="1042" on="0"/>
        <pt x="326" y="1042" on="1"/>
        <pt x="224" y="1042" on="0"/>
        <pt x="140" y="1024" on="1"/>
        <pt x="113" y="1019" on="1"/>
        <pt x="168" y="1275" on="1"/>
        <pt x="325" y="1310" on="0"/>
      </contour>
      <contour>
        <pt x="157" y="722" on="1"/>
        <pt x="190" y="722" on="0"/>
        <pt x="216" y="692" on="0"/>
        <pt x="216" y="679" on="1"/>
        <pt x="216" y="634" on="0"/>
        <pt x="162" y="592" on="0"/>
        <pt x="96" y="592" on="0"/>
        <pt x="71" y="621" on="0"/>
        <pt x="71" y="647" on="0"/>
        <pt x="73" y="657" on="1"/>
        <pt x="88" y="722" on="0"/>
      </contour>
    </TTGlyph>
    <TTGlyph name="finalpedageshhb" xMin="47" yMin="-478" xMax="950" yMax="1310">
      <contour>
        <pt x="47" y="690" on="1"/>
        <pt x="47" y="694" on="0"/>
        <pt x="47" y="752" on="0"/>
        <pt x="59" y="822" on="1"/>
        <pt x="91" y="974" on="0"/>
        <pt x="265" y="1200" on="0"/>
        <pt x="484" y="1310" on="0"/>
        <pt x="601" y="1310" on="1"/>
        <pt x="678" y="1310" on="0"/>
        <pt x="794" y="1262" on="0"/>
        <pt x="863" y="1204" on="0"/>
        <pt x="893" y="1152" on="1"/>
        <pt x="950" y="1054" on="0"/>
        <pt x="950" y="899" on="1"/>
        <pt x="950" y="783" on="0"/>
        <pt x="921" y="646" on="1"/>
        <pt x="682" y="-478" on="1"/>
        <pt x="339" y="-478" on="1"/>
        <pt x="578" y="646" on="1"/>
        <pt x="615" y="820" on="0"/>
        <pt x="615" y="921" on="1"/>
        <pt x="615" y="1057" on="0"/>
        <pt x="547" y="1057" on="1"/>
        <pt x="514" y="1057" on="0"/>
        <pt x="457" y="1005" on="0"/>
        <pt x="439" y="967" on="1"/>
        <pt x="405" y="895" on="0"/>
        <pt x="388" y="805" on="0"/>
        <pt x="388" y="771" on="1"/>
        <pt x="388" y="674" on="0"/>
        <pt x="450" y="663" on="1"/>
        <pt x="478" y="657" on="1"/>
        <pt x="383" y="414" on="1"/>
        <pt x="337" y="419" on="1"/>
        <pt x="255" y="427" on="0"/>
        <pt x="183" y="464" on="1"/>
        <pt x="111" y="501" on="0"/>
        <pt x="69" y="588" on="1"/>
        <pt x="48" y="632" on="0"/>
      </contour>
      <contour>
        <pt x="539" y="943" on="1"/>
        <pt x="572" y="943" on="0"/>
        <pt x="598" y="913" on="0"/>
        <pt x="598" y="900" on="1"/>
        <pt x="598" y="855" on="0"/>
        <pt x="544" y="813" on="0"/>
        <pt x="478" y="813" on="0"/>
        <pt x="453" y="842" on="0"/>
        <pt x="453" y="868" on="0"/>
        <pt x="455" y="878" on="1"/>
        <pt x="470" y="943" on="0"/>
      </contour>
    </TTGlyph>
    <TTGlyph name="five" xMin="-60" yMin="-19" xMax="993" yMax="1462">
      <contour>
        <pt x="483" y="928" on="1"/>
        <pt x="519" y="931" on="0"/>
        <pt x="641" y="931" on="0"/>
        <pt x="761" y="885" on="0"/>
        <pt x="834" y="804" on="0"/>
        <pt x="876" y="693" on="0"/>
        <pt x="876" y="563" on="0"/>
        <pt x="863" y="492" on="1"/>
        <pt x="813" y="254" on="0"/>
        <pt x="494" y="-19" on="0"/>
        <pt x="266" y="-19" on="1"/>
        <pt x="60" y="-19" on="0"/>
        <pt x="-60" y="67" on="1"/>
        <pt x="0" y="351" on="1"/>
        <pt x="80" y="287" on="0"/>
        <pt x="198" y="260" on="1"/>
        <pt x="247" y="249" on="0"/>
        <pt x="294" y="249" on="1"/>
        <pt x="459" y="249" on="0"/>
        <pt x="507" y="471" on="1"/>
        <pt x="516" y="515" on="0"/>
        <pt x="516" y="550" on="1"/>
        <pt x="516" y="676" on="0"/>
        <pt x="390" y="676" on="1"/>
        <pt x="323" y="676" on="0"/>
        <pt x="201" y="638" on="1"/>
        <pt x="102" y="724" on="1"/>
        <pt x="303" y="1462" on="1"/>
        <pt x="993" y="1462" on="1"/>
        <pt x="934" y="1183" on="1"/>
        <pt x="553" y="1183" on="1"/>
      </contour>
    </TTGlyph>
    <TTGlyph name="fl" xMin="-59" yMin="0" xMax="1176" yMax="1550">
      <contour>
        <pt x="599" y="1292" on="1"/>
        <pt x="557" y="1292" on="0"/>
        <pt x="531" y="1172" on="1"/>
        <pt x="519" y="1114" on="1"/>
        <pt x="696" y="1114" on="1"/>
        <pt x="644" y="869" on="1"/>
        <pt x="467" y="869" on="1"/>
        <pt x="282" y="0" on="1"/>
        <pt x="-59" y="0" on="1"/>
        <pt x="126" y="869" on="1"/>
        <pt x="2" y="869" on="1"/>
        <pt x="35" y="1024" on="1"/>
        <pt x="175" y="1101" on="1"/>
        <pt x="191" y="1176" on="1"/>
        <pt x="232" y="1368" on="0"/>
        <pt x="441" y="1550" on="0"/>
        <pt x="626" y="1550" on="1"/>
        <pt x="732" y="1550" on="0"/>
        <pt x="828" y="1505" on="1"/>
        <pt x="835" y="1539" on="1"/>
        <pt x="1176" y="1539" on="1"/>
        <pt x="849" y="0" on="1"/>
        <pt x="508" y="0" on="1"/>
        <pt x="808" y="1414" on="1"/>
        <pt x="716" y="1248" on="1"/>
        <pt x="635" y="1292" on="0"/>
      </contour>
    </TTGlyph>
    <TTGlyph name="florin" xMin="-196" yMin="-473" xMax="1099" yMax="1469">
      <contour>
        <pt x="831" y="1469" on="1"/>
        <pt x="977" y="1469" on="0"/>
        <pt x="1099" y="1411" on="1"/>
        <pt x="968" y="1169" on="1"/>
        <pt x="861" y="1212" on="0"/>
        <pt x="815" y="1212" on="1"/>
        <pt x="750" y="1212" on="0"/>
        <pt x="724" y="1085" on="1"/>
        <pt x="713" y="1033" on="1"/>
        <pt x="924" y="1033" on="1"/>
        <pt x="871" y="786" on="1"/>
        <pt x="660" y="786" on="1"/>
        <pt x="628" y="633" on="0"/>
        <pt x="500" y="43" on="0"/>
        <pt x="471" y="-95" on="1"/>
        <pt x="431" y="-281" on="0"/>
        <pt x="194" y="-473" on="0"/>
        <pt x="6" y="-473" on="1"/>
        <pt x="-90" y="-473" on="0"/>
        <pt x="-196" y="-442" on="1"/>
        <pt x="-140" y="-178" on="1"/>
        <pt x="-35" y="-212" on="0"/>
        <pt x="52" y="-212" on="0"/>
        <pt x="108" y="-139" on="0"/>
        <pt x="125" y="-62" on="1"/>
        <pt x="305" y="786" on="1"/>
        <pt x="146" y="786" on="1"/>
        <pt x="180" y="945" on="1"/>
        <pt x="355" y="1020" on="1"/>
        <pt x="371" y="1095" on="1"/>
        <pt x="412" y="1288" on="0"/>
        <pt x="631" y="1469" on="0"/>
      </contour>
    </TTGlyph>
    <TTGlyph name="four" xMin="-67" yMin="0" xMax="977" yMax="1462">
      <contour>
        <pt x="785" y="559" on="1"/>
        <pt x="929" y="559" on="1"/>
        <pt x="874" y="298" on="1"/>
        <pt x="730" y="298" on="1"/>
        <pt x="667" y="0" on="1"/>
        <pt x="333" y="0" on="1"/>
        <pt x="396" y="298" on="1"/>
        <pt x="-67" y="298" on="1"/>
        <pt x="-17" y="535" on="1"/>
        <pt x="619" y="1462" on="1"/>
        <pt x="977" y="1462" on="1"/>
      </contour>
      <contour>
        <pt x="269" y="559" on="1"/>
        <pt x="451" y="559" on="1"/>
        <pt x="511" y="837" on="1"/>
        <pt x="541" y="950" on="1"/>
      </contour>
    </TTGlyph>
    <TTGlyph name="fraction" xMin="-579" yMin="0" xMax="756" yMax="1462">
      <contour>
        <pt x="-297" y="0" on="1"/>
        <pt x="-579" y="0" on="1"/>
        <pt x="473" y="1462" on="1"/>
        <pt x="756" y="1462" on="1"/>
      </contour>
    </TTGlyph>
    <TTGlyph name="g" xMin="-102" yMin="-473" xMax="1124" yMax="1134">
      <contour>
        <pt x="231" y="433" on="1"/>
        <pt x="147" y="507" on="0"/>
        <pt x="147" y="652" on="1"/>
        <pt x="147" y="700" on="0"/>
        <pt x="159" y="745" on="1"/>
        <pt x="199" y="931" on="0"/>
        <pt x="450" y="1134" on="0"/>
        <pt x="642" y="1134" on="1"/>
        <pt x="732" y="1134" on="0"/>
        <pt x="787" y="1112" on="1"/>
        <pt x="1124" y="1112" on="1"/>
        <pt x="1085" y="928" on="1"/>
        <pt x="956" y="902" on="1"/>
        <pt x="964" y="867" on="0"/>
        <pt x="964" y="788" on="0"/>
        <pt x="955" y="743" on="1"/>
        <pt x="916" y="561" on="0"/>
        <pt x="658" y="359" on="0"/>
        <pt x="481" y="359" on="1"/>
        <pt x="440" y="359" on="0"/>
        <pt x="426" y="361" on="1"/>
        <pt x="396" y="334" on="0"/>
        <pt x="384" y="278" on="0"/>
        <pt x="415" y="255" on="0"/>
        <pt x="453" y="255" on="1"/>
        <pt x="608" y="255" on="1"/>
        <pt x="766" y="255" on="0"/>
        <pt x="833" y="175" on="1"/>
        <pt x="878" y="121" on="0"/>
        <pt x="878" y="33" on="1"/>
        <pt x="878" y="-10" on="0"/>
        <pt x="867" y="-62" on="1"/>
        <pt x="825" y="-259" on="0"/>
        <pt x="506" y="-473" on="0"/>
        <pt x="252" y="-473" on="1"/>
        <pt x="53" y="-473" on="0"/>
        <pt x="-36" y="-390" on="1"/>
        <pt x="-102" y="-330" on="0"/>
        <pt x="-102" y="-232" on="1"/>
        <pt x="-102" y="-98" on="0"/>
        <pt x="-11" y="-2" on="1"/>
        <pt x="53" y="65" on="0"/>
        <pt x="151" y="105" on="1"/>
        <pt x="85" y="152" on="0"/>
        <pt x="85" y="222" on="1"/>
        <pt x="85" y="238" on="0"/>
        <pt x="89" y="256" on="1"/>
        <pt x="101" y="309" on="0"/>
        <pt x="174" y="392" on="0"/>
      </contour>
      <contour>
        <pt x="596" y="920" on="1"/>
        <pt x="532" y="920" on="0"/>
        <pt x="494" y="743" on="1"/>
        <pt x="481" y="683" on="0"/>
        <pt x="481" y="644" on="1"/>
        <pt x="481" y="574" on="0"/>
        <pt x="523" y="574" on="1"/>
        <pt x="584" y="574" on="0"/>
        <pt x="620" y="745" on="1"/>
        <pt x="634" y="812" on="0"/>
        <pt x="634" y="853" on="1"/>
        <pt x="634" y="920" on="0"/>
      </contour>
      <contour>
        <pt x="451" y="-12" on="1"/>
        <pt x="326" y="-12" on="1"/>
        <pt x="293" y="-12" on="0"/>
        <pt x="240" y="-78" on="0"/>
        <pt x="228" y="-135" on="1"/>
        <pt x="224" y="-152" on="0"/>
        <pt x="224" y="-197" on="0"/>
        <pt x="240" y="-216" on="1"/>
        <pt x="263" y="-245" on="0"/>
        <pt x="317" y="-245" on="1"/>
        <pt x="411" y="-245" on="0"/>
        <pt x="522" y="-170" on="0"/>
        <pt x="537" y="-101" on="1"/>
        <pt x="542" y="-80" on="0"/>
        <pt x="542" y="-38" on="0"/>
        <pt x="509" y="-12" on="0"/>
      </contour>
    </TTGlyph>
    <TTGlyph name="gereshhb" xMin="73" yMin="761" xMax="593" yMax="1290">
      <contour>
        <pt x="586" y="1290" on="1"/>
        <pt x="593" y="1266" on="1"/>
        <pt x="539" y="1153" on="0"/>
        <pt x="471" y="1021" on="1"/>
        <pt x="326" y="761" on="1"/>
        <pt x="73" y="761" on="1"/>
        <pt x="174" y="996" on="0"/>
        <pt x="246" y="1204" on="0"/>
        <pt x="260" y="1247" on="1"/>
        <pt x="274" y="1290" on="1"/>
      </contour>
    </TTGlyph>
    <TTGlyph name="germandbls" xMin="-95" yMin="-19" xMax="1074" yMax="1550">
      <contour>
        <pt x="188" y="1332" on="0"/>
        <pt x="473" y="1550" on="0"/>
        <pt x="900" y="1550" on="0"/>
        <pt x="995" y="1463" on="1"/>
        <pt x="1074" y="1391" on="0"/>
        <pt x="1074" y="1288" on="1"/>
        <pt x="1074" y="1255" on="0"/>
        <pt x="1066" y="1219" on="1"/>
        <pt x="1036" y="1072" on="0"/>
        <pt x="895" y="951" on="1"/>
        <pt x="836" y="901" on="1"/>
        <pt x="783" y="855" on="0"/>
        <pt x="771" y="792" on="0"/>
        <pt x="782" y="773" on="1"/>
        <pt x="806" y="733" on="0"/>
        <pt x="960" y="584" on="0"/>
        <pt x="979" y="518" on="1"/>
        <pt x="990" y="483" on="0"/>
        <pt x="990" y="397" on="0"/>
        <pt x="979" y="346" on="1"/>
        <pt x="942" y="173" on="0"/>
        <pt x="686" y="-19" on="0"/>
        <pt x="490" y="-19" on="1"/>
        <pt x="349" y="-19" on="0"/>
        <pt x="253" y="38" on="1"/>
        <pt x="245" y="0" on="1"/>
        <pt x="-95" y="0" on="1"/>
        <pt x="145" y="1129" on="1"/>
      </contour>
      <contour>
        <pt x="440" y="636" on="1"/>
        <pt x="423" y="680" on="0"/>
        <pt x="423" y="719" on="1"/>
        <pt x="423" y="825" on="0"/>
        <pt x="482" y="904" on="1"/>
        <pt x="520" y="957" on="0"/>
        <pt x="643" y="1057" on="0"/>
        <pt x="680" y="1103" on="1"/>
        <pt x="717" y="1152" on="0"/>
        <pt x="717" y="1215" on="1"/>
        <pt x="717" y="1244" on="0"/>
        <pt x="704" y="1264" on="1"/>
        <pt x="685" y="1295" on="0"/>
        <pt x="635" y="1295" on="1"/>
        <pt x="520" y="1295" on="0"/>
        <pt x="484" y="1121" on="1"/>
        <pt x="313" y="320" on="1"/>
        <pt x="441" y="223" on="0"/>
        <pt x="606" y="223" on="0"/>
        <pt x="629" y="326" on="1"/>
        <pt x="634" y="349" on="0"/>
        <pt x="634" y="390" on="0"/>
        <pt x="627" y="406" on="1"/>
        <pt x="603" y="454" on="0"/>
        <pt x="547" y="507" on="1"/>
        <pt x="547" y="506" on="1"/>
        <pt x="464" y="580" on="0"/>
      </contour>
    </TTGlyph>
    <TTGlyph name="gershayimhb" xMin="51" yMin="761" xMax="987" yMax="1290">
      <contour>
        <pt x="564" y="1290" on="1"/>
        <pt x="571" y="1266" on="1"/>
        <pt x="517" y="1153" on="0"/>
        <pt x="449" y="1021" on="1"/>
        <pt x="304" y="761" on="1"/>
        <pt x="51" y="761" on="1"/>
        <pt x="152" y="996" on="0"/>
        <pt x="224" y="1204" on="0"/>
        <pt x="238" y="1247" on="1"/>
        <pt x="252" y="1290" on="1"/>
      </contour>
      <contour>
        <pt x="980" y="1290" on="1"/>
        <pt x="987" y="1266" on="1"/>
        <pt x="933" y="1153" on="0"/>
        <pt x="865" y="1021" on="1"/>
        <pt x="720" y="761" on="1"/>
        <pt x="467" y="761" on="1"/>
        <pt x="568" y="996" on="0"/>
        <pt x="640" y="1204" on="0"/>
        <pt x="654" y="1247" on="1"/>
        <pt x="668" y="1290" on="1"/>
      </contour>
    </TTGlyph>
    <TTGlyph name="gimeldageshhb" xMin="-109" yMin="-19" xMax="822" yMax="1310">
      <contour>
        <pt x="291" y="1284" on="1"/>
        <pt x="414" y="1310" on="0"/>
        <pt x="600" y="1310" on="0"/>
        <pt x="731" y="1271" on="0"/>
        <pt x="766" y="1239" on="1"/>
        <pt x="822" y="1187" on="0"/>
        <pt x="822" y="1075" on="1"/>
        <pt x="822" y="1019" on="0"/>
        <pt x="800" y="916" on="1"/>
        <pt x="606" y="0" on="1"/>
        <pt x="339" y="0" on="1"/>
        <pt x="354" y="148" on="1"/>
        <pt x="343" y="148" on="1"/>
        <pt x="303" y="87" on="0"/>
        <pt x="130" y="-19" on="0"/>
        <pt x="29" y="-19" on="1"/>
        <pt x="-23" y="-19" on="0"/>
        <pt x="-86" y="-5" on="1"/>
        <pt x="-109" y="0" on="1"/>
        <pt x="-24" y="288" on="1"/>
        <pt x="48" y="265" on="0"/>
        <pt x="102" y="265" on="1"/>
        <pt x="214" y="265" on="0"/>
        <pt x="344" y="388" on="0"/>
        <pt x="375" y="532" on="1"/>
        <pt x="456" y="916" on="1"/>
        <pt x="463" y="949" on="0"/>
        <pt x="463" y="974" on="1"/>
        <pt x="463" y="1051" on="0"/>
        <pt x="394" y="1051" on="1"/>
        <pt x="305" y="1051" on="0"/>
        <pt x="237" y="1032" on="1"/>
      </contour>
      <contour>
        <pt x="230" y="722" on="1"/>
        <pt x="263" y="722" on="0"/>
        <pt x="289" y="692" on="0"/>
        <pt x="289" y="679" on="1"/>
        <pt x="289" y="634" on="0"/>
        <pt x="235" y="592" on="0"/>
        <pt x="169" y="592" on="0"/>
        <pt x="144" y="621" on="0"/>
        <pt x="144" y="647" on="0"/>
        <pt x="146" y="657" on="1"/>
        <pt x="161" y="722" on="0"/>
      </contour>
    </TTGlyph>
    <TTGlyph name="grave" xMin="285" yMin="1279" xMax="841" yMax="1567">
      <contour>
        <pt x="289" y="1567" on="1"/>
        <pt x="667" y="1567" on="1"/>
        <pt x="703" y="1499" on="0"/>
        <pt x="802" y="1362" on="1"/>
        <pt x="841" y="1304" on="1"/>
        <pt x="835" y="1279" on="1"/>
        <pt x="607" y="1279" on="1"/>
        <pt x="556" y="1315" on="0"/>
        <pt x="372" y="1468" on="0"/>
        <pt x="285" y="1549" on="1"/>
      </contour>
    </TTGlyph>
    <TTGlyph name="greater" xMin="-61" yMin="166" xMax="845" yMax="1279">
      <contour>
        <pt x="522" y="723" on="1"/>
        <pt x="435" y="781" on="0"/>
        <pt x="115" y="996" on="1"/>
        <pt x="175" y="1279" on="1"/>
        <pt x="845" y="805" on="1"/>
        <pt x="810" y="642" on="1"/>
        <pt x="-61" y="166" on="1"/>
        <pt x="-1" y="449" on="1"/>
      </contour>
    </TTGlyph>
    <TTGlyph name="guillemotleft" xMin="24" yMin="77" xMax="1154" yMax="1047">
      <contour>
        <pt x="391" y="562" on="1"/>
        <pt x="535" y="219" on="1"/>
        <pt x="250" y="77" on="1"/>
        <pt x="24" y="548" on="1"/>
        <pt x="30" y="574" on="1"/>
        <pt x="456" y="1047" on="1"/>
        <pt x="681" y="905" on="1"/>
      </contour>
      <contour>
        <pt x="864" y="562" on="1"/>
        <pt x="1008" y="219" on="1"/>
        <pt x="722" y="77" on="1"/>
        <pt x="497" y="548" on="1"/>
        <pt x="503" y="574" on="1"/>
        <pt x="928" y="1047" on="1"/>
        <pt x="1154" y="905" on="1"/>
      </contour>
    </TTGlyph>
    <TTGlyph name="guillemotright" xMin="-49" yMin="77" xMax="1080" yMax="1047">
      <contour>
        <pt x="240" y="562" on="1"/>
        <pt x="97" y="905" on="1"/>
        <pt x="381" y="1047" on="1"/>
        <pt x="607" y="574" on="1"/>
        <pt x="601" y="548" on="1"/>
        <pt x="175" y="77" on="1"/>
        <pt x="-49" y="219" on="1"/>
      </contour>
      <contour>
        <pt x="713" y="562" on="1"/>
        <pt x="569" y="905" on="1"/>
        <pt x="855" y="1047" on="1"/>
        <pt x="1080" y="574" on="1"/>
        <pt x="1074" y="548" on="1"/>
        <pt x="649" y="77" on="1"/>
        <pt x="423" y="219" on="1"/>
      </contour>
    </TTGlyph>
    <TTGlyph name="guilsinglleft" xMin="21" yMin="77" xMax="677" yMax="1047">
      <contour>
        <pt x="387" y="562" on="1"/>
        <pt x="531" y="219" on="1"/>
        <pt x="246" y="77" on="1"/>
        <pt x="21" y="548" on="1"/>
        <pt x="27" y="574" on="1"/>
        <pt x="452" y="1047" on="1"/>
        <pt x="677" y="905" on="1"/>
      </contour>
    </TTGlyph>
    <TTGlyph name="guilsinglright" xMin="-53" yMin="77" xMax="604" yMax="1047">
      <contour>
        <pt x="604" y="574" on="1"/>
        <pt x="598" y="548" on="1"/>
        <pt x="171" y="77" on="1"/>
        <pt x="-53" y="219" on="1"/>
        <pt x="236" y="562" on="1"/>
        <pt x="228" y="582" on="0"/>
        <pt x="93" y="905" on="1"/>
        <pt x="377" y="1047" on="1"/>
      </contour>
    </TTGlyph>
    <TTGlyph name="h" xMin="-39" yMin="0" xMax="1009" yMax="1539">
      <contour>
        <pt x="739" y="1134" on="1"/>
        <pt x="907" y="1134" on="0"/>
        <pt x="971" y="1029" on="1"/>
        <pt x="1009" y="966" on="0"/>
        <pt x="1009" y="868" on="1"/>
        <pt x="1009" y="803" on="0"/>
        <pt x="992" y="721" on="1"/>
        <pt x="838" y="0" on="1"/>
        <pt x="495" y="0" on="1"/>
        <pt x="636" y="660" on="1"/>
        <pt x="653" y="740" on="0"/>
        <pt x="653" y="790" on="1"/>
        <pt x="653" y="875" on="0"/>
        <pt x="605" y="875" on="1"/>
        <pt x="543" y="875" on="0"/>
        <pt x="453" y="706" on="0"/>
        <pt x="416" y="536" on="1"/>
        <pt x="302" y="0" on="1"/>
        <pt x="-39" y="0" on="1"/>
        <pt x="289" y="1539" on="1"/>
        <pt x="630" y="1539" on="1"/>
        <pt x="554" y="1185" on="1"/>
        <pt x="550" y="1161" on="0"/>
        <pt x="524" y="1066" on="1"/>
        <pt x="618" y="1134" on="0"/>
      </contour>
    </TTGlyph>
    <TTGlyph name="hedageshhb" xMin="-48" yMin="0" xMax="1042" yMax="1310">
      <contour>
        <pt x="548" y="1310" on="0"/>
        <pt x="762" y="1310" on="0"/>
        <pt x="899" y="1285" on="0"/>
        <pt x="986" y="1229" on="0"/>
        <pt x="1034" y="1157" on="0"/>
        <pt x="1042" y="1075" on="0"/>
        <pt x="1042" y="1047" on="1"/>
        <pt x="1042" y="970" on="0"/>
        <pt x="1017" y="853" on="1"/>
        <pt x="836" y="0" on="1"/>
        <pt x="491" y="0" on="1"/>
        <pt x="672" y="854" on="1"/>
        <pt x="683" y="906" on="0"/>
        <pt x="683" y="989" on="0"/>
        <pt x="667" y="1013" on="1"/>
        <pt x="637" y="1057" on="0"/>
        <pt x="539" y="1057" on="1"/>
        <pt x="471" y="1057" on="0"/>
        <pt x="285" y="1036" on="0"/>
        <pt x="226" y="1025" on="1"/>
        <pt x="167" y="1014" on="1"/>
        <pt x="220" y="1264" on="1"/>
        <pt x="288" y="1281" on="0"/>
      </contour>
      <contour>
        <pt x="-48" y="0" on="1"/>
        <pt x="130" y="838" on="1"/>
        <pt x="474" y="838" on="1"/>
        <pt x="296" y="0" on="1"/>
      </contour>
      <contour>
        <pt x="546" y="722" on="1"/>
        <pt x="579" y="722" on="0"/>
        <pt x="605" y="692" on="0"/>
        <pt x="605" y="679" on="1"/>
        <pt x="605" y="634" on="0"/>
        <pt x="551" y="592" on="0"/>
        <pt x="485" y="592" on="0"/>
        <pt x="460" y="621" on="0"/>
        <pt x="460" y="647" on="0"/>
        <pt x="462" y="657" on="1"/>
        <pt x="477" y="722" on="0"/>
      </contour>
    </TTGlyph>
    <TTGlyph name="hungarumlaut" xMin="88" yMin="1281" xMax="1066" yMax="1569">
      <contour>
        <pt x="657" y="1569" on="1"/>
        <pt x="653" y="1551" on="1"/>
        <pt x="625" y="1518" on="0"/>
        <pt x="518" y="1442" on="1"/>
        <pt x="393" y="1357" on="0"/>
        <pt x="266" y="1281" on="1"/>
        <pt x="88" y="1281" on="1"/>
        <pt x="94" y="1306" on="1"/>
        <pt x="149" y="1365" on="1"/>
        <pt x="270" y="1493" on="0"/>
        <pt x="332" y="1569" on="1"/>
      </contour>
      <contour>
        <pt x="1066" y="1569" on="1"/>
        <pt x="1062" y="1551" on="1"/>
        <pt x="1028" y="1510" on="0"/>
        <pt x="786" y="1347" on="0"/>
        <pt x="673" y="1281" on="1"/>
        <pt x="495" y="1281" on="1"/>
        <pt x="501" y="1306" on="1"/>
        <pt x="556" y="1365" on="1"/>
        <pt x="680" y="1494" on="0"/>
        <pt x="739" y="1569" on="1"/>
      </contour>
    </TTGlyph>
    <TTGlyph name="hyphen" xMin="4" yMin="419" xMax="636" yMax="689">
      <contour>
        <pt x="578" y="419" on="1"/>
        <pt x="4" y="419" on="1"/>
        <pt x="62" y="689" on="1"/>
        <pt x="636" y="689" on="1"/>
      </contour>
    </TTGlyph>
    <TTGlyph name="i" xMin="-35" yMin="0" xMax="614" yMax="1532">
      <contour>
        <pt x="262" y="1447" on="0"/>
        <pt x="377" y="1532" on="0"/>
        <pt x="546" y="1532" on="0"/>
        <pt x="586" y="1489" on="1"/>
        <pt x="614" y="1458" on="0"/>
        <pt x="614" y="1413" on="1"/>
        <pt x="614" y="1394" on="0"/>
        <pt x="609" y="1373" on="1"/>
        <pt x="594" y="1299" on="0"/>
        <pt x="476" y="1214" on="0"/>
        <pt x="311" y="1214" on="0"/>
        <pt x="270" y="1256" on="1"/>
        <pt x="241" y="1286" on="0"/>
        <pt x="241" y="1333" on="1"/>
        <pt x="241" y="1352" on="0"/>
        <pt x="246" y="1373" on="1"/>
      </contour>
      <contour>
        <pt x="306" y="0" on="1"/>
        <pt x="-35" y="0" on="1"/>
        <pt x="202" y="1114" on="1"/>
        <pt x="543" y="1114" on="1"/>
      </contour>
    </TTGlyph>
    <TTGlyph name="iacute" xMin="-38" yMin="0" xMax="790" yMax="1566">
      <contour>
        <pt x="790" y="1566" on="1"/>
        <pt x="787" y="1548" on="1"/>
        <pt x="692" y="1484" on="0"/>
        <pt x="419" y="1315" on="0"/>
        <pt x="349" y="1278" on="1"/>
        <pt x="121" y="1278" on="1"/>
        <pt x="127" y="1303" on="1"/>
        <pt x="302" y="1457" on="0"/>
        <pt x="390" y="1539" on="0"/>
        <pt x="414" y="1566" on="1"/>
      </contour>
      <contour>
        <pt x="303" y="0" on="1"/>
        <pt x="-38" y="0" on="1"/>
        <pt x="198" y="1114" on="1"/>
        <pt x="539" y="1114" on="1"/>
      </contour>
    </TTGlyph>
    <TTGlyph name="icircumflex" xMin="-68" yMin="0" xMax="737" yMax="1567">
      <contour>
        <pt x="221" y="1567" on="1"/>
        <pt x="567" y="1567" on="1"/>
        <pt x="624" y="1447" on="0"/>
        <pt x="737" y="1304" on="1"/>
        <pt x="731" y="1279" on="1"/>
        <pt x="507" y="1279" on="1"/>
        <pt x="445" y="1319" on="0"/>
        <pt x="358" y="1411" on="1"/>
        <pt x="228" y="1316" on="0"/>
        <pt x="159" y="1279" on="1"/>
        <pt x="-68" y="1279" on="1"/>
        <pt x="-62" y="1304" on="1"/>
        <pt x="-2" y="1350" on="0"/>
        <pt x="94" y="1438" on="1"/>
        <pt x="173" y="1513" on="0"/>
      </contour>
      <contour>
        <pt x="302" y="0" on="1"/>
        <pt x="-39" y="0" on="1"/>
        <pt x="198" y="1114" on="1"/>
        <pt x="539" y="1114" on="1"/>
      </contour>
    </TTGlyph>
    <TTGlyph name="idieresis" xMin="-37" yMin="0" xMax="745" yMax="1554">
      <contour>
        <pt x="28" y="1480" on="0"/>
        <pt x="124" y="1554" on="0"/>
        <pt x="266" y="1554" on="0"/>
        <pt x="299" y="1516" on="1"/>
        <pt x="322" y="1488" on="0"/>
        <pt x="322" y="1449" on="1"/>
        <pt x="322" y="1432" on="0"/>
        <pt x="318" y="1413" on="1"/>
        <pt x="305" y="1350" on="0"/>
        <pt x="207" y="1275" on="0"/>
        <pt x="65" y="1275" on="0"/>
        <pt x="32" y="1312" on="1"/>
        <pt x="10" y="1337" on="0"/>
        <pt x="10" y="1376" on="1"/>
        <pt x="10" y="1393" on="0"/>
        <pt x="14" y="1413" on="1"/>
      </contour>
      <contour>
        <pt x="451" y="1480" on="0"/>
        <pt x="547" y="1554" on="0"/>
        <pt x="689" y="1554" on="0"/>
        <pt x="722" y="1516" on="1"/>
        <pt x="745" y="1488" on="0"/>
        <pt x="745" y="1449" on="1"/>
        <pt x="745" y="1432" on="0"/>
        <pt x="741" y="1413" on="1"/>
        <pt x="728" y="1350" on="0"/>
        <pt x="630" y="1275" on="0"/>
        <pt x="488" y="1275" on="0"/>
        <pt x="456" y="1312" on="1"/>
        <pt x="433" y="1337" on="0"/>
        <pt x="433" y="1376" on="1"/>
        <pt x="433" y="1393" on="0"/>
        <pt x="437" y="1413" on="1"/>
      </contour>
      <contour>
        <pt x="304" y="0" on="1"/>
        <pt x="-37" y="0" on="1"/>
        <pt x="200" y="1114" on="1"/>
        <pt x="541" y="1114" on="1"/>
      </contour>
    </TTGlyph>
    <TTGlyph name="igrave" xMin="-39" yMin="0" xMax="556" yMax="1567">
      <contour>
        <pt x="4" y="1567" on="1"/>
        <pt x="382" y="1567" on="1"/>
        <pt x="418" y="1499" on="0"/>
        <pt x="517" y="1362" on="1"/>
        <pt x="556" y="1304" on="1"/>
        <pt x="550" y="1279" on="1"/>
        <pt x="322" y="1279" on="1"/>
        <pt x="271" y="1315" on="0"/>
        <pt x="87" y="1468" on="0"/>
        <pt x="0" y="1549" on="1"/>
      </contour>
      <contour>
        <pt x="302" y="0" on="1"/>
        <pt x="-39" y="0" on="1"/>
        <pt x="198" y="1114" on="1"/>
        <pt x="539" y="1114" on="1"/>
      </contour>
    </TTGlyph>
    <TTGlyph name="j" xMin="-319" yMin="-473" xMax="595" yMax="1532">
      <contour>
        <pt x="245" y="1447" on="0"/>
        <pt x="359" y="1532" on="0"/>
        <pt x="528" y="1532" on="0"/>
        <pt x="567" y="1488" on="1"/>
        <pt x="595" y="1458" on="0"/>
        <pt x="595" y="1412" on="1"/>
        <pt x="595" y="1394" on="0"/>
        <pt x="590" y="1373" on="1"/>
        <pt x="574" y="1299" on="0"/>
        <pt x="459" y="1214" on="0"/>
        <pt x="294" y="1214" on="0"/>
        <pt x="254" y="1256" on="1"/>
        <pt x="224" y="1286" on="0"/>
        <pt x="224" y="1333" on="1"/>
        <pt x="224" y="1352" on="0"/>
        <pt x="229" y="1373" on="1"/>
      </contour>
      <contour>
        <pt x="-151" y="-473" on="1"/>
        <pt x="-248" y="-473" on="0"/>
        <pt x="-319" y="-436" on="1"/>
        <pt x="-263" y="-173" on="1"/>
        <pt x="-171" y="-212" on="0"/>
        <pt x="-147" y="-212" on="1"/>
        <pt x="-98" y="-212" on="0"/>
        <pt x="-68" y="-69" on="1"/>
        <pt x="183" y="1114" on="1"/>
        <pt x="524" y="1114" on="1"/>
        <pt x="266" y="-103" on="1"/>
        <pt x="228" y="-281" on="0"/>
        <pt x="10" y="-473" on="0"/>
      </contour>
    </TTGlyph>
    <TTGlyph name="k" xMin="-39" yMin="0" xMax="1095" yMax="1539">
      <contour>
        <pt x="474" y="812" on="1"/>
        <pt x="461" y="765" on="1"/>
        <pt x="737" y="1114" on="1"/>
        <pt x="1095" y="1114" on="1"/>
        <pt x="713" y="653" on="1"/>
        <pt x="873" y="0" on="1"/>
        <pt x="520" y="0" on="1"/>
        <pt x="430" y="418" on="1"/>
        <pt x="423" y="413" on="0"/>
        <pt x="392" y="388" on="0"/>
        <pt x="382" y="381" on="1"/>
        <pt x="301" y="0" on="1"/>
        <pt x="-39" y="0" on="1"/>
        <pt x="289" y="1539" on="1"/>
        <pt x="629" y="1539" on="1"/>
      </contour>
    </TTGlyph>
    <TTGlyph name="kafdageshhb" xMin="-90" yMin="-19" xMax="832" yMax="1310">
      <contour>
        <pt x="471" y="907" on="1"/>
        <pt x="471" y="1046" on="0"/>
        <pt x="350" y="1046" on="1"/>
        <pt x="237" y="1046" on="0"/>
        <pt x="151" y="1028" on="1"/>
        <pt x="124" y="1023" on="1"/>
        <pt x="179" y="1279" on="1"/>
        <pt x="319" y="1310" on="0"/>
        <pt x="581" y="1310" on="0"/>
        <pt x="729" y="1257" on="0"/>
        <pt x="768" y="1213" on="1"/>
        <pt x="832" y="1139" on="0"/>
        <pt x="832" y="999" on="1"/>
        <pt x="832" y="920" on="0"/>
        <pt x="805" y="793" on="1"/>
        <pt x="749" y="528" on="1"/>
        <pt x="688" y="245" on="0"/>
        <pt x="520" y="98" on="1"/>
        <pt x="461" y="45" on="0"/>
        <pt x="292" y="-19" on="0"/>
        <pt x="192" y="-19" on="1"/>
        <pt x="21" y="-19" on="0"/>
        <pt x="-90" y="16" on="1"/>
        <pt x="-34" y="280" on="1"/>
        <pt x="76" y="245" on="0"/>
        <pt x="196" y="245" on="1"/>
        <pt x="299" y="245" on="0"/>
        <pt x="349" y="358" on="1"/>
        <pt x="374" y="415" on="0"/>
        <pt x="399" y="528" on="1"/>
        <pt x="455" y="793" on="1"/>
        <pt x="471" y="858" on="0"/>
      </contour>
      <contour>
        <pt x="237" y="722" on="1"/>
        <pt x="270" y="722" on="0"/>
        <pt x="296" y="692" on="0"/>
        <pt x="296" y="679" on="1"/>
        <pt x="296" y="634" on="0"/>
        <pt x="242" y="592" on="0"/>
        <pt x="176" y="592" on="0"/>
        <pt x="151" y="621" on="0"/>
        <pt x="151" y="647" on="0"/>
        <pt x="153" y="657" on="1"/>
        <pt x="168" y="722" on="0"/>
      </contour>
    </TTGlyph>
    <TTGlyph name="l" xMin="-39" yMin="0" xMax="630" yMax="1539">
      <contour>
        <pt x="302" y="0" on="1"/>
        <pt x="-39" y="0" on="1"/>
        <pt x="289" y="1539" on="1"/>
        <pt x="630" y="1539" on="1"/>
      </contour>
    </TTGlyph>
    <TTGlyph name="lameddageshhb" xMin="96" yMin="0" xMax="969" yMax="1548">
      <contour>
        <pt x="969" y="1290" on="1"/>
        <pt x="927" y="1095" on="1"/>
        <pt x="635" y="495" on="1"/>
        <pt x="431" y="0" on="1"/>
        <pt x="96" y="0" on="1"/>
        <pt x="303" y="504" on="1"/>
        <pt x="564" y="1039" on="1"/>
        <pt x="114" y="1039" on="1"/>
        <pt x="223" y="1548" on="1"/>
        <pt x="567" y="1548" on="1"/>
        <pt x="512" y="1290" on="1"/>
      </contour>
      <contour>
        <pt x="186" y="722" on="1"/>
        <pt x="219" y="722" on="0"/>
        <pt x="245" y="692" on="0"/>
        <pt x="245" y="679" on="1"/>
        <pt x="245" y="634" on="0"/>
        <pt x="191" y="592" on="0"/>
        <pt x="125" y="592" on="0"/>
        <pt x="100" y="621" on="0"/>
        <pt x="100" y="647" on="0"/>
        <pt x="102" y="657" on="1"/>
        <pt x="117" y="722" on="0"/>
      </contour>
    </TTGlyph>
    <TTGlyph name="less" xMin="40" yMin="166" xMax="945" yMax="1279">
      <contour>
        <pt x="885" y="996" on="1"/>
        <pt x="364" y="723" on="1"/>
        <pt x="754" y="459" on="0"/>
        <pt x="769" y="449" on="1"/>
        <pt x="709" y="166" on="1"/>
        <pt x="40" y="642" on="1"/>
        <pt x="75" y="805" on="1"/>
        <pt x="945" y="1279" on="1"/>
      </contour>
    </TTGlyph>
    <TTGlyph name="logicalnot" xMin="69" yMin="243" xMax="891" yMax="844">
      <contour>
        <pt x="763" y="243" on="1"/>
        <pt x="488" y="243" on="1"/>
        <pt x="564" y="600" on="1"/>
        <pt x="69" y="600" on="1"/>
        <pt x="121" y="844" on="1"/>
        <pt x="891" y="844" on="1"/>
      </contour>
    </TTGlyph>
    <TTGlyph name="m" xMin="4" yMin="0" xMax="1582" yMax="1134">
      <contour>
        <pt x="524" y="1114" on="1"/>
        <pt x="524" y="1035" on="1"/>
        <pt x="633" y="1134" on="0"/>
        <pt x="786" y="1134" on="1"/>
        <pt x="972" y="1134" on="0"/>
        <pt x="1028" y="1003" on="1"/>
        <pt x="1144" y="1134" on="0"/>
        <pt x="1314" y="1134" on="1"/>
        <pt x="1582" y="1134" on="0"/>
        <pt x="1582" y="871" on="1"/>
        <pt x="1582" y="804" on="0"/>
        <pt x="1564" y="721" on="1"/>
        <pt x="1410" y="0" on="1"/>
        <pt x="1068" y="0" on="1"/>
        <pt x="1209" y="660" on="1"/>
        <pt x="1226" y="741" on="0"/>
        <pt x="1226" y="792" on="1"/>
        <pt x="1226" y="875" on="0"/>
        <pt x="1180" y="875" on="1"/>
        <pt x="1118" y="875" on="0"/>
        <pt x="1031" y="718" on="0"/>
        <pt x="994" y="542" on="1"/>
        <pt x="878" y="0" on="1"/>
        <pt x="536" y="0" on="1"/>
        <pt x="677" y="660" on="1"/>
        <pt x="694" y="740" on="0"/>
        <pt x="694" y="790" on="1"/>
        <pt x="694" y="875" on="0"/>
        <pt x="646" y="875" on="1"/>
        <pt x="613" y="875" on="0"/>
        <pt x="557" y="834" on="0"/>
        <pt x="522" y="777" on="0"/>
        <pt x="506" y="730" on="1"/>
        <pt x="484" y="662" on="0"/>
        <pt x="460" y="545" on="0"/>
        <pt x="458" y="536" on="1"/>
        <pt x="344" y="0" on="1"/>
        <pt x="4" y="0" on="1"/>
        <pt x="241" y="1114" on="1"/>
      </contour>
    </TTGlyph>
    <TTGlyph name="memdageshhb" xMin="-84" yMin="0" xMax="1110" yMax="1310">
      <contour>
        <pt x="203" y="1098" on="1"/>
        <pt x="203" y="1187" on="0"/>
        <pt x="185" y="1290" on="1"/>
        <pt x="501" y="1290" on="1"/>
        <pt x="511" y="1252" on="0"/>
        <pt x="511" y="1176" on="0"/>
        <pt x="510" y="1160" on="1"/>
        <pt x="515" y="1160" on="1"/>
        <pt x="702" y="1310" on="0"/>
        <pt x="845" y="1310" on="1"/>
        <pt x="926" y="1310" on="0"/>
        <pt x="1036" y="1258" on="0"/>
        <pt x="1065" y="1214" on="1"/>
        <pt x="1110" y="1145" on="0"/>
        <pt x="1110" y="1017" on="1"/>
        <pt x="1110" y="927" on="0"/>
        <pt x="1082" y="797" on="1"/>
        <pt x="913" y="0" on="1"/>
        <pt x="397" y="0" on="1"/>
        <pt x="450" y="251" on="1"/>
        <pt x="623" y="251" on="1"/>
        <pt x="739" y="797" on="1"/>
        <pt x="765" y="894" on="0"/>
        <pt x="765" y="963" on="1"/>
        <pt x="765" y="970" on="0"/>
        <pt x="765" y="977" on="1"/>
        <pt x="762" y="1050" on="0"/>
        <pt x="701" y="1050" on="1"/>
        <pt x="634" y="1050" on="0"/>
        <pt x="560" y="970" on="1"/>
        <pt x="544" y="952" on="0"/>
        <pt x="526" y="926" on="1"/>
        <pt x="259" y="0" on="1"/>
        <pt x="-84" y="0" on="1"/>
        <pt x="163" y="832" on="1"/>
        <pt x="203" y="964" on="0"/>
      </contour>
      <contour>
        <pt x="587" y="722" on="1"/>
        <pt x="620" y="722" on="0"/>
        <pt x="646" y="692" on="0"/>
        <pt x="646" y="679" on="1"/>
        <pt x="646" y="634" on="0"/>
        <pt x="592" y="592" on="0"/>
        <pt x="526" y="592" on="0"/>
        <pt x="501" y="621" on="0"/>
        <pt x="501" y="647" on="0"/>
        <pt x="503" y="657" on="1"/>
        <pt x="518" y="722" on="0"/>
      </contour>
    </TTGlyph>
    <TTGlyph name="multiply" xMin="43" yMin="364" xMax="841" yMax="1082">
      <contour>
        <pt x="841" y="909" on="1"/>
        <pt x="615" y="723" on="1"/>
        <pt x="761" y="537" on="1"/>
        <pt x="552" y="364" on="1"/>
        <pt x="405" y="550" on="1"/>
        <pt x="180" y="364" on="1"/>
        <pt x="43" y="537" on="1"/>
        <pt x="269" y="723" on="1"/>
        <pt x="123" y="909" on="1"/>
        <pt x="332" y="1082" on="1"/>
        <pt x="479" y="896" on="1"/>
        <pt x="704" y="1082" on="1"/>
      </contour>
    </TTGlyph>
    <TTGlyph name="n" xMin="4" yMin="0" xMax="1053" yMax="1134">
      <contour>
        <pt x="524" y="1114" on="1"/>
        <pt x="524" y="1035" on="1"/>
        <pt x="636" y="1134" on="0"/>
        <pt x="789" y="1134" on="1"/>
        <pt x="1053" y="1134" on="0"/>
        <pt x="1053" y="874" on="1"/>
        <pt x="1053" y="807" on="0"/>
        <pt x="1035" y="721" on="1"/>
        <pt x="881" y="0" on="1"/>
        <pt x="538" y="0" on="1"/>
        <pt x="679" y="660" on="1"/>
        <pt x="696" y="740" on="0"/>
        <pt x="696" y="791" on="1"/>
        <pt x="696" y="875" on="0"/>
        <pt x="648" y="875" on="1"/>
        <pt x="618" y="875" on="0"/>
        <pt x="568" y="841" on="0"/>
        <pt x="537" y="794" on="0"/>
        <pt x="506" y="715" on="0"/>
        <pt x="498" y="684" on="1"/>
        <pt x="478" y="606" on="1"/>
        <pt x="466" y="560" on="0"/>
        <pt x="459" y="536" on="1"/>
        <pt x="345" y="0" on="1"/>
        <pt x="4" y="0" on="1"/>
        <pt x="241" y="1114" on="1"/>
      </contour>
    </TTGlyph>
</ttFont>
